NotoSansHentaigana.glyphspackage
{
export = 0;
glyphname = "ho-kata";
layers = (
{
layerId = m01;
shapes = (
{
closed = 1;
nodes = (
(300,339,l),
(281,282,o),
(256,227,o),
(178,168,cs),
(154,150,o),
(137,144,o),
(137,127,cs),
(137,115,o),
(145,102,o),
(163,102,cs),
(225,102,o),
(312,227,o),
(329,332,c)
);
},
{
closed = 1;
nodes = (
(410,702,l),
(467,697,o),
(488,691,o),
(490,658,cs),
(492,632,o),
(493,571,o),
(493,512,c),
(425,503,o),
(251,480,o),
(205,479,cs),
(186,478,o),
(163,507,o),
(147,532,c),
(127,522,l),
(131,503,o),
(136,484,o),
(142,474,cs),
(158,446,o),
(192,421,o),
(210,421,cs),
(231,421,o),
(236,437,o),
(277,445,cs),
(332,456,o),
(429,469,o),
(494,477,c),
(494,389,ls),
(494,304,o),
(493,134,o),
(490,90,cs),
(489,76,o),
(480,75,o),
(468,78,cs),
(443,85,o),
(404,101,o),
(375,113,c),
(364,90,l),
(395,74,o),
(431,51,o),
(451,32,cs),
(472,12,o),
(470,-8,o),
(492,-8,cs),
(519,-8,o),
(535,27,o),
(535,66,cs),
(535,88,o),
(533,324,o),
(533,387,cs),
(533,413,o),
(533,447,o),
(534,482,c),
(601,490,o),
(694,500,o),
(735,500,cs),
(772,500,o),
(799,499,o),
(825,499,cs),
(849,499,o),
(857,504,o),
(857,523,cs),
(857,537,o),
(815,559,o),
(781,559,cs),
(761,559,o),
(750,543,o),
(534,517,c),
(535,564,o),
(536,610,o),
(537,633,cs),
(538,662,o),
(559,661,o),
(559,677,cs),
(559,697,o),
(515,727,o),
(478,730,cs),
(461,730,o),
(432,729,o),
(409,726,c)
);
},
{
closed = 1;
nodes = (
(668,333,l),
(740,286,o),
(788,222,o),
(812,185,cs),
(832,154,o),
(843,123,o),
(866,123,cs),
(885,123,o),
(893,140,o),
(887,164,cs),
(868,237,o),
(776,307,o),
(683,352,c)
);
}
);
width = 1000;
},
{
layerId = "22BF860B-E605-42C1-AA52-30D9AB94E7CE";
shapes = (
{
closed = 1;
nodes = (
(294,350,l),
(275,295,o),
(249,245,o),
(182,194,cs),
(144,164,o),
(123,158,o),
(123,126,cs),
(123,103,o),
(138,85,o),
(164,85,cs),
(243,85,o),
(312,232,o),
(319,345,c)
);
},
{
closed = 1;
nodes = (
(394,712,l),
(443,705,o),
(466,697,o),
(472,669,cs),
(475,649,o),
(477,588,o),
(478,526,c),
(404,517,o),
(243,498,o),
(197,497,cs),
(173,497,o),
(153,519,o),
(133,547,c),
(116,539,l),
(117,520,o),
(120,494,o),
(126,480,cs),
(143,445,o),
(182,412,o),
(207,412,cs),
(232,412,o),
(244,431,o),
(283,440,cs),
(334,451,o),
(417,463,o),
(480,471,c),
(480,391,ls),
(481,306,o),
(481,149,o),
(477,101,cs),
(476,87,o),
(468,85,o),
(457,87,cs),
(431,91,o),
(393,103,o),
(358,114,c),
(349,94,l),
(382,75,o),
(413,49,o),
(430,28,cs),
(453,-4,o),
(452,-24,o),
(484,-24,cs),
(524,-24,o),
(552,27,o),
(552,72,cs),
(552,103,o),
(546,306,o),
(546,390,cs),
(546,415,o),
(546,446,o),
(547,478,c),
(611,485,o),
(689,493,o),
(728,493,cs),
(777,493,o),
(807,489,o),
(839,489,cs),
(866,489,o),
(877,497,o),
(877,520,cs),
(877,551,o),
(820,576,o),
(781,576,cs),
(758,576,o),
(749,561,o),
(548,535,c),
(550,575,o),
(551,613,o),
(554,635,cs),
(556,663,o),
(576,666,o),
(576,686,cs),
(576,712,o),
(518,746,o),
(474,748,cs),
(448,748,o),
(416,740,o),
(393,732,c)
);
},
{
closed = 1;
nodes = (
(663,344,l),
(732,291,o),
(774,229,o),
(802,175,cs),
(819,142,o),
(833,108,o),
(865,108,cs),
(893,108,o),
(908,131,o),
(904,163,cs),
(890,251,o),
(784,324,o),
(675,360,c)
);
}
);
width = 1000;
},
{
layerId = "027B829E-3619-44FF-8C68-78647B0AD671";
shapes = (
{
closed = 1;
nodes = (
(285,367,l),
(266,317,o),
(236,276,o),
(188,236,cs),
(128,187,o),
(99,180,o),
(99,125,cs),
(99,83,o),
(127,56,o),
(166,56,cs),
(272,56,o),
(312,240,o),
(301,366,c)
);
},
{
closed = 1;
nodes = (
(366,729,l),
(402,717,o),
(430,708,o),
(441,687,cs),
(447,676,o),
(451,616,o),
(453,550,c),
(368,541,o),
(230,528,o),
(184,528,cs),
(151,528,o),
(137,539,o),
(109,572,c),
(97,568,l),
(94,549,o),
(92,510,o),
(100,489,cs),
(118,443,o),
(166,398,o),
(203,398,cs),
(233,398,o),
(258,422,o),
(294,431,cs),
(338,443,o),
(397,454,o),
(456,461,c),
(457,395,ls),
(458,310,o),
(460,173,o),
(455,118,cs),
(454,105,o),
(449,102,o),
(438,102,cs),
(412,102,o),
(375,107,o),
(329,115,c),
(323,101,l),
(359,76,o),
(384,46,o),
(395,21,cs),
(420,-31,o),
(421,-50,o),
(471,-50,cs),
(532,-50,o),
(581,26,o),
(581,83,cs),
(581,129,o),
(568,277,o),
(568,395,cs),
(568,418,o),
(568,445,o),
(568,472,c),
(627,477,o),
(680,480,o),
(717,480,cs),
(784,480,o),
(820,471,o),
(863,471,cs),
(893,471,o),
(911,486,o),
(911,516,cs),
(911,574,o),
(829,604,o),
(780,604,cs),
(752,604,o),
(747,590,o),
(572,565,c),
(574,592,o),
(576,617,o),
(581,637,cs),
(586,664,o),
(603,675,o),
(603,701,cs),
(603,737,o),
(522,778,o),
(466,778,cs),
(427,778,o),
(389,759,o),
(365,743,c)
);
},
{
closed = 1;
nodes = (
(654,361,l),
(719,299,o),
(750,240,o),
(784,157,cs),
(798,122,o),
(816,82,o),
(863,82,cs),
(906,82,o),
(932,115,o),
(931,160,cs),
(926,273,o),
(796,353,o),
(662,374,c)
);
}
);
width = 1000;
}
);
unicode = 12507;
}
{
category = Letter;
color = 10;
glyphname = "a-1-kana";
layers = (
{
backgroundImage = {
imagePath = "_sketch/u1B002.png";
locked = 1;
pos = (0,-120);
};
layerId = m01;
shapes = (
{
closed = 1;
nodes = (
(175,634,l),
(198,573,o),
(246,549,o),
(296,549,c),
(392,549,o),
(577,656,o),
(698,656,c),
(774,656,o),
(806,622,o),
(806,602,c),
(806,581,o),
(779,557,o),
(700,557,c),
(713,531,l),
(785,531,o),
(836,557,o),
(836,602,c),
(836,648,o),
(782,682,o),
(698,682,c),
(586,682,o),
(390,575,o),
(296,575,c),
(263,575,o),
(223,588,o),
(199,654,c)
);
},
{
closed = 1;
nodes = (
(428,793,l),
(424,750,o),
(413,701,o),
(405,648,c),
(390,558,o),
(379,477,o),
(379,430,c),
(379,416,l),
(379,296,o),
(396,231,o),
(425,171,c),
(430,166,l),
(449,126,o),
(504,89,o),
(551,66,c),
(573,78,l),
(590,203,o),
(611,333,o),
(632,460,c),
(612,464,l),
(588,337,o),
(566,207,o),
(546,82,c),
(564,92,l),
(519,114,o),
(466,151,o),
(451,183,c),
(446,193,l),
(423,240,o),
(409,298,o),
(409,424,c),
(409,437,l),
(409,473,o),
(420,554,o),
(435,644,c),
(443,695,o),
(453,744,o),
(466,790,c)
);
},
{
closed = 1;
nodes = (
(611,470,l),
(569,362,o),
(476,236,o),
(436,194,c),
(427,185,l),
(343,93,o),
(277,68,o),
(234,68,c),
(208,68,o),
(169,78,o),
(169,131,c),
(169,249,o),
(374,458,o),
(595,458,c),
(753,458,o),
(848,370,o),
(848,256,c),
(848,90,o),
(720,22,o),
(546,-15,c),
(570,-41,l),
(732,-6,o),
(878,74,o),
(878,256,c),
(878,388,o),
(763,484,o),
(595,484,c),
(376,484,o),
(139,281,o),
(139,131,c),
(139,74,o),
(177,39,o),
(231,39,c),
(288,39,o),
(361,71,o),
(442,159,c),
(452,170,l),
(499,221,o),
(591,348,o),
(633,462,c)
);
}
);
width = 1000;
},
{
layerId = "22BF860B-E605-42C1-AA52-30D9AB94E7CE";
shapes = (
{
closed = 1;
nodes = (
(147,639,l),
(178,558,o),
(226,529,o),
(296,529,c),
(409,529,o),
(589,636,o),
(706,636,c),
(758,636,o),
(781,625,o),
(781,605,c),
(781,590,o),
(774,578,o),
(689,578,c),
(713,511,l),
(790,511,o),
(861,537,o),
(861,602,c),
(861,670,o),
(787,703,o),
(722,703,c),
(585,703,o),
(355,596,o),
(311,596,c),
(254,596,o),
(237,619,o),
(213,683,c)
);
},
{
closed = 1;
nodes = (
(401,799,l),
(399,755,o),
(389,705,o),
(381,652,c),
(366,562,o),
(354,482,o),
(354,430,c),
(354,402,l),
(354,294,o),
(374,224,o),
(404,161,c),
(415,150,l),
(435,107,o),
(488,63,o),
(539,40,c),
(597,74,l),
(613,199,o),
(632,329,o),
(649,437,c),
(603,465,l),
(579,339,o),
(556,208,o),
(536,83,c),
(573,112,l),
(531,132,o),
(483,171,o),
(476,186,c),
(472,193,l),
(438,266,o),
(434,293,o),
(434,437,c),
(434,430,l),
(434,468,o),
(444,550,o),
(459,640,c),
(467,691,o),
(477,739,o),
(497,788,c)
);
},
{
closed = 1;
nodes = (
(586,480,l),
(549,376,o),
(458,248,o),
(428,213,c),
(414,196,l),
(328,102,o),
(273,85,o),
(237,85,c),
(210,86,o),
(194,93,o),
(194,136,c),
(194,271,o),
(383,438,o),
(595,438,c),
(752,438,o),
(823,347,o),
(823,247,c),
(823,103,o),
(710,46,o),
(523,6,c),
(574,-62,l),
(760,-22,o),
(903,61,o),
(903,243,c),
(903,415,o),
(771,505,o),
(599,505,c),
(344,505,o),
(114,307,o),
(114,131,c),
(114,56,o),
(154,2,o),
(224,2,c),
(302,2,o),
(379,49,o),
(473,152,c),
(472,153,l),
(521,207,o),
(613,332,o),
(658,452,c)
);
}
);
width = 1000;
},
{
background = {
shapes = (
{
closed = 1;
nodes = (
(440,382,o),
(441,400,o),
(443,418,c),
(494,441,o),
(538,452,o),
(580,454,c),
(560,399,o),
(508,324,o),
(455,267,c),
(446,294,o),
(440,326,o),
(440,365,cs)
);
},
{
closed = 1;
nodes = (
(204,124,o),
(198,131,o),
(198,146,cs),
(198,206,o),
(253,299,o),
(343,363,c),
(342,350,o),
(342,337,o),
(342,325,cs),
(342,275,o),
(347,225,o),
(357,182,c),
(308,149,o),
(255,124,o),
(218,124,cs)
);
},
{
closed = 1;
nodes = (
(553,549,l),
(576,532,o),
(587,514,o),
(588,493,c),
(541,491,o),
(494,483,o),
(449,469,c),
(453,498,o),
(459,528,o),
(465,558,c),
(568,576,o),
(659,600,o),
(709,619,cs),
(738,630,o),
(755,647,o),
(755,675,cs),
(755,711,o),
(722,729,o),
(659,729,cs),
(649,729,o),
(588,691,o),
(490,664,c),
(492,673,ls),
(501,711,o),
(531,728,o),
(531,757,cs),
(531,787,o),
(450,820,o),
(391,820,cs),
(367,820,o),
(332,802,o),
(310,787,c),
(311,777,l),
(331,772,o),
(353,766,o),
(367,760,cs),
(384,753,o),
(388,747,o),
(388,728,cs),
(388,707,o),
(385,677,o),
(380,643,c),
(352,639,o),
(322,637,o),
(292,637,cs),
(233,637,o),
(191,656,o),
(142,684,c),
(133,677,l),
(146,596,o),
(179,538,o),
(270,538,cs),
(300,538,o),
(333,540,o),
(365,543,c),
(359,506,o),
(353,467,o),
(349,429,c),
(203,356,o),
(92,231,o),
(92,101,cs),
(92,37,o),
(128,4,o),
(181,4,cs),
(246,4,o),
(324,35,o),
(396,93,c),
(411,73,o),
(431,61,o),
(454,61,cs),
(488,61,o),
(511,77,o),
(511,114,cs),
(511,140,o),
(502,162,o),
(491,186,c),
(562,266,o),
(626,364,o),
(655,447,c),
(737,426,o),
(787,360,o),
(787,271,cs),
(787,146,o),
(693,14,o),
(422,-44,c),
(425,-62,l),
(721,-63,o),
(920,21,o),
(920,237,cs),
(920,362,o),
(820,471,o),
(664,491,c),
(664,503,o),
(660,514,o),
(651,523,cs),
(631,543,o),
(601,554,o),
(561,559,c)
);
}
);
};
layerId = "027B829E-3619-44FF-8C68-78647B0AD671";
shapes = (
{
closed = 1;
nodes = (
(97,633,l),
(128,546,o),
(190,508,o),
(261,508,c),
(410,508,o),
(592,619,o),
(703,619,c),
(728,619,o),
(731,616,o),
(731,609,c),
(731,598,o),
(713,593,o),
(650,593,c),
(694,499,l),
(776,499,o),
(875,519,o),
(875,609,c),
(875,704,o),
(777,737,o),
(699,737,c),
(577,737,o),
(374,637,o),
(314,637,c),
(272,637,o),
(232,665,o),
(214,714,c)
);
},
{
closed = 1;
nodes = (
(366,828,l),
(364,773,o),
(353,721,o),
(345,665,c),
(329,572,o),
(308,491,o),
(308,432,c),
(307,409,l),
(307,276,o),
(328,216,o),
(367,135,c),
(374,141,l),
(409,68,o),
(461,10,o),
(517,-17,c),
(631,80,l),
(645,189,o),
(664,323,o),
(684,450,c),
(634,463,l),
(601,334,o),
(569,201,o),
(537,61,c),
(579,102,l),
(532,125,o),
(495,182,o),
(489,196,c),
(482,206,l),
(445,284,o),
(443,325,o),
(443,432,c),
(451,432,l),
(451,468,o),
(475,550,o),
(490,642,c),
(498,694,o),
(508,743,o),
(537,815,c)
);
},
{
closed = 1;
nodes = (
(567,479,l),
(533,379,o),
(446,250,o),
(406,205,c),
(399,212,l),
(334,144,o),
(274,118,o),
(240,118,c),
(218,118,o),
(208,127,o),
(208,151,c),
(208,241,o),
(386,406,o),
(546,406,c),
(695,406,o),
(781,365,o),
(781,251,c),
(781,126,o),
(690,84,o),
(504,46,c),
(599,-78,l),
(797,-38,o),
(931,45,o),
(931,236,c),
(931,442,o),
(772,526,o),
(597,526,c),
(327,526,o),
(73,337,o),
(73,121,c),
(73,27,o),
(128,-23,o),
(212,-23,c),
(310,-23,o),
(392,10,o),
(496,120,c),
(492,123,l),
(536,190,o),
(610,325,o),
(635,453,c)
);
}
);
width = 1000;
}
);
production = u1B002;
script = hentaigana;
unicode = 110594;
}
{
category = Letter;
color = 10;
glyphname = "a-2-kana";
layers = (
{
backgroundImage = {
imagePath = "_sketch/u1B003.png";
locked = 1;
pos = (0,-120);
};
layerId = m01;
shapes = (
{
closed = 1;
nodes = (
(205,649,l),
(246,639,o),
(333,632,o),
(404,632,c),
(494,632,o),
(627,648,o),
(741,677,c),
(739,704,l),
(623,673,o),
(491,658,o),
(404,658,c),
(335,658,o),
(247,666,o),
(208,678,c)
);
},
{
closed = 1;
nodes = (
(475,791,l),
(477,717,o),
(477,644,o),
(477,570,c),
(477,492,o),
(477,413,o),
(477,335,c),
(500,346,l),
(450,381,o),
(409,400,o),
(359,424,c),
(348,402,l),
(398,377,o),
(437,358,o),
(484,324,c),
(507,335,l),
(507,413,o),
(507,492,o),
(507,570,c),
(507,644,o),
(507,717,o),
(508,791,c)
);
},
{
closed = 1;
nodes = (
(79,408,l),
(96,382,o),
(138,347,o),
(200,347,c),
(266,347,o),
(360,401,o),
(463,450,c),
(562,498,o),
(666,544,o),
(741,544,c),
(811,544,o),
(852,512,o),
(852,473,c),
(852,424,o),
(807,384,o),
(646,347,c),
(461,305,o),
(390,263,o),
(390,211,c),
(390,157,o),
(475,139,o),
(639,140,c),
(628,160,l),
(415,147,o),
(330,82,o),
(330,42,c),
(330,-11,o),
(393,-24,o),
(505,-24,c),
(566,-24,o),
(633,-19,o),
(700,-12,c),
(701,17,l),
(631,7,o),
(565,2,o),
(505,2,c),
(415,2,o),
(360,11,o),
(360,42,c),
(360,62,o),
(420,123,o),
(639,136,c),
(638,163,l),
(478,161,o),
(420,186,o),
(420,211,c),
(420,245,o),
(468,280,o),
(652,322,c),
(833,363,o),
(882,407,o),
(882,475,c),
(882,531,o),
(830,570,o),
(741,570,c),
(656,570,o),
(550,522,o),
(451,475,c),
(348,425,o),
(249,375,o),
(204,375,c),
(147,375,o),
(116,403,o),
(96,435,c)
);
}
);
width = 1000;
},
{
background = {
shapes = (
{
closed = 1;
nodes = (
(285,367,l),
(266,317,o),
(236,276,o),
(188,236,cs),
(128,187,o),
(99,180,o),
(99,125,cs),
(99,83,o),
(127,56,o),
(166,56,cs),
(272,56,o),
(312,240,o),
(301,366,c)
);
},
{
closed = 1;
nodes = (
(366,729,l),
(402,717,o),
(430,708,o),
(441,687,cs),
(447,676,o),
(451,616,o),
(453,550,c),
(368,541,o),
(230,528,o),
(184,528,cs),
(151,528,o),
(137,539,o),
(109,572,c),
(97,568,l),
(94,549,o),
(92,510,o),
(100,489,cs),
(118,443,o),
(166,398,o),
(203,398,cs),
(233,398,o),
(258,422,o),
(294,431,cs),
(338,443,o),
(397,454,o),
(456,461,c),
(457,395,ls),
(458,310,o),
(460,173,o),
(455,118,cs),
(454,105,o),
(449,102,o),
(438,102,cs),
(412,102,o),
(375,107,o),
(329,115,c),
(323,101,l),
(359,76,o),
(384,46,o),
(395,21,cs),
(420,-31,o),
(421,-50,o),
(471,-50,cs),
(532,-50,o),
(581,26,o),
(581,83,cs),
(581,129,o),
(568,277,o),
(568,395,cs),
(568,418,o),
(568,445,o),
(568,472,c),
(627,477,o),
(680,480,o),
(717,480,cs),
(784,480,o),
(820,471,o),
(863,471,cs),
(893,471,o),
(911,486,o),
(911,516,cs),
(911,574,o),
(829,604,o),
(780,604,cs),
(752,604,o),
(747,590,o),
(572,565,c),
(574,592,o),
(576,617,o),
(581,637,cs),
(586,664,o),
(603,675,o),
(603,701,cs),
(603,737,o),
(522,778,o),
(466,778,cs),
(427,778,o),
(389,759,o),
(365,743,c)
);
},
{
closed = 1;
nodes = (
(654,361,l),
(719,299,o),
(750,240,o),
(784,157,cs),
(798,122,o),
(816,82,o),
(863,82,cs),
(906,82,o),
(932,115,o),
(931,160,cs),
(926,273,o),
(796,353,o),
(662,374,c)
);
}
);
};
layerId = "027B829E-3619-44FF-8C68-78647B0AD671";
shapes = (
{
closed = 1;
nodes = (
(204,605,l),
(238,599,o),
(324,591,o),
(401,591,c),
(500,591,o),
(638,608,o),
(761,638,c),
(755,768,l),
(619,730,o),
(486,714,o),
(401,714,c),
(333,714,o),
(240,725,o),
(202,736,c)
);
},
{
closed = 1;
nodes = (
(412,833,l),
(417,727,o),
(417,652,o),
(417,576,c),
(417,495,o),
(417,414,o),
(417,333,c),
(503,349,l),
(448,381,o),
(404,396,o),
(350,416,c),
(321,355,l),
(372,329,o),
(408,312,o),
(452,279,c),
(567,333,l),
(567,414,o),
(567,495,o),
(567,576,c),
(567,651,o),
(567,727,o),
(571,833,c)
);
},
{
closed = 1;
nodes = (
(11,393,l),
(45,340,o),
(108,290,o),
(188,290,c),
(255,290,o),
(359,351,o),
(482,410,c),
(583,459,o),
(690,500,o),
(748,500,c),
(803,500,o),
(803,468,o),
(803,468,c),
(803,444,o),
(794,430,o),
(639,395,c),
(390,338,o),
(327,281,o),
(327,216,c),
(327,120,o),
(471,121,o),
(623,122,c),
(634,179,l),
(407,165,o),
(266,104,o),
(266,32,c),
(266,-62,o),
(367,-84,o),
(506,-84,c),
(571,-84,o),
(641,-79,o),
(732,-70,c),
(736,73,l),
(629,59,o),
(563,54,o),
(506,54,c),
(450,54,o),
(416,60,o),
(416,69,c),
(416,79,o),
(432,91,o),
(645,104,c),
(642,204,l),
(515,203,o),
(477,209,o),
(477,229,c),
(477,249,o),
(499,266,o),
(660,302,c),
(927,363,o),
(953,394,o),
(953,469,c),
(953,590,o),
(847,623,o),
(748,623,c),
(642,623,o),
(534,566,o),
(431,517,c),
(323,465,o),
(250,426,o),
(210,426,c),
(170,426,o),
(149,437,o),
(101,511,c)
);
}
);
width = 1000;
},
{
layerId = "22BF860B-E605-42C1-AA52-30D9AB94E7CE";
shapes = (
{
closed = 1;
nodes = (
(201,630,l),
(246,621,o),
(331,614,o),
(404,614,c),
(497,614,o),
(630,629,o),
(746,658,c),
(742,725,l),
(620,692,o),
(489,677,o),
(404,677,c),
(336,677,o),
(247,685,o),
(203,697,c)
);
},
{
closed = 1;
nodes = (
(452,811,l),
(455,717,o),
(455,644,o),
(455,570,c),
(455,492,o),
(455,413,o),
(455,365,c),
(503,351,l),
(453,387,o),
(412,406,o),
(362,430,c),
(345,396,l),
(393,367,o),
(429,346,o),
(472,308,c),
(528,335,l),
(528,413,o),
(528,492,o),
(528,570,c),
(528,644,o),
(528,717,o),
(532,811,c)
);
},
{
closed = 1;
nodes = (
(64,392,l),
(94,344,o),
(130,325,o),
(184,325,c),
(281,325,o),
(366,389,o),
(469,438,c),
(567,485,o),
(673,525,o),
(741,525,c),
(804,525,o),
(828,501,o),
(828,467,c),
(828,437,o),
(801,402,o),
(642,366,c),
(455,324,o),
(366,291,o),
(366,211,c),
(366,139,o),
(474,134,o),
(618,135,c),
(617,167,l),
(413,155,o),
(307,101,o),
(307,42,c),
(307,-41,o),
(403,-49,o),
(505,-49,c),
(568,-49,o),
(635,-44,o),
(724,-35,c),
(722,40,l),
(629,25,o),
(564,20,o),
(505,20,c),
(413,20,o),
(384,27,o),
(384,51,c),
(384,71,o),
(416,104,o),
(670,120,c),
(668,181,l),
(481,180,o),
(443,191,o),
(443,211,c),
(443,239,o),
(474,261,o),
(656,303,c),
(842,345,o),
(905,383,o),
(905,460,c),
(905,552,o),
(827,588,o),
(741,588,c),
(649,588,o),
(542,541,o),
(443,493,c),
(339,443,o),
(237,393,o),
(204,393,c),
(164,393,o),
(137,410,o),
(113,448,c)
);
}
);
width = 1000;
}
);
production = u1B003;
script = hentaigana;
unicode = 110595;
}
{
category = Letter;
color = 10;
glyphname = "a-3-kana";
layers = (
{
backgroundImage = {
imagePath = "_sketch/u1B004.png";
locked = 1;
pos = (0,-120);
};
layerId = m01;
shapes = (
{
closed = 1;
nodes = (
(487,742,l),
(596,675,o),
(727,652,o),
(842,652,c),
(846,678,l),
(731,678,o),
(604,702,o),
(498,767,c)
);
},
{
closed = 1;
nodes = (
(630,534,l),
(623,315,o),
(532,134,o),
(470,134,c),
(431,134,o),
(394,182,o),
(394,253,c),
(394,421,o),
(529,521,o),
(656,521,c),
(783,521,o),
(871,427,o),
(871,291,c),
(871,139,o),
(738,32,o),
(561,-4,c),
(578,-27,l),
(750,8,o),
(901,117,o),
(901,291,c),
(901,440,o),
(796,547,o),
(656,547,c),
(515,547,o),
(364,437,o),
(364,253,c),
(364,171,o),
(408,104,o),
(470,104,c),
(573,104,o),
(654,350,o),
(660,532,c)
);
},
{
closed = 1;
nodes = (
(90,639,l),
(181,657,o),
(278,684,o),
(360,714,c),
(345,733,l),
(226,569,o),
(177,336,o),
(177,-15,c),
(207,-15,l),
(207,333,o),
(253,561,o),
(367,717,c),
(351,738,l),
(271,709,o),
(175,682,o),
(85,668,c)
);
}
);
width = 1000;
},
{
layerId = "027B829E-3619-44FF-8C68-78647B0AD671";
shapes = (
{
closed = 1;
nodes = (
(444,707,l),
(578,632,o),
(734,612,o),
(870,612,c),
(887,735,l),
(750,735,o),
(614,763,o),
(491,832,c)
);
},
{
closed = 1;
nodes = (
(581,531,l),
(574,337,o),
(508,198,o),
(476,198,c),
(461,198,o),
(450,218,o),
(450,267,c),
(450,390,o),
(538,468,o),
(661,468,c),
(769,468,o),
(822,396,o),
(822,292,c),
(822,175,o),
(723,85,o),
(522,47,c),
(578,-71,l),
(804,-28,o),
(972,72,o),
(972,292,c),
(972,467,o),
(828,591,o),
(661,591,c),
(492,591,o),
(300,470,o),
(300,254,c),
(300,150,o),
(362,46,o),
(469,46,c),
(617,46,o),
(709,261,o),
(718,526,c)
);
},
{
closed = 1;
nodes = (
(58,602,l),
(185,632,o),
(287,661,o),
(375,695,c),
(294,762,l),
(179,597,o),
(108,339,o),
(108,-46,c),
(258,-46,l),
(258,326,o),
(302,560,o),
(409,715,c),
(331,806,l),
(252,776,o),
(155,748,o),
(38,737,c)
);
}
);
width = 1000;
},
{
layerId = "22BF860B-E605-42C1-AA52-30D9AB94E7CE";
shapes = (
{
closed = 1;
nodes = (
(468,724,l),
(587,655,o),
(728,633,o),
(851,633,c),
(860,696,l),
(736,696,o),
(606,722,o),
(495,787,c)
);
},
{
closed = 1;
nodes = (
(607,529,l),
(599,310,o),
(526,156,o),
(474,156,c),
(444,156,o),
(417,192,o),
(417,253,c),
(417,404,o),
(538,497,o),
(656,497,c),
(774,497,o),
(847,413,o),
(847,291,c),
(847,151,o),
(728,57,o),
(543,20,c),
(570,-43,l),
(759,-5,o),
(924,106,o),
(924,291,c),
(924,448,o),
(805,560,o),
(656,560,c),
(506,560,o),
(340,447,o),
(340,253,c),
(340,163,o),
(389,80,o),
(478,80,c),
(601,80,o),
(675,272,o),
(683,526,c)
);
},
{
closed = 1;
nodes = (
(98,634,l),
(186,658,o),
(283,686,o),
(366,718,c),
(330,762,l),
(208,585,o),
(154,337,o),
(154,-34,c),
(231,-34,l),
(231,330,o),
(275,565,o),
(385,724,c),
(344,775,l),
(265,745,o),
(170,717,o),
(81,705,c)
);
}
);
width = 1000;
}
);
production = u1B004;
script = hentaigana;
unicode = 110596;
}
{
category = Letter;
color = 10;
glyphname = "a-Wo-kana";
layers = (
{
backgroundImage = {
imagePath = "_sketch/u1B005.png";
locked = 1;
pos = (0,-120);
};
layerId = m01;
shapes = (
{
closed = 1;
nodes = (
(333,770,l),
(434,722,o),
(528,699,o),
(635,693,c),
(637,719,l),
(533,725,o),
(443,748,o),
(345,795,c)
);
},
{
closed = 1;
nodes = (
(113,487,l),
(301,510,o),
(541,574,o),
(714,630,c),
(692,632,l),
(551,585,o),
(415,527,o),
(415,443,c),
(415,389,o),
(467,356,o),
(649,366,c),
(637,380,l),
(431,350,o),
(210,213,o),
(93,-1,c),
(118,-15,l),
(230,191,o),
(440,331,o),
(658,363,c),
(656,389,l),
(468,379,o),
(445,415,o),
(445,448,c),
(445,505,o),
(547,570,o),
(715,626,c),
(707,651,l),
(535,596,o),
(295,536,o),
(108,514,c)
);
},
{
closed = 1;
nodes = (
(206,119,l),
(262,156,o),
(282,161,o),
(321,161,c),
(399,161,o),
(442,91,o),
(470,-5,c),
(497,-6,l),
(560,148,o),
(633,207,o),
(705,207,c),
(755,207,o),
(836,182,o),
(870,30,c),
(884,46,l),
(807,45,o),
(749,35,o),
(677,18,c),
(683,-8,l),
(755,9,o),
(809,19,o),
(884,20,c),
(899,36,l),
(863,197,o),
(774,233,o),
(705,233,c),
(619,233,o),
(538,163,o),
(473,4,c),
(498,4,l),
(466,101,o),
(420,187,o),
(321,187,c),
(294,187,o),
(250,180,o),
(200,128,c)
);
}
);
width = 1000;
},
{
layerId = "027B829E-3619-44FF-8C68-78647B0AD671";
shapes = (
{
closed = 1;
nodes = (
(316,731,l),
(415,684,o),
(521,660,o),
(637,654,c),
(660,777,l),
(542,783,o),
(458,808,o),
(362,853,c)
);
},
{
closed = 1;
nodes = (
(119,443,l),
(306,466,o),
(550,549,o),
(730,607,c),
(711,665,l),
(543,609,o),
(294,496,o),
(294,410,c),
(294,333,o),
(462,303,o),
(687,315,c),
(648,411,l),
(414,377,o),
(161,251,o),
(31,14,c),
(155,-54,l),
(262,142,o),
(462,284,o),
(694,318,c),
(681,439,l),
(483,428,o),
(459,439,o),
(459,456,c),
(459,492,o),
(544,515,o),
(758,587,c),
(724,716,l),
(523,651,o),
(273,606,o),
(93,584,c)
);
},
{
closed = 1;
nodes = (
(230,66,l),
(254,86,o),
(274,106,o),
(310,106,c),
(359,106,o),
(398,48,o),
(415,-37,c),
(551,-36,l),
(610,110,o),
(663,154,o),
(711,154,c),
(758,154,o),
(793,147,o),
(824,6,c),
(895,84,l),
(812,83,o),
(750,60,o),
(674,42,c),
(697,-55,l),
(770,-38,o),
(823,-40,o),
(897,-39,c),
(967,38,l),
(926,221,o),
(797,277,o),
(711,277,c),
(597,277,o),
(488,189,o),
(417,16,c),
(552,10,l),
(505,108,o),
(442,225,o),
(316,225,c),
(281,225,o),
(222,217,o),
(171,147,c)
);
}
);
width = 1000;
},
{
layerId = "22BF860B-E605-42C1-AA52-30D9AB94E7CE";
shapes = (
{
closed = 1;
nodes = (
(324,750,l),
(427,702,o),
(525,678,o),
(634,672,c),
(648,739,l),
(536,745,o),
(450,769,o),
(354,814,c)
);
},
{
closed = 1;
nodes = (
(118,464,l),
(306,487,o),
(544,561,o),
(682,606,c),
(708,649,l),
(542,594,o),
(390,521,o),
(390,428,c),
(390,357,o),
(466,341,o),
(650,352,c),
(646,394,l),
(425,362,o),
(193,231,o),
(72,10,c),
(138,-26,l),
(247,173,o),
(450,312,o),
(669,344,c),
(667,410,l),
(469,399,o),
(470,422,o),
(470,448,c),
(470,490,o),
(553,549,o),
(722,606,c),
(700,672,l),
(530,617,o),
(289,559,o),
(109,537,c)
);
},
{
closed = 1;
nodes = (
(218,103,l),
(265,149,o),
(299,154,o),
(321,154,c),
(368,154,o),
(435,88,o),
(447,-12,c),
(519,-15,l),
(581,135,o),
(644,186,o),
(705,186,c),
(759,186,o),
(814,170,o),
(846,24,c),
(884,66,l),
(805,65,o),
(747,48,o),
(665,29,c),
(684,-25,l),
(758,-7,o),
(811,-2,o),
(885,-1,c),
(922,41,l),
(885,209,o),
(780,253,o),
(721,253,c),
(608,253,o),
(531,167,o),
(466,7,c),
(521,11,l),
(484,109,o),
(432,207,o),
(321,207,c),
(290,207,o),
(240,201,o),
(195,134,c)
);
}
);
width = 1000;
}
);
production = u1B005;
script = hentaigana;
unicode = 110597;
}
{
category = Letter;
color = 10;
glyphname = "i-1-kana";
layers = (
{
layerId = m01;
shapes = (
{
closed = 1;
nodes = (
(208,739,l),
(200,693,o),
(189,641,o),
(180,585,c),
(166,492,o),
(159,389,o),
(159,293,c),
(159,189,o),
(167,94,o),
(185,31,c),
(214,35,l),
(212,213,o),
(266,295,o),
(309,295,c),
(355,293,o),
(392,220,o),
(414,83,c),
(444,83,l),
(500,517,o),
(614,693,o),
(700,693,c),
(739,693,o),
(777,649,o),
(777,587,c),
(777,477,o),
(698,284,o),
(698,199,c),
(698,117,o),
(749,92,o),
(902,80,c),
(900,104,l),
(819,79,o),
(757,47,o),
(697,12,c),
(714,-10,l),
(771,23,o),
(828,56,o),
(907,81,c),
(904,106,l),
(773,117,o),
(728,133,o),
(728,199,c),
(728,288,o),
(807,475,o),
(807,587,c),
(807,663,o),
(759,719,o),
(699,719,c),
(583,719,o),
(471,514,o),
(423,95,c),
(444,88,l),
(420,230,o),
(375,323,o),
(309,321,c),
(238,321,o),
(186,218,o),
(194,45,c),
(209,41,l),
(194,96,o),
(189,191,o),
(189,293,c),
(189,387,o),
(196,489,o),
(210,581,c),
(219,636,o),
(229,687,o),
(242,731,c)
);
}
);
width = 1000;
},
{
layerId = "027B829E-3619-44FF-8C68-78647B0AD671";
shapes = (
{
closed = 1;
nodes = (
(138,765,l),
(134,714,o),
(123,659,o),
(113,601,c),
(98,501,o),
(94,392,o),
(94,290,c),
(94,181,o),
(99,81,o),
(120,5,c),
(266,16,l),
(252,198,o),
(274,244,o),
(303,244,c),
(334,244,o),
(343,200,o),
(354,64,c),
(500,66,l),
(535,435,o),
(631,655,o),
(691,655,c),
(715,655,o),
(726,632,o),
(726,593,c),
(726,507,o),
(644,288,o),
(644,194,c),
(644,78,o),
(773,60,o),
(904,50,c),
(894,120,l),
(816,97,o),
(746,69,o),
(632,3,c),
(736,-56,l),
(798,-20,o),
(859,0,o),
(934,24,c),
(920,147,l),
(816,155,o),
(794,157,o),
(794,194,c),
(794,296,o),
(876,493,o),
(876,577,c),
(876,697,o),
(793,778,o),
(700,778,c),
(522,778,o),
(414,502,o),
(386,82,c),
(475,84,l),
(463,240,o),
(424,367,o),
(303,367,c),
(198,367,o),
(133,194,o),
(174,22,c),
(260,44,l),
(246,93,o),
(235,188,o),
(235,290,c),
(235,385,o),
(245,487,o),
(259,578,c),
(268,633,o),
(278,684,o),
(303,745,c)
);
}
);
width = 1000;
},
{
layerId = "22BF860B-E605-42C1-AA52-30D9AB94E7CE";
shapes = (
{
closed = 1;
nodes = (
(181,746,l),
(176,698,o),
(165,646,o),
(156,589,c),
(142,494,o),
(134,390,o),
(134,293,c),
(134,188,o),
(143,92,o),
(162,24,c),
(239,35,l),
(233,209,o),
(280,274,o),
(309,274,c),
(338,274,o),
(374,214,o),
(388,78,c),
(468,80,l),
(519,522,o),
(653,673,o),
(694,673,c),
(735,673,o),
(752,646.993,o),
(752,587,c),
(752,502,o),
(673,302,o),
(673,188,c),
(673,94,o),
(729,73,o),
(900,60,c),
(877,110,l),
(813,91,o),
(748,62,o),
(670,16,c),
(720,-27,l),
(780,8,o),
(837,37,o),
(913,60,c),
(906,127,l),
(777,137,o),
(753,146,o),
(753,199,c),
(753,273,o),
(832,488,o),
(832,587,c),
(832,673,o),
(787,740,o),
(709,740,c),
(578,740,o),
(448,526,o),
(410,91,c),
(438,87,l),
(439,236,o),
(396,341,o),
(309,341,c),
(216,341,o),
(166,215,o),
(186,41,c),
(230,44,l),
(215,98,o),
(208,192,o),
(208,293,c),
(208,386,o),
(220,487,o),
(234,577,c),
(243,631,o),
(253,682,o),
(269,724,c)
);
}
);
width = 1000;
}
);
production = u1B006;
script = hentaigana;
unicode = 110598;
}
{
category = Letter;
color = 10;
glyphname = "i-2-kana";
layers = (
{
backgroundImage = {
imagePath = "_sketch/u1B007.png";
locked = 1;
pos = (0,-120);
};
layerId = m01;
shapes = (
{
ref = _ninben_001;
},
{
closed = 1;
nodes = (
(482,665,l),
(603,700,o),
(737,726,o),
(883,728,c),
(883,754,l),
(734,752,o),
(597,726,o),
(474,690,c)
);
},
{
closed = 1;
nodes = (
(416,551,l),
(524,488,o),
(645,510,o),
(825,545,c),
(817,553,l),
(608,520,o),
(489,427,o),
(489,357,c),
(489,302,o),
(534,279,o),
(627,279,c),
(747,279,o),
(841,299,o),
(939,317,c),
(939,344,l),
(836,325,o),
(744,305,o),
(627,305,c),
(546,305,o),
(519,327,o),
(519,357,c),
(519,419,o),
(621,506,o),
(848,541,c),
(844,567,l),
(642,528,o),
(528,517,o),
(424,578,c)
);
},
{
closed = 1;
nodes = (
(736,461,l),
(737,396,o),
(737,332,o),
(737,268,c),
(737,132,o),
(669,39,o),
(498,-27,c),
(518,-52,l),
(687,13,o),
(767,115,o),
(767,268,c),
(767,332,o),
(767,396,o),
(769,461,c)
);
},
{
closed = 1;
nodes = (
(350,794,l),
(340,757,o),
(324,721,o),
(305,680,c),
(254,573,o),
(192,473,o),
(74,360,c),
(91,339,l),
(154,385,o),
(180,393,o),
(196,393,c),
(225,393,o),
(242,377,o),
(242,319,c),
(242,208,o),
(221,30,o),
(216,-37,c),
(249,-40,l),
(261,57,o),
(308,175,o),
(334,251,c),
(312,263,l),
(285,185,o),
(236,66,o),
(225,-27,c),
(242,-39,l),
(247,27,o),
(272,204,o),
(272,319,c),
(272,383,o),
(251,419,o),
(198,419,c),
(162,419,o),
(114,385,o),
(96,366,c),
(99,353,l),
(210,458,o),
(279,558,o),
(331,668,c),
(350,709,o),
(366,746,o),
(381,783,c)
);
}
);
width = 1000;
},
{
layerId = "027B829E-3619-44FF-8C68-78647B0AD671";
shapes = (
{
ref = _ninben_001;
},
{
closed = 1;
nodes = (
(489,625,l),
(617,660,o),
(757,688,o),
(910,690,c),
(909,813,l),
(743,811,o),
(591,786,o),
(455,748,c)
);
},
{
closed = 1;
nodes = (
(388,511,l),
(516,436,o),
(656,473,o),
(842,509,c),
(841,563,l),
(611,527,o),
(444,462,o),
(444,348,c),
(444,263,o),
(536,228,o),
(631,228,c),
(759,228,o),
(861,248,o),
(960,266,c),
(953,393,l),
(836,371,o),
(746,351,o),
(631,351,c),
(589,351,o),
(564,356,o),
(564,376,c),
(564,413,o),
(627,460,o),
(912,505,c),
(895,631,l),
(638,582,o),
(538,577,o),
(437,635,c)
);
},
{
closed = 1;
nodes = (
(685,463,l),
(685,400,o),
(685,337,o),
(685,274,c),
(685,157,o),
(647,95,o),
(456,25,c),
(572,-82,l),
(761,-13,o),
(835,103,o),
(835,274,c),
(835,337,o),
(835,400,o),
(835,463,c)
);
},
{
closed = 1;
nodes = (
(288,826,l),
(282,790,o),
(267,755,o),
(248,713,c),
(198,607,o),
(141,511,o),
(25,399,c),
(115,287,l),
(143,319,o),
(163,345,o),
(176,345,c),
(182,345,o),
(191,343,o),
(191,323,c),
(191,207,o),
(165,13,o),
(160,-45,c),
(298,-70,l),
(310,27,o),
(346,150,o),
(379,246,c),
(332,296,l),
(290,174,o),
(257,46,o),
(251,-8,c),
(268,-32,l),
(271,13,o),
(315,194,o),
(315,317,c),
(315,430,o),
(274,454,o),
(232,454,c),
(189,454,o),
(85,380,o),
(78,339,c),
(106,316,l),
(231,436,o),
(322,535,o),
(377,652,c),
(397,696,o),
(414,736,o),
(435,775,c)
);
}
);
width = 1000;
},
{
layerId = "22BF860B-E605-42C1-AA52-30D9AB94E7CE";
shapes = (
{
alignment = -1;
ref = _ninben_001;
},
{
closed = 1;
nodes = (
(488,644,l),
(607,679,o),
(740,702,o),
(886,704,c),
(882,774,l),
(731,773,o),
(593,747,o),
(468,711,c)
);
},
{
closed = 1;
nodes = (
(415,526,l),
(520,465,o),
(649,481,o),
(853,521,c),
(845,561,l),
(607,524,o),
(464,435,o),
(464,357,c),
(464,288,o),
(539,259,o),
(627,259,c),
(749,259,o),
(845,278,o),
(943,297,c),
(940,366,l),
(832,345,o),
(741,326,o),
(627,326,c),
(577,326,o),
(544,347,o),
(544,369,c),
(544,396,o),
(621,484,o),
(852,521,c),
(840,588,l),
(639,549,o),
(532,541,o),
(441,594,c)
);
},
{
closed = 1;
nodes = (
(711,461,l),
(712,396,o),
(712,332,o),
(712,280,c),
(712,141,o),
(657,58,o),
(478,-12,c),
(539,-73,l),
(702,-10,o),
(792,107,o),
(792,268,c),
(792,332,o),
(792,396,o),
(794,461,c)
);
},
{
closed = 1;
nodes = (
(325,802,l),
(317,766,o),
(302,731,o),
(283,690,c),
(233,585,o),
(174,488,o),
(58,377,c),
(112,310,l),
(150,350,o),
(169,367,o),
(193,367,c),
(212,367,o),
(217,360,o),
(217,319,c),
(217,175,o),
(197,33,o),
(190,-59,c),
(282,-64,l),
(295,44,o),
(331,165,o),
(355,235,c),
(312,263,l),
(285,185,o),
(240,65,o),
(227,-37,c),
(254,-40,l),
(259,26,o),
(297,202,o),
(297,319,c),
(297,413,o),
(269,439,o),
(218,439,c),
(172,439,o),
(101,393,o),
(92,375,c),
(117,344,l),
(224,447,o),
(300,546,o),
(352,658,c),
(372,699,o),
(388,737,o),
(406,774,c)
);
}
);
width = 1000;
}
);
production = u1B007;
script = hentaigana;
unicode = 110599;
}
{
category = Letter;
color = 10;
glyphname = "i-3-kana";
layers = (
{
backgroundImage = {
imagePath = "_sketch/u1B008.png";
locked = 1;
pos = (0,-120);
};
layerId = m01;
shapes = (
{
closed = 1;
nodes = (
(350,793,l),
(449,733,o),
(545,707,o),
(659,696,c),
(661,722,l),
(550,732,o),
(459,759,o),
(364,817,c)
);
},
{
closed = 1;
nodes = (
(158,584,l),
(242,563,o),
(351,555,o),
(455,555,c),
(578,555,o),
(727,569,o),
(858,593,c),
(856,620,l),
(724,596,o),
(576,581,o),
(455,581,c),
(352,581,o),
(245,590,o),
(159,611,c)
);
},
{
closed = 1;
nodes = (
(353,476,l),
(413,435,o),
(522,398,o),
(612,379,c),
(617,405,l),
(530,423,o),
(422,463,o),
(369,499,c)
);
},
{
closed = 1;
nodes = (
(330,342,l),
(401,281,o),
(522,243,o),
(619,242,c),
(635,258,l),
(265,209,o),
(182,152,o),
(182,68,c),
(182,-7,o),
(278,-32,o),
(469,-32,c),
(607,-32,o),
(745,-19,o),
(852,5,c),
(853,33,l),
(743,7,o),
(605,-6,o),
(469,-6,c),
(280,-6,o),
(212,15,o),
(212,73,c),
(212,135,o),
(298,192,o),
(638,237,c),
(636,263,l),
(528,264,o),
(412,308,o),
(348,363,c)
);
}
);
width = 1000;
},
{
layerId = "027B829E-3619-44FF-8C68-78647B0AD671";
shapes = (
{
closed = 1;
nodes = (
(319,741,l),
(427,674,o),
(537,648,o),
(650,637,c),
(692,758,l),
(561,771,o),
(478,798,o),
(388,854,c)
);
},
{
closed = 1;
nodes = (
(136,542,l),
(230,519,o),
(344,512,o),
(453,512,c),
(584,512,o),
(740,526,o),
(877,551,c),
(877,685,l),
(725,657,o),
(574,635,o),
(453,635,c),
(350,635,o),
(243,646,o),
(144,671,c)
);
},
{
closed = 1;
nodes = (
(319,451,l),
(393,400,o),
(507,366,o),
(605,346,c),
(631,470,l),
(547,487,o),
(431,515,o),
(368,558,c)
);
},
{
closed = 1;
nodes = (
(290,296,l),
(379,228,o),
(517,224,o),
(640,223,c),
(637,283,l),
(255,237,o),
(113,193,o),
(113,79,c),
(113,-31,o),
(267,-60,o),
(468,-60,c),
(613,-60,o),
(758,-49,o),
(870,-26,c),
(862,112,l),
(745,88,o),
(605,75,o),
(468,75,c),
(277,75,o),
(263,100,o),
(263,108,c),
(263,129,o),
(305,148,o),
(648,189,c),
(673,324,l),
(541,326,o),
(427,364,o),
(359,416,c)
);
}
);
width = 1000;
},
{
layerId = "22BF860B-E605-42C1-AA52-30D9AB94E7CE";
shapes = (
{
closed = 1;
nodes = (
(340,776,l),
(441,714,o),
(541,688,o),
(657,677,c),
(679,739,l),
(554,751,o),
(467,778,o),
(371,836,c)
);
},
{
closed = 1;
nodes = (
(154,565,l),
(240,544,o),
(350,537,o),
(455,537,c),
(579,537,o),
(730,550,o),
(868,576,c),
(869,642,l),
(722,615,o),
(574,600,o),
(455,600,c),
(353,600,o),
(247,609,o),
(159,631,c)
);
},
{
closed = 1;
nodes = (
(342,459,l),
(406,415,o),
(516,379,o),
(608,360,c),
(623,431,l),
(539,449,o),
(429,483,o),
(381,516,c)
);
},
{
closed = 1;
nodes = (
(317,326,l),
(393,261,o),
(519,231,o),
(636,229,c),
(633,274,l),
(277,226,o),
(158,159,o),
(158,66,c),
(158,-24,o),
(276,-57,o),
(469,-57,c),
(608,-57,o),
(748,-45,o),
(855,-21,c),
(852,52,l),
(740,26,o),
(604,13,o),
(469,13,c),
(312,13,o),
(235,32,o),
(235,72,c),
(235,129,o),
(313,174,o),
(652,220,c),
(650,281,l),
(533,283,o),
(420,329,o),
(362,379,c)
);
}
);
width = 1000;
}
);
production = u1B008;
script = hentaigana;
unicode = 110600;
}
{
category = Letter;
color = 10;
glyphname = "i-4-kana";
layers = (
{
backgroundImage = {
imagePath = "_sketch/u1B009.png";
locked = 1;
pos = (0,-120);
};
layerId = m01;
shapes = (
{
closed = 1;
nodes = (
(300,789,l),
(295,723,o),
(295,666,o),
(295,611,c),
(295,545,o),
(295,480,o),
(295,414,c),
(295,171,o),
(303,71,o),
(306,-34,c),
(336,-32,l),
(332,72,o),
(325,172,o),
(325,414,c),
(325,480,o),
(325,545,o),
(325,611,c),
(325,666,o),
(325,722,o),
(330,787,c)
);
},
{
closed = 1;
nodes = (
(116,605,l),
(116,446,o),
(116,288,o),
(116,129,c),
(144,122,l),
(238,298,o),
(396,513,o),
(492,625,c),
(556,699,o),
(613,743,o),
(656,743,c),
(681,743,o),
(724,728,o),
(724,668,c),
(724,617,o),
(716,571,o),
(702,522,c),
(719,505,l),
(748,513,o),
(779,514,o),
(798,514,c),
(857,514,o),
(876,455,o),
(876,346,c),
(876,94,o),
(769,-3,o),
(655,-3,c),
(560,-3,o),
(511,73,o),
(511,263,c),
(511,350,o),
(522,502,o),
(589,502,c),
(624,502,o),
(643,425,o),
(643,338,c),
(643,207,o),
(589,132,o),
(490,132,c),
(434,132,o),
(383,159,o),
(383,204,c),
(383,276,o),
(441,327,o),
(504,327,c),
(610,327,o),
(718,281,o),
(761,171,c),
(788,182,l),
(738,302,o),
(618,353,o),
(504,353,c),
(427,353,o),
(353,293,o),
(353,204,c),
(353,137,o),
(426,106,o),
(490,106,c),
(603,106,o),
(673,198,o),
(673,338,c),
(673,429,o),
(655,528,o),
(589,528,c),
(488,528,o),
(481,352,o),
(481,263,c),
(481,67,o),
(545,-29,o),
(655,-29,c),
(784,-29,o),
(906,85,o),
(906,346,c),
(906,459,o),
(874,540,o),
(798,540,c),
(778,540,o),
(745,540,o),
(712,531,c),
(730,514,l),
(745,564,o),
(754,614,o),
(754,668,c),
(754,743,o),
(693,769,o),
(656,769,c),
(597,769,o),
(536,719,o),
(471,644,c),
(373,530,o),
(214,314,o),
(118,135,c),
(146,129,l),
(146,288,o),
(146,446,o),
(146,605,c)
);
}
);
width = 1000;
},
{
layerId = "027B829E-3619-44FF-8C68-78647B0AD671";
shapes = (
{
closed = 1;
nodes = (
(231,835,l),
(237,759,o),
(237,696,o),
(237,635,c),
(237,562,o),
(237,490,o),
(237,418,c),
(237,149,o),
(245,36,o),
(245,-74,c),
(387,-73,l),
(379,44,o),
(372,152,o),
(372,418,c),
(372,490,o),
(372,562,o),
(372,635,c),
(372,696,o),
(372,755,o),
(381,823,c)
);
},
{
closed = 1;
nodes = (
(72,612,l),
(78,448,o),
(78,285,o),
(78,121,c),
(203,89,l),
(292,264,o),
(439,491,o),
(531,603,c),
(590,675,o),
(621,709,o),
(646,709,c),
(665,709,o),
(667,701,o),
(667,674,c),
(667,629,o),
(660,587,o),
(644,509,c),
(698,459,l),
(733,468,o),
(747,476,o),
(773,476,c),
(803,476,o),
(815,450,o),
(815,345,c),
(815,100,o),
(716,64,o),
(669,64,c),
(597,64,o),
(550,111,o),
(550,259,c),
(550,427,o),
(568,442,o),
(581,442,c),
(591,442,o),
(598,421,o),
(598,337,c),
(598,214,o),
(562,170,o),
(491,170,c),
(432,170,o),
(420,174,o),
(420,219,c),
(420,257,o),
(473,272,o),
(505,272,c),
(591,272,o),
(675,240,o),
(738,132,c),
(797,244,l),
(751,317,o),
(624,378,o),
(505,378,c),
(414,378,o),
(323,307,o),
(323,204,c),
(323,107,o),
(416,63,o),
(491,63,c),
(621,63,o),
(713,181,o),
(713,337,c),
(713,436,o),
(698,569,o),
(588,569,c),
(438,569,o),
(442,354,o),
(442,259,c),
(442,51,o),
(526,-71,o),
(672,-71,c),
(847,-71,o),
(950,59,o),
(950,345,c),
(950,469,o),
(932,586,o),
(792,586,c),
(772,586,o),
(737,581,o),
(698,570,c),
(739,514,l),
(778,544,o),
(802,636,o),
(802,690,c),
(802,779,o),
(743,831,o),
(669,831,c),
(562,831,o),
(501,762,o),
(435,682,c),
(335,561,o),
(206,322,o),
(111,136,c),
(201,121,l),
(201,285,o),
(201,448,o),
(207,612,c)
);
}
);
width = 1000;
},
{
layerId = "22BF860B-E605-42C1-AA52-30D9AB94E7CE";
shapes = (
{
closed = 1;
nodes = (
(277,799,l),
(275,730,o),
(275,672,o),
(275,615,c),
(275,548,o),
(275,482,o),
(275,415,c),
(275,167,o),
(283,63,o),
(285,-42,c),
(358,-42,l),
(352,67,o),
(345,168,o),
(345,415,c),
(345,482,o),
(345,549,o),
(345,615,c),
(345,672,o),
(345,728,o),
(352,794,c)
);
},
{
closed = 1;
nodes = (
(102,605,l),
(104,446,o),
(104,288,o),
(104,129,c),
(168,114,l),
(259,287,o),
(413,503,o),
(507,614,c),
(568,686,o),
(621,728,o),
(653,728,c),
(671,728,o),
(700,718,o),
(700,668,c),
(700,619,o),
(692,575,o),
(680,527,c),
(719,490,l),
(745,496,o),
(774,498,o),
(792,498,c),
(834,498,o),
(849,469,o),
(849,346,c),
(849,99,o),
(749,22,o),
(652,22,c),
(573,22,o),
(526,76,o),
(526,263,c),
(526,404,o),
(543,487,o),
(578,487,c),
(610,487,o),
(621,446,o),
(621,338,c),
(621,213,o),
(579,147,o),
(491,147,c),
(431,147,o),
(398,167,o),
(398,217,c),
(398,290,o),
(451,312,o),
(504,312,c),
(603,312,o),
(702,269,o),
(750,138,c),
(800,189,l),
(745,314,o),
(620,369,o),
(504,369,c),
(420,369,o),
(340,301,o),
(340,204,c),
(340,126,o),
(406,90,o),
(475,90,c),
(624,90,o),
(690,192,o),
(690,338,c),
(690,432,o),
(671,544,o),
(588,544,c),
(468,544,o),
(466,353,o),
(466,263,c),
(466,36,o),
(529,-44,o),
(660,-44,c),
(801,-45,o),
(918,63,o),
(918,380,c),
(918,504,o),
(887,555,o),
(823,555,c),
(773,555,o),
(740,546,o),
(707,537,c),
(744,509,l),
(760,560,o),
(769,612,o),
(769,668,c),
(769,753,o),
(716,784,o),
(660,784,c),
(594,784,o),
(526,729,o),
(461,653,c),
(363,538,o),
(216,317,o),
(122,138,c),
(173,129,l),
(173,288,o),
(173,446,o),
(175,605,c)
);
}
);
width = 1000;
}
);
production = u1B009;
script = hentaigana;
unicode = 110601;
}
{
category = Letter;
color = 10;
glyphname = "u-1-kana";
layers = (
{
backgroundImage = {
imagePath = "_sketch/u1B00A.png";
locked = 1;
pos = (0,-120);
};
layerId = m01;
shapes = (
{
closed = 1;
nodes = (
(351,780,l),
(426,744,o),
(549,711,o),
(640,699,c),
(644,725,l),
(555,737,o),
(432,770,o),
(363,804,c)
);
},
{
closed = 1;
nodes = (
(96,557,l),
(88,474,o),
(123,410,o),
(161,369,c),
(179,368,l),
(310,462,o),
(527,616,o),
(721,616,c),
(818,616,o),
(856,570,o),
(856,532,c),
(856,453,o),
(732,394,o),
(501,353,c),
(505,327,l),
(720,365,o),
(886,426,o),
(886,532,c),
(886,590,o),
(826,642,o),
(721,642,c),
(513,642,o),
(296,482,o),
(165,388,c),
(181,389,l),
(147,424,o),
(118,480,o),
(126,555,c)
);
},
{
closed = 1;
nodes = (
(436,405,l),
(491,352,o),
(537,274,o),
(537,179,c),
(537,83,o),
(499,2,o),
(452,-42,c),
(471,-42,l),
(411,19,o),
(322,86,o),
(248,130,c),
(245,108,l),
(317,168,o),
(445,196,o),
(527,196,c),
(609,196,o),
(737,187,o),
(850,126,c),
(857,153,l),
(743,215,o),
(611,222,o),
(527,222,c),
(439,222,o),
(310,193,o),
(232,129,c),
(234,106,l),
(306,64,o),
(393,-3,o),
(451,-62,c),
(470,-62,l),
(525,-12,o),
(567,75,o),
(567,179,c),
(567,284,o),
(515,368,o),
(462,419,c)
);
}
);
width = 1000;
},
{
layerId = "027B829E-3619-44FF-8C68-78647B0AD671";
shapes = (
{
closed = 1;
nodes = (
(325,748,l),
(411,706,o),
(538,673,o),
(638,660,c),
(667,782,l),
(569,795,o),
(443,830,o),
(369,866,c)
);
},
{
closed = 1;
nodes = (
(46,580,l),
(35,465,o),
(81,384,o),
(126,333,c),
(234,338,l),
(403,465,o),
(549,581,o),
(716,581,c),
(779,581,o),
(787,559,o),
(787,537,c),
(787,486,o),
(694,431,o),
(472,390,c),
(532,288,l),
(728,325,o),
(937,362,o),
(937,537,c),
(937,634,o),
(833,692,o),
(716,692,c),
(489,692,o),
(265,529,o),
(137,432,c),
(228,425,l),
(204,452,o),
(187,495,o),
(197,604,c)
);
},
{
closed = 1;
nodes = (
(375,385,l),
(446,321,o),
(479,255,o),
(479,183,c),
(479,106,o),
(451,39,o),
(415,8,c),
(494,-7,l),
(429,56,o),
(338,123,o),
(258,168,c),
(261,89,l),
(322,137,o),
(450,170,o),
(528,170,c),
(611,170,o),
(734,138,o),
(851,78,c),
(891,204,l),
(761,272,o),
(617,274,o),
(528,274,c),
(427,274,o),
(292,241,o),
(199,167,c),
(201,66,l),
(270,27,o),
(358,-39,o),
(413,-92,c),
(504,-94,l),
(574,-33,o),
(629,64,o),
(629,183,c),
(629,307,o),
(560,400,o),
(496,458,c)
);
}
);
width = 1000;
},
{
layerId = "22BF860B-E605-42C1-AA52-30D9AB94E7CE";
shapes = (
{
closed = 1;
nodes = (
(342,762,l),
(421,724,o),
(544,692,o),
(638,680,c),
(646,744,l),
(560,756,o),
(438,790,o),
(372,822,c)
);
},
{
closed = 1;
nodes = (
(73,560,l),
(64,469,o),
(104,399,o),
(146,355,c),
(191,351,l),
(322,445,o),
(536,598,o),
(721,598,c),
(812,598,o),
(833,568,o),
(833,532,c),
(833,465,o),
(707,407,o),
(498,369,c),
(508,311,l),
(725,349,o),
(910,399,o),
(910,532,c),
(910,606,o),
(832,661,o),
(721,661,c),
(504,661,o),
(285,497,o),
(155,404,c),
(196,403,l),
(166,435,o),
(142,485,o),
(151,572,c)
);
},
{
closed = 1;
nodes = (
(413,398,l),
(473,340,o),
(514,266,o),
(514,179,c),
(514,89,o),
(480,13,o),
(437,-26,c),
(486,-27,l),
(424,36,o),
(334,102,o),
(258,147,c),
(257,99,l),
(322,153,o),
(449,178,o),
(527,178,c),
(608,178,o),
(733,167,o),
(848,104,c),
(867,171,l),
(747,235,o),
(612,241,o),
(527,241,c),
(435,241,o),
(303,215,o),
(219,145,c),
(224,89,l),
(294,48,o),
(380,-20,o),
(436,-77,c),
(485,-78,l),
(544,-23,o),
(591,69,o),
(591,179,c),
(591,292,o),
(533,380,o),
(476,434,c)
);
}
);
width = 1000;
}
);
production = u1B00A;
script = hentaigana;
unicode = 110602;
}
{
category = Letter;
color = 10;
glyphname = "u-2-kana";
layers = (
{
backgroundImage = {
imagePath = "_sketch/u1B00B.png";
locked = 1;
pos = (0,-120);
};
layerId = m01;
shapes = (
{
closed = 1;
nodes = (
(351,780,l),
(426,744,o),
(549,711,o),
(640,699,c),
(644,725,l),
(555,737,o),
(432,770,o),
(363,804,c)
);
},
{
closed = 1;
nodes = (
(96,557,l),
(88,474,o),
(123,410,o),
(161,369,c),
(179,368,l),
(310,462,o),
(527,616,o),
(721,616,c),
(818,616,o),
(856,570,o),
(856,532,c),
(856,481,o),
(771,430,o),
(612,411,c),
(623,385,l),
(760,402,o),
(886,452.001,o),
(886,532,c),
(886,590,o),
(826,642,o),
(721,642,c),
(513,642,o),
(296,482,o),
(165,388,c),
(181,389,l),
(147,424,o),
(118,480,o),
(126,555,c)
);
},
{
closed = 1;
nodes = (
(387,423,l),
(437,385,o),
(500,342,o),
(580,327,c),
(575,347,l),
(512,331,o),
(437,301,o),
(379,263,c),
(385,239,l),
(557,228,o),
(627,204,o),
(627,139,c),
(627,34,o),
(504,-40,o),
(324,-55,c),
(339,-80,l),
(513,-66,o),
(657,11,o),
(657,139,c),
(657,222,o),
(568,253,o),
(387,264,c),
(391,244,l),
(447,280,o),
(521,307,o),
(585,324,c),
(585,350,l),
(512,365,o),
(452,406,o),
(404,445,c)
);
}
);
width = 1000;
},
{
layerId = "027B829E-3619-44FF-8C68-78647B0AD671";
shapes = (
{
closed = 1;
nodes = (
(325,748,l),
(411,706,o),
(538,673,o),
(638,660,c),
(667,782,l),
(569,795,o),
(443,830,o),
(369,866,c)
);
},
{
closed = 1;
nodes = (
(46,580,l),
(35,465,o),
(81,384,o),
(126,333,c),
(234,338,l),
(403,465,o),
(549,581,o),
(716,581,c),
(779,581,o),
(787,559,o),
(787,537,c),
(787,493,o),
(731,469,o),
(591,451,c),
(645,347,l),
(768,363,o),
(937,384,o),
(937,537,c),
(937,634,o),
(833,692,o),
(716,692,c),
(489,692,o),
(265,529,o),
(137,432,c),
(228,425,l),
(204,452,o),
(187,495,o),
(197,604,c)
);
},
{
closed = 1;
nodes = (
(352,395,l),
(410,364,o),
(484,326,o),
(577,320,c),
(565,390,l),
(506,376,o),
(426,352,o),
(364,315,c),
(370,219,l),
(519,210,o),
(569,202,o),
(569,169,c),
(569,106,o),
(475,80,o),
(266,65,c),
(338,-77,l),
(528,-63,o),
(724,4,o),
(724,147,c),
(724,287,o),
(583,303,o),
(408,313,c),
(400,253,l),
(455,285,o),
(534,295,o),
(618,314,c),
(636,417,l),
(533,438,o),
(479,472,o),
(432,507,c)
);
}
);
width = 1000;
},
{
layerId = "22BF860B-E605-42C1-AA52-30D9AB94E7CE";
shapes = (
{
closed = 1;
nodes = (
(342,760,l),
(420,722,o),
(543,690,o),
(638,678,c),
(646,746,l),
(561,758,o),
(438,792,o),
(372,824,c)
);
},
{
closed = 1;
nodes = (
(72,560,l),
(62,468,o),
(102,398,o),
(144,354,c),
(192,350,l),
(323,444,o),
(537,596,o),
(721,596,c),
(811,596,o),
(831,567,o),
(831,532,c),
(831,483,o),
(744,450,o),
(601,433,c),
(625,367,l),
(766,385,o),
(911,421,o),
(911,532,c),
(911,607,o),
(847,663,o),
(741,663,c),
(503,663,o),
(284,498,o),
(155,405,c),
(198,404,l),
(168,436,o),
(144,486,o),
(152,572,c)
);
},
{
closed = 1;
nodes = (
(373,426,l),
(425,389,o),
(493,346,o),
(557,337,c),
(574,390,l),
(503,372,o),
(429,337,o),
(362,294,c),
(384,238,l),
(521,229,o),
(602,204.01,o),
(602,159,c),
(602,74,o),
(495,5,o),
(305,-10,c),
(341,-81,l),
(519,-66,o),
(682,12,o),
(682,159,c),
(682,258,o),
(590,287,o),
(415,298,c),
(399,259,l),
(451,292,o),
(528,307,o),
(591,323,c),
(603,392,l),
(523,408,o),
(466,445,o),
(418,483,c)
);
}
);
width = 1000;
}
);
production = u1B00B;
script = hentaigana;
unicode = 110603;
}
{
category = Letter;
color = 10;
glyphname = "u-3-kana";
layers = (
{
backgroundImage = {
imagePath = "_sketch/u1B00C.png";
locked = 1;
pos = (0,-120);
};
layerId = m01;
shapes = (
{
closed = 1;
nodes = (
(357,795,l),
(427,750,o),
(514,715,o),
(629,700,c),
(630,717,l),
(492,710,o),
(381,677,o),
(314,635,c),
(322,610,l),
(416,613,o),
(486,591,o),
(486,530,c),
(486,374,o),
(273,250,o),
(195,250,c),
(157,250,o),
(139,265,o),
(139,298,c),
(139,432,o),
(397,563,o),
(594,563,c),
(772,563,o),
(850,475,o),
(850,379,c),
(850,245,o),
(697,169,o),
(533,169,c),
(448,169,o),
(394,201,o),
(394,243,c),
(394,283,o),
(456,340,o),
(544,340,c),
(596,340,o),
(626,314,o),
(626,279,c),
(626,253,o),
(597,223,o),
(552,194,c),
(417,109,o),
(362,75,o),
(362,29,c),
(362,-38,o),
(455,-46,o),
(510,-46,c),
(562,-46,o),
(616,-41,o),
(681,-28,c),
(682,-1,l),
(612,-15,o),
(560,-20,o),
(510,-20,c),
(458,-20,o),
(392,-12,o),
(392,29,c),
(392,57,o),
(409,74,o),
(565,173,c),
(612,203,o),
(656,233,o),
(656,279,c),
(656,333,o),
(605,366,o),
(544,366,c),
(446,366,o),
(364,296,o),
(364,243,c),
(364,177,o),
(441,143,o),
(533,143,c),
(705,143,o),
(880,222,o),
(880,379,c),
(880,491,o),
(787,585,o),
(591,585,c),
(379,585,o),
(109,446,o),
(109,295,c),
(109,257,o),
(129,223,o),
(192,223,c),
(302,223,o),
(516,369,o),
(516,530,c),
(516,614,o),
(419,635,o),
(321,632,c),
(326,615,l),
(389,655,o),
(496,690,o),
(631,697,c),
(632,723,l),
(521,737,o),
(440,775,o),
(372,818,c)
);
}
);
width = 1000;
},
{
layerId = "027B829E-3619-44FF-8C68-78647B0AD671";
shapes = (
{
closed = 1;
nodes = (
(335,750,l),
(415,701,o),
(510,677,o),
(627,663,c),
(631,724,l),
(494,717,o),
(380,698,o),
(285,639,c),
(304,565,l),
(417,568,o),
(452,560,o),
(452,533,c),
(452,451,o),
(295,317,o),
(235,317,c),
(222,317,o),
(212,318,o),
(212,329,c),
(212,406,o),
(418,511,o),
(594,511,c),
(764,511,o),
(787,448,o),
(787,390,c),
(787,291,o),
(685,233,o),
(538,233,c),
(464,233,o),
(445,247,o),
(445,266,c),
(445,286,o),
(481,303,o),
(521,303,c),
(556,303,o),
(568,293,o),
(568,284,c),
(568,264,o),
(556,254,o),
(487,212,c),
(372,141,o),
(310,102,o),
(310,34,c),
(310,-50,o),
(392,-62,o),
(515,-62,c),
(569,-62,o),
(625,-58,o),
(706,-43,c),
(703,84,l),
(608,67,o),
(561,61,o),
(515,61,c),
(471,61,o),
(460,64,o),
(460,70,c),
(460,90,o),
(481,98,o),
(587,164,c),
(635,193,o),
(718,208,o),
(718,295,c),
(718,384,o),
(624,426,o),
(548,426,c),
(433,426,o),
(312,380,o),
(312,261,c),
(312,147,o),
(436,117,o),
(537,117,c),
(720,117,o),
(937,194,o),
(937,390,c),
(937,529,o),
(795,615,o),
(594,615,c),
(392,615,o),
(62,512,o),
(62,298,c),
(62,235,o),
(110,194,o),
(195,194,c),
(363,194,o),
(581,323,o),
(581,533,c),
(581,660,o),
(428,644,o),
(337,642,c),
(341,589,l),
(405,628,o),
(511,636,o),
(635,642,c),
(659,763,l),
(538,778,o),
(469,813,o),
(395,859,c)
);
}
);
width = 1000;
},
{
layerId = "22BF860B-E605-42C1-AA52-30D9AB94E7CE";
shapes = (
{
closed = 1;
nodes = (
(346,776,l),
(417,730,o),
(507,691,o),
(626,676,c),
(597,732,l),
(488,727,o),
(375,693,o),
(305,649,c),
(322,590,l),
(413,592,o),
(461,572,o),
(461,530,c),
(461,426,o),
(259,271,o),
(195,271,c),
(172,271,o),
(160,279,o),
(160,304,c),
(160,398,o),
(406,546,o),
(591,546,c),
(775,546,o),
(825,462,o),
(825,379,c),
(825,264,o),
(691,189,o),
(533,189,c),
(453,189,o),
(409,213,o),
(409,243,c),
(409,284,o),
(465,319,o),
(533,319,c),
(588,319,o),
(601,299,o),
(601,279,c),
(601,258,o),
(583,242,o),
(539,214,c),
(376,110,o),
(337,74,o),
(337,22,c),
(337,-63,o),
(451,-73,o),
(510,-73,c),
(564,-73,o),
(620,-68,o),
(701,-53,c),
(701,24,l),
(609,6,o),
(559,1,o),
(510,1,c),
(461,1,o),
(409,11,o),
(409,29,c),
(409,47,o),
(427,72,o),
(571,163,c),
(650,213,o),
(681,233,o),
(681,286,c),
(681,348,o),
(612,386,o),
(544,386,c),
(437,386,o),
(339,332,o),
(339,243,c),
(339,157,o),
(436,122,o),
(543,122,c),
(711,122,o),
(905,204,o),
(905,379,c),
(905,504,o),
(794,606,o),
(591,606,c),
(364,606,o),
(84,444,o),
(84,290,c),
(84,230,o),
(120,198,o),
(172,198,c),
(333,198,o),
(541,423,o),
(541,530,c),
(541,633,o),
(422,651,o),
(340,649,c),
(342,609,l),
(394,642,o),
(500,670,o),
(632,676,c),
(647,742,l),
(526,757,o),
(450,794,o),
(384,836,c)
);
}
);
width = 1000;
}
);
production = u1B00C;
script = hentaigana;
unicode = 110604;
}
{
category = Letter;
color = 10;
glyphname = "u-4-kana";
layers = (
{
backgroundImage = {
imagePath = "_sketch/u1B00D.png";
locked = 1;
pos = (0,-120);
};
layerId = m01;
shapes = (
{
closed = 1;
nodes = (
(263,697,l),
(401,697,o),
(577,731,o),
(695,762,c),
(681,782,l),
(633,718,o),
(562,636,o),
(487,559,c),
(321,389,o),
(232,325,o),
(175,325,c),
(143,325,o),
(124,344,o),
(124,377,c),
(124,456,o),
(218,554,o),
(326,554,c),
(401,554,o),
(448,527,o),
(448,403,c),
(448,230,l),
(477,226,l),
(521,361,o),
(650,445,o),
(738,445,c),
(803,445,o),
(851,421,o),
(851,375,c),
(851,333,o),
(780,312,o),
(564,238,c),
(402,181,o),
(305,136,o),
(305,71,c),
(305,6,o),
(391,-19,o),
(486,-19,c),
(568,-19,o),
(633,-11,o),
(719,11,c),
(719,38,l),
(628,15,o),
(566,7,o),
(486,7,c),
(395,7,o),
(335,31,o),
(335,71,c),
(335,117,o),
(406,154,o),
(573,212,c),
(788,287,o),
(881,304,o),
(881,375,c),
(881,440,o),
(816,471,o),
(738,471,c),
(634,471,o),
(504,377,o),
(463,253,c),
(478,230,l),
(478,403,l),
(478,536,o),
(425,580,o),
(326,580,c),
(203,580,o),
(94,478,o),
(94,377,c),
(94,320,o),
(135,296,o),
(175,296,c),
(244,296,o),
(338,366,o),
(507,540,c),
(582,618,o),
(654,700,o),
(703,766,c),
(689,787,l),
(572,757,o),
(396,726,o),
(263,726,c)
);
}
);
width = 1000;
},
{
layerId = "027B829E-3619-44FF-8C68-78647B0AD671";
shapes = (
{
closed = 1;
nodes = (
(264,670,l),
(408,670,o),
(582,723,o),
(684,749,c),
(649,825,l),
(593,769,o),
(523,688,o),
(450,612,c),
(245,400,o),
(211,386,o),
(191,386,c),
(179,386,o),
(175,394,o),
(175,412,c),
(175,456,o),
(234,526,o),
(310,526,c),
(378,526,o),
(399,500,o),
(399,419,c),
(399,232,l),
(531,231,l),
(570,352,o),
(655,428,o),
(745,428,c),
(778,428,o),
(794,415,o),
(794,397,c),
(794,382,o),
(766,367,o),
(550,291,c),
(322,211,o),
(248,152,o),
(248,59,c),
(248,-27,o),
(319,-63,o),
(465,-63,c),
(571,-63,o),
(649,-55,o),
(733,-33,c),
(728,106,l),
(618,78,o),
(543,64,o),
(465,64,c),
(404,64,o),
(391,68,o),
(391,83,c),
(391,109,o),
(426,130,o),
(587,186,c),
(850,278,o),
(956,276,o),
(956,390,c),
(956,503,o),
(827,533,o),
(769,533,c),
(589,533,o),
(489,405,o),
(439,252,c),
(527,244,l),
(527,419,l),
(527,585,o),
(460,635,o),
(344,635,c),
(181,635,o),
(47,529,o),
(47,376,c),
(47,308,o),
(82,245,o),
(166,245,c),
(297,245,o),
(375,347,o),
(543,521,c),
(620,601,o),
(692,686,o),
(756,746,c),
(676,852,l),
(562,823,o),
(386,800,o),
(243,800,c)
);
}
);
width = 1000;
},
{
layerId = "22BF860B-E605-42C1-AA52-30D9AB94E7CE";
shapes = (
{
closed = 1;
nodes = (
(268,673,l),
(405,673,o),
(580,718,o),
(691,747,c),
(642,762,l),
(621,728,o),
(551,646,o),
(476,570,c),
(311,400,o),
(219,344,o),
(175,344,c),
(148,344,o),
(142,354,o),
(142,377,c),
(142,442,o),
(229,535,o),
(326,535,c),
(380,535,o),
(425,521,o),
(425,403,c),
(425,218,l),
(502,217,l),
(543,342,o),
(661,427,o),
(738,427,c),
(796,427,o),
(827,406,o),
(827,375,c),
(827,338,o),
(775,328,o),
(559,253,c),
(396,197,o),
(281,152,o),
(281,59,c),
(281,-17,o),
(374,-37,o),
(486,-37,c),
(569,-37,o),
(637,-30,o),
(724,-8,c),
(725,60,l),
(625,34,o),
(565,26,o),
(486,26,c),
(397,26,o),
(358,40,o),
(358,71,c),
(358,111,o),
(395,133,o),
(578,197,c),
(793,271,o),
(904,281,o),
(904,375,c),
(904,455,o),
(821,490,o),
(738,490,c),
(623,490,o),
(500,380,o),
(463,267,c),
(502,250,l),
(502,403,l),
(502,542,o),
(420,598,o),
(326,598,c),
(204,598,o),
(70,473,o),
(70,360,c),
(70,309,o),
(105,281,o),
(159,281,c),
(262,281,o),
(354,353,o),
(522,525,c),
(598,603,o),
(670,686,o),
(721,753,c),
(684,806,l),
(568,776,o),
(393,744,o),
(259,744,c)
);
}
);
width = 1000;
}
);
production = u1B00D;
script = hentaigana;
unicode = 110605;
}
{
category = Letter;
color = 10;
glyphname = "u-5-kana";
layers = (
{
backgroundImage = {
imagePath = "_sketch/u1B00E.png";
locked = 1;
pos = (0,-120);
};
layerId = m01;
shapes = (
{
closed = 1;
nodes = (
(352,779,l),
(426,750,o),
(549,723,o),
(641,713,c),
(643,739,l),
(555,749,o),
(432,777,o),
(362,805,c)
);
},
{
closed = 1;
nodes = (
(96,600,l),
(88,529,o),
(123,475,o),
(162,442,c),
(178,441,l),
(309,518,o),
(526,645,o),
(721,645,c),
(819,645,o),
(856,605,o),
(856,578,c),
(856,531.004,o),
(772,497,o),
(614,481,c),
(621,455,l),
(759,469,o),
(886,505,o),
(886,578,c),
(886,630,o),
(825,671,o),
(721,671,c),
(514,671,o),
(296,539,o),
(165,462,c),
(180,463,l),
(147,492,o),
(118,537,o),
(126,596,c)
);
},
{
closed = 1;
nodes = (
(426,660,l),
(410,574,o),
(396,490,o),
(397,422,c),
(397,405,o),
(411,392,o),
(428,392,c),
(495,390,o),
(552,392,o),
(603,396,c),
(596,413,l),
(405,376,o),
(333,334,o),
(333,278,c),
(333,214,o),
(417,178,o),
(656,197,c),
(655,215,l),
(326,188,o),
(231,124,o),
(231,64,c),
(231,2,o),
(318,-27,o),
(502,-27,c),
(599,-27,o),
(685,-21,o),
(806,-3,c),
(805,24,l),
(682,5,o),
(598,-1,o),
(502,-1,c),
(321,-1,o),
(261,34,o),
(261,64,c),
(261,104,o),
(330,168,o),
(656,194,c),
(654,220,l),
(418,201,o),
(363,241,o),
(363,278,c),
(363,317,o),
(415,356,o),
(623,396,c),
(620,422,l),
(555,417,o),
(500,416,o),
(437,418,c),
(431,418,o),
(426,422,o),
(427,428,c),
(427,490,o),
(439,572,o),
(455,655,c)
);
}
);
width = 1000;
},
{
layerId = "027B829E-3619-44FF-8C68-78647B0AD671";
shapes = (
{
closed = 1;
nodes = (
(330,747,l),
(414,713,o),
(541,686,o),
(639,675,c),
(666,797,l),
(567,808,o),
(440,837,o),
(364,867,c)
);
},
{
closed = 1;
nodes = (
(47,625,l),
(34,519,o),
(85,447,o),
(132,405,c),
(229,409,l),
(401,516,o),
(544,611,o),
(716,611,c),
(774,611,o),
(787,602,o),
(787,580,c),
(787,551,o),
(734,539,o),
(593,524,c),
(644,419,l),
(765,432,o),
(937,424,o),
(937,584,c),
(937,684,o),
(830,722,o),
(716,722,c),
(494,722,o),
(271,591,o),
(142,511,c),
(223,505,l),
(199,527,o),
(188,556,o),
(198,646,c)
);
},
{
closed = 1;
nodes = (
(377,678,l),
(360,594,o),
(344,511,o),
(344,449,c),
(344,406,o),
(388,373,o),
(431,372,c),
(505,371,o),
(566,376,o),
(638,381,c),
(591,457,l),
(403,422,o),
(279,383,o),
(279,298,c),
(279,202,o),
(425,177,o),
(632,192,c),
(627,266,l),
(326,242,o),
(174,179,o),
(174,74,c),
(174,-45,o),
(316,-67,o),
(483,-67,c),
(615,-67,o),
(707,-62,o),
(828,-45,c),
(823,106,l),
(691,88,o),
(583,80,o),
(465,80,c),
(342,80,o),
(324,84,o),
(324,101,c),
(324,129,o),
(383,143,o),
(676,166,c),
(678,286,l),
(447,269,o),
(429,290,o),
(429,306,c),
(429,326,o),
(431,331,o),
(664,374,c),
(661,486,l),
(607,481,o),
(564,479,o),
(526,478,c),
(508,478,o),
(496,490,o),
(498,508,c),
(503,550,o),
(511,600,o),
(521,650,c)
);
}
);
width = 1000;
},
{
layerId = "22BF860B-E605-42C1-AA52-30D9AB94E7CE";
shapes = (
{
closed = 1;
nodes = (
(344,759,l),
(422,729,o),
(545,702,o),
(638,693,c),
(646,760,l),
(559,770,o),
(436,798,o),
(370,825,c)
);
},
{
closed = 1;
nodes = (
(72,603,l),
(62,523,o),
(105,462,o),
(147,425,c),
(189,422,l),
(320,499,o),
(534,625,o),
(721,625,c),
(813,625,o),
(831,599,o),
(831,576,c),
(831,536,o),
(746,517,o),
(609,503,c),
(625,438,l),
(764,452,o),
(911,467,o),
(911,578,c),
(911,651,o),
(831,692,o),
(721,692,c),
(506,692,o),
(287,556,o),
(157,480,c),
(195,480,l),
(165,506,o),
(144,543,o),
(153,613,c)
);
},
{
closed = 1;
nodes = (
(406,688,l),
(386,579,o),
(371,492,o),
(372,420,c),
(372,391,o),
(396,367,o),
(425,367,c),
(494,368,o),
(552,387,o),
(605,391,c),
(584,420,l),
(402,384,o),
(308,340,o),
(308,278,c),
(308,192,o),
(416,171,o),
(639,189,c),
(644,222,l),
(324,196,o),
(206,147,o),
(206,60,c),
(206,-25,o),
(315,-55,o),
(502,-55,c),
(600,-55,o),
(688,-48,o),
(810,-30,c),
(807,45,l),
(679,26,o),
(597,19,o),
(502,19,c),
(312,19,o),
(286,40,o),
(286,64,c),
(286,98,o),
(321,144,o),
(666,172,c),
(667,246,l),
(419,226,o),
(388,264,o),
(388,278,c),
(388,298,o),
(410,333,o),
(632,377,c),
(629,444,l),
(567,439,o),
(518,431,o),
(466,428,c),
(458,428,o),
(451,434,o),
(452,443,c),
(454,500,o),
(466,579,o),
(483,673,c)
);
}
);
width = 1000;
}
);
production = u1B00E;
script = hentaigana;
unicode = 110606;
}
{
category = Letter;
color = 10;
glyphname = "e-2-kana";
layers = (
{
backgroundImage = {
imagePath = "_sketch/u1B00F.png";
locked = 1;
pos = (0,-120);
};
layerId = m01;
shapes = (
{
closed = 1;
nodes = (
(232,730,l),
(403,729,o),
(520,745,o),
(637,772,c),
(623,781,l),
(607,752,o),
(584,713,o),
(562,674,c),
(575,654,l),
(684,654,o),
(783,646,o),
(783,563,c),
(783,457,o),
(626,423,o),
(520,423,c),
(415,423,o),
(344,467,o),
(344,558,c),
(344,612,o),
(364,673,o),
(421,673,c),
(461,673,o),
(481,632,o),
(481,588,c),
(481,457,o),
(320,375,o),
(207,375,c),
(180,375,o),
(162,387,o),
(162,409,c),
(162,488,o),
(294,571,o),
(488,571,c),
(543,571,o),
(618,551,o),
(618,484,c),
(618,382,o),
(463,309,o),
(163,237,c),
(169,215,l),
(481,291,o),
(648,363,o),
(648,484,c),
(648,580,o),
(537,597,o),
(488,597,c),
(286,597,o),
(132,507,o),
(132,409,c),
(132,369,o),
(158,346,o),
(207,346,c),
(335,346,o),
(511,440,o),
(511,588,c),
(511,640,o),
(484,699,o),
(421,699,c),
(346,699,o),
(314,621,o),
(314,558,c),
(314,451,o),
(407,397,o),
(520,397,c),
(634,397,o),
(813,442,o),
(813,563,c),
(813,668,o),
(694,678,o),
(574,678,c),
(587,660,l),
(609,699,o),
(631,738,o),
(653,777,c),
(638,797,l),
(516,770,o),
(401,754,o),
(233,756,c)
);
},
{
closed = 1;
nodes = (
(81,194,l),
(204,213,o),
(503,288,o),
(709,328,c),
(709,328,o),
(709,326,o),
(709,326,c),
(549,285,o),
(430,224,o),
(430,119,c),
(430,32,o),
(527,-39,o),
(681,-60,c),
(696,-32,l),
(538,-11,o),
(460,55,o),
(460,119,c),
(460,226,o),
(613,298,o),
(927,352,c),
(924,378,l),
(717,368,o),
(236,246,o),
(76,222,c)
);
}
);
width = 1000;
},
{
layerId = "027B829E-3619-44FF-8C68-78647B0AD671";
shapes = (
{
closed = 1;
nodes = (
(223,667,l),
(404,672,o),
(532,693,o),
(632,719,c),
(588,798,l),
(578,781,o),
(574,730,o),
(538,667,c),
(576,620,l),
(696,620,o),
(738,614,o),
(738,556,c),
(738,486,o),
(622,451,o),
(521,451,c),
(420,451,o),
(373,488,o),
(373,563,c),
(373,610,o),
(379,655,o),
(418,655,c),
(451,655,o),
(448,630,o),
(448,594,c),
(448,496,o),
(297,410,o),
(227,410,c),
(208,410,o),
(195,413,o),
(195,434,c),
(195,475,o),
(295,550,o),
(447,550,c),
(536,550,o),
(588,537,o),
(588,488,c),
(588,416,o),
(419,325,o),
(147,259,c),
(166,179,l),
(447,247,o),
(686,320,o),
(686,488,c),
(686,619,o),
(533,630,o),
(487,630,c),
(273,630,o),
(78,522,o),
(78,410,c),
(78,343,o),
(125,309,o),
(198,309,c),
(348,309,o),
(545,414,o),
(545,594,c),
(545,658,o),
(499,735,o),
(418,735,c),
(323,735,o),
(276,638,o),
(276,563,c),
(276,435,o),
(396,371,o),
(521,371,c),
(645,371,o),
(875,388,o),
(875,569,c),
(875,716,o),
(701,716,o),
(576,716,c),
(618,652,l),
(641,693,o),
(688,719,o),
(706,751,c),
(635,841,l),
(511,816,o),
(396,805,o),
(225,811,c)
);
},
{
closed = 1;
nodes = (
(76,140,l),
(199,158,o),
(461,244,o),
(679,299,c),
(679,299,o),
(679,301,o),
(679,301,c),
(501,265,o),
(368,213,o),
(368,91,c),
(368,-11,o),
(478,-60,o),
(682,-85,c),
(723,59,l),
(571,78,o),
(518,89,o),
(518,124,c),
(518,190,o),
(647,253,o),
(948,302,c),
(935,426,l),
(707,416,o),
(210,303,o),
(56,281,c)
);
}
);
width = 1000;
},
{
layerId = "22BF860B-E605-42C1-AA52-30D9AB94E7CE";
shapes = (
{
closed = 1;
nodes = (
(232,709,l),
(399,710,o),
(523,727,o),
(627,752,c),
(601,777,l),
(592,760,o),
(563,725,o),
(541,686,c),
(576,634,l),
(701,634,o),
(758,613,o),
(758,551,c),
(758,480,o),
(668,435,o),
(520,435,c),
(418,435,o),
(360,476,o),
(360,558,c),
(360,608,o),
(375,658,o),
(421,658,c),
(459,658,o),
(464,627,o),
(464,588,c),
(464,461,o),
(310,395,o),
(225,395,c),
(201,395,o),
(177,395,o),
(177,418,c),
(177,481,o),
(298,553,o),
(430,553,c),
(545,553,o),
(593,531,o),
(593,484,c),
(593,403,o),
(465,327,o),
(160,253,c),
(167,220,l),
(436,285,o),
(673,331,o),
(673,484,c),
(673,576,o),
(571,617,o),
(448,617,c),
(281,617,o),
(107,528,o),
(107,402,c),
(107,354,o),
(144,328,o),
(194,328,c),
(344,328,o),
(536,420,o),
(536,588,c),
(536,661,o),
(502,714,o),
(421,714,c),
(335,714,o),
(293,627,o),
(293,558,c),
(293,439,o),
(401,377,o),
(520,377,c),
(686,377,o),
(838,423,o),
(838,563,c),
(838,667,o),
(738,693,o),
(574,693,c),
(608,650,l),
(629,688,o),
(651,727,o),
(673,766,c),
(633,818,l),
(451,779,o),
(373,779,o),
(224,782,c)
);
},
{
closed = 1;
nodes = (
(84,174,l),
(180,188,o),
(377,238,o),
(565,280,c),
(565,280,o),
(566,275,o),
(566,275,c),
(477,236,o),
(405,180,o),
(405,99,c),
(405,13,o),
(519,-59,o),
(678,-80,c),
(704,-1,l),
(551,19,o),
(485,55,o),
(485,107,c),
(485,200,o),
(649,283,o),
(931,331,c),
(923,399,l),
(709,388,o),
(229,265,o),
(74,241,c)
);
}
);
width = 1000;
}
);
production = u1B00F;
script = hentaigana;
unicode = 110607;
}
{
category = Letter;
color = 10;
glyphname = "e-3-kana";
layers = (
{
layerId = m01;
shapes = (
{
closed = 1;
nodes = (
(100,634,l),
(141,643,o),
(184,651,o),
(226,660,c),
(285,673,o),
(343,690,o),
(390,707,c),
(369,717,l),
(336,645,o),
(285,581,o),
(227,539,c),
(225,518,l),
(272,470,o),
(296,384,o),
(296,289,c),
(296,101,o),
(224,4,o),
(165,4,c),
(127,4,o),
(116,28,o),
(116,73,c),
(116,196,o),
(229,341,o),
(290,417,c),
(301,430,l),
(360,504,o),
(582,753,o),
(728,753,c),
(787,753,o),
(817,731,o),
(817,690,c),
(817,637,o),
(749,594,o),
(663,565,c),
(659,535,l),
(763,570,o),
(847,625,o),
(847,690,c),
(847,747,o),
(795,779,o),
(728,779,c),
(554,779,o),
(340,524,o),
(289,461,c),
(279,448,l),
(207,359,o),
(86,207,o),
(86,73,c),
(86,13,o),
(107,-26,o),
(165,-26,c),
(253,-26,o),
(326,93,o),
(326,289,c),
(326,390,o),
(297,481,o),
(243,536,c),
(243,517,l),
(306,562,o),
(359,630,o),
(398,714,c),
(380,733,l),
(335,716,o),
(279,699,o),
(220,686,c),
(178,677,o),
(137,669,o),
(96,668,c)
);
},
{
closed = 1;
nodes = (
(660,651,l),
(662,573,o),
(655,531,o),
(591,481,c),
(590,460,l),
(644,408,o),
(685,318,o),
(685,230,c),
(685,139,o),
(653,39,o),
(573,-13,c),
(594,-20,l),
(573,42,o),
(537,114,o),
(491,166,c),
(469,148,l),
(511,100,o),
(547,30,o),
(566,-30,c),
(587,-37,l),
(679,23,o),
(715,131,o),
(715,230,c),
(715,332,o),
(649,442,o),
(610,480,c),
(609,459,l),
(677,513,o),
(692,571,o),
(690,651,c)
);
},
{
closed = 1;
nodes = (
(497,494,l),
(494,425,o),
(423,320,o),
(386,290,c),
(405,269,l),
(461,328,o),
(506,351,o),
(538,351,c),
(555,351,o),
(568,347,o),
(568,317,c),
(568,263,o),
(445,143,o),
(320,45,c),
(341,19,l),
(468,119,o),
(598,239,o),
(598,325,c),
(598,361,o),
(575,377,o),
(541,377,c),
(513,377,o),
(448,352,o),
(426,313,c),
(412,285,l),
(442,310,o),
(522,407,o),
(527,492,c)
);
},
{
closed = 1;
nodes = (
(682,307,l),
(792,233,o),
(890,120,o),
(905,20,c),
(932,42,l),
(916,142,o),
(810,251,o),
(687,334,c)
);
},
{
closed = 1;
nodes = (
(533,199,l),
(660,336,o),
(772,457,o),
(842,457,c),
(861,457,o),
(883,443,o),
(883,418,c),
(883,376,o),
(821,336,o),
(724,292,c),
(741,273,l),
(831,314,o),
(913,349,o),
(913,417,c),
(913,456,o),
(878,483,o),
(842,483,c),
(750,483,o),
(590,298,o),
(515,217,c)
);
}
);
width = 1000;
},
{
layerId = "027B829E-3619-44FF-8C68-78647B0AD671";
shapes = (
{
closed = 1;
nodes = (
(77,601,l),
(138,615,o),
(183,623,o),
(228,633,c),
(291,647,o),
(347,681,o),
(397,699,c),
(304,715,l),
(296,686,o),
(260,614,o),
(167,520,c),
(170,487,l),
(200,457,o),
(241,386,o),
(241,297,c),
(241,115,o),
(190,49,o),
(166,49,c),
(148,49,o),
(141,67,o),
(141,81,c),
(141,179,o),
(247,329,o),
(306,402,c),
(329,402,l),
(394,483,o),
(581,733,o),
(728,733,c),
(764,733,o),
(781,722,o),
(781,699,c),
(781,672,o),
(773,628,o),
(664,591,c),
(688,519,l),
(791,554,o),
(914,585,o),
(914,710,c),
(914,800,o),
(813,836,o),
(763,836,c),
(554,836,o),
(362,585,o),
(260,458,c),
(242,473,l),
(174,388,o),
(37,241,o),
(37,56,c),
(37,-21,o),
(62,-76,o),
(147,-76,c),
(293,-76,o),
(370,82,o),
(370,297,c),
(370,409,o),
(312,503,o),
(250,566,c),
(254,506,l),
(329,552,o),
(392,624,o),
(444,712,c),
(360,799,l),
(316,782,o),
(260,764,o),
(202,752,c),
(160,742,o),
(118,735,o),
(62,733,c)
);
},
{
closed = 1;
nodes = (
(613,657,l),
(615,583,o),
(599,508,o),
(579,492,c),
(580,443,l),
(628,397,o),
(639,292,o),
(639,200,c),
(639,128,o),
(598,44,o),
(553,15,c),
(638,-3,l),
(614,50,o),
(569,124,o),
(510,177,c),
(449,123,l),
(488,78,o),
(524,8,o),
(548,-69,c),
(644,-71,l),
(728,-16,o),
(774,112,o),
(774,226,c),
(774,355,o),
(702,462,o),
(646,517,c),
(648,431,l),
(721,488,o),
(750,573,o),
(747,665,c)
);
},
{
closed = 1;
nodes = (
(454,515,l),
(449,431,o),
(412,377,o),
(358,332,c),
(430,254,l),
(481,312,o),
(494,330,o),
(516,330,c),
(523,330,o),
(526,326,o),
(526,319,c),
(526,284,o),
(409,187,o),
(293,96,c),
(372,-22,l),
(507,85,o),
(645,196,o),
(645,303,c),
(645,396,o),
(578,428,o),
(539,428,c),
(481,428,o),
(423,395,o),
(384,312,c),
(430,270,l),
(473,306,o),
(565,396,o),
(571,509,c)
);
},
{
closed = 1;
nodes = (
(659,261,l),
(764,190,o),
(849,69,o),
(866,-40,c),
(988,62,l),
(971,170,o),
(858,287,o),
(733,371,c)
);
},
{
closed = 1;
nodes = (
(552,178,l),
(761,404,o),
(790,436,o),
(834,436,c),
(845,436,o),
(851,428,o),
(851,415,c),
(851,376,o),
(777,339,o),
(727,316,c),
(764,235,l),
(857,277,o),
(968,314,o),
(968,424,c),
(968,505,o),
(901,521,o),
(847,521,c),
(685,521,o),
(587,324,o),
(498,228,c)
);
}
);
width = 1000;
},
{
layerId = "22BF860B-E605-42C1-AA52-30D9AB94E7CE";
shapes = (
{
closed = 1;
nodes = (
(103,613,l),
(144,624,o),
(187,632,o),
(230,641,c),
(290,655,o),
(349,671,o),
(396,689,c),
(366,729,l),
(325,652,o),
(272,593,o),
(215,556,c),
(210,503,l),
(251,462,o),
(273,380,o),
(273,289,c),
(273,107,o),
(206,23,o),
(174,23,c),
(146,23,o),
(140,42,o),
(140,73,c),
(140,192,o),
(243,329,o),
(309,412,c),
(312,410,l),
(416,540,o),
(601,735,o),
(728,735,c),
(774,735,o),
(794,718,o),
(794,690,c),
(794,647,o),
(738,611,o),
(663,585,c),
(678,521,l),
(774,553,o),
(871,601,o),
(871,690,c),
(871,760,o),
(800,798,o),
(728,798,c),
(553,798,o),
(316,514,o),
(259,443,c),
(259,452,l),
(201,381,o),
(63,210,o),
(63,76,c),
(63,18,o),
(82,-48,o),
(165,-48,c),
(275,-48,o),
(350,87,o),
(350,289,c),
(350,394,o),
(321,490,o),
(260,553,c),
(251,506,l),
(318,551,o),
(375,620,o),
(418,705,c),
(374,751,l),
(329,735,o),
(274,717,o),
(216,705,c),
(175,696,o),
(134,688,o),
(93,689,c)
);
},
{
closed = 1;
nodes = (
(637,650,l),
(639,575,o),
(638,544,o),
(579,497,c),
(576,445,l),
(598,424,o),
(662,307,o),
(662,230,c),
(662,144,o),
(635,51,o),
(568,8,c),
(619,-11,l),
(596,53,o),
(557,126,o),
(506,180,c),
(465,143,l),
(505,96,o),
(540,27,o),
(567,-58,c),
(626,-57,l),
(714,0,o),
(739,126,o),
(739,230,c),
(739,343,o),
(664,448,o),
(620,491,c),
(621,443,l),
(694,500,o),
(715,569,o),
(713,652,c)
);
},
{
closed = 1;
nodes = (
(474,505,l),
(471,440,o),
(403,330,o),
(373,306,c),
(420,255,l),
(476,316,o),
(514,333,o),
(530,333,c),
(538,333,o),
(545,330,o),
(545,317,c),
(545,255,o),
(426,162,o),
(318,77,c),
(353,3,l),
(482,104,o),
(622,210,o),
(622,325,c),
(622,372,o),
(590,395,o),
(552,395,c),
(488,396,o),
(421,328,o),
(415,312,c),
(415,285,l),
(443,309,o),
(545,392,o),
(551,501,c)
);
},
{
closed = 1;
nodes = (
(671,290,l),
(778,218,o),
(869,103,o),
(884,3,c),
(954,46,l),
(937,159,o),
(826,268,o),
(709,346,c)
);
},
{
closed = 1;
nodes = (
(539,173,l),
(639,281,o),
(767,439,o),
(832,439,c),
(848,439,o),
(860,432,o),
(860,423,c),
(860,388,o),
(813,353,o),
(723,312,c),
(749,256,l),
(883,317,o),
(937,360,o),
(937,423,c),
(937,473,o),
(904,502,o),
(851,502,c),
(735,502,o),
(595,317,o),
(508,223,c)
);
}
);
width = 1000;
}
);
production = u1B010;
script = hentaigana;
unicode = 110608;
}
{
category = Letter;
color = 10;
glyphname = "e-4-kana";
layers = (
{
backgroundImage = {
imagePath = "_sketch/u1B011.png";
locked = 1;
pos = (0,-120);
};
layerId = m01;
shapes = (
{
closed = 1;
nodes = (
(351,780,l),
(426,744,o),
(549,711,o),
(640,699,c),
(644,725,l),
(555,737,o),
(432,770,o),
(363,804,c)
);
},
{
closed = 1;
nodes = (
(226,498,l),
(349,499,o),
(581,517,o),
(682,536,c),
(684,552,l),
(491,432,o),
(241,248,o),
(58,117,c),
(74,95,l),
(301,256,o),
(318,265,o),
(369,265,c),
(434,265,o),
(455,222,o),
(455,107,c),
(455,50,o),
(455,-6,o),
(455,-63,c),
(485,-63,l),
(525,187,o),
(623,234,o),
(697,234,c),
(797,234,o),
(876,150,o),
(876,56,c),
(889,70,l),
(808,59,o),
(745,53,o),
(667,42,c),
(677,17,l),
(749,27,o),
(811,33,o),
(893,43,c),
(906,56,l),
(906,167,o),
(811,260,o),
(697,260,c),
(611,260,o),
(500,197,o),
(462,-46,c),
(485,-58,l),
(485,-6,o),
(485,50,o),
(485,139,c),
(485,236,o),
(449,288,o),
(369,288,c),
(316,288,o),
(292,268,o),
(94,127,c),
(82,109,l),
(254,231,o),
(506,412,o),
(714,542,c),
(704,567,l),
(580,543,o),
(346,524,o),
(226,524,c)
);
}
);
width = 1000;
},
{
layerId = "027B829E-3619-44FF-8C68-78647B0AD671";
shapes = (
{
closed = 1;
nodes = (
(324,746,l),
(410,704,o),
(538,673,o),
(638,660,c),
(655,784,l),
(569,795,o),
(444,833,o),
(381,863,c)
);
},
{
closed = 1;
nodes = (
(220,443,l),
(348,464,o),
(586,482,o),
(722,509,c),
(637,567,l),
(470,463,o),
(202,286,o),
(22,158,c),
(106,47,l),
(327,205,o),
(338,198,o),
(361,198,c),
(382,198,o),
(394,187,o),
(394,98,c),
(394,40,o),
(394,-18,o),
(394,-76,c),
(540,-80,l),
(572,126,o),
(627,181,o),
(702,181,c),
(779,181,o),
(804,95,o),
(804,47,c),
(895,109,l),
(812,99,o),
(747,92,o),
(649,79,c),
(689,-42,l),
(762,-32,o),
(826,-26,o),
(910,-15,c),
(954,47,l),
(954,181,o),
(847,304,o),
(702,304,c),
(552,304,o),
(480,192,o),
(446,-27,c),
(529,-49,l),
(529,-18,o),
(529,40,o),
(529,192,c),
(529,295,o),
(488,334,o),
(413,334,c),
(305,334,o),
(268,292,o),
(60,144,c),
(113,63,l),
(280,182,o),
(537,371,o),
(748,502,c),
(701,621,l),
(579,597,o),
(336,578,o),
(204,588,c)
);
}
);
width = 1000;
},
{
layerId = "22BF860B-E605-42C1-AA52-30D9AB94E7CE";
shapes = (
{
closed = 1;
nodes = (
(341,759,l),
(420,721,o),
(543,690,o),
(642,677,c),
(655,745,l),
(561,758,o),
(438,793,o),
(373,825,c)
);
},
{
closed = 1;
nodes = (
(226,472,l),
(351,480,o),
(582,499,o),
(712,524,c),
(693,576,l),
(482,444,o),
(228,266,o),
(45,135,c),
(83,73,l),
(313,237,o),
(334,242,o),
(371,242,c),
(412,242,o),
(438,230,o),
(438,127,c),
(438,50,o),
(438,-6,o),
(438,-69,c),
(510,-69,l),
(549,177,o),
(632,213,o),
(697,213,c),
(786,213,o),
(850,135,o),
(850,56,c),
(874,89,l),
(806,80,o),
(744,68,o),
(663,57,c),
(680,-3,l),
(751,6,o),
(813,13,o),
(895,23,c),
(932,56,l),
(932,181,o),
(822,280,o),
(697,280,c),
(602,280,o),
(492,201,o),
(457,-20,c),
(504,-23,l),
(504,-6,o),
(511,50,o),
(511,138,c),
(511,259,o),
(455,304,o),
(369,304,c),
(314,304,o),
(287,276,o),
(86,133,c),
(107,101,l),
(266,215,o),
(519,394,o),
(726,523,c),
(700,587,l),
(579,564,o),
(344,545,o),
(226,549,c)
);
}
);
width = 1000;
}
);
production = u1B011;
script = hentaigana;
unicode = 110609;
}
{
category = Letter;
color = 10;
glyphname = "e-5-kana";
layers = (
{
backgroundImage = {
imagePath = "_sketch/u1B012.png";
locked = 1;
pos = (0,-120);
};
layerId = m01;
shapes = (
{
closed = 1;
nodes = (
(315,806,l),
(358,727,o),
(456,659,o),
(548,648,c),
(557,667,l),
(437,651,o),
(341,620,o),
(272,548,c),
(272,531,l),
(302,499,o),
(326,474,o),
(326,397,c),
(325,150,o),
(412,25,o),
(743,-38,c),
(757,-12,l),
(422,52,o),
(355,166,o),
(356,397,c),
(356,481,o),
(319,516,o),
(290,548,c),
(291,530,l),
(354,596,o),
(443,628,o),
(560,643,c),
(560,669,l),
(467,681,o),
(379,749,o),
(338,825,c)
);
}
);
width = 1000;
},
{
layerId = "027B829E-3619-44FF-8C68-78647B0AD671";
shapes = (
{
closed = 1;
nodes = (
(247,781,l),
(311,669,o),
(442,628,o),
(556,615,c),
(558,692,l),
(428,676,o),
(306,675,o),
(221,590,c),
(221,484,l),
(253,452,o),
(254,454,o),
(254,398,c),
(253,141,o),
(348,-13,o),
(722,-81,c),
(775,86,l),
(491,137,o),
(418,177,o),
(418,398,c),
(419,498,o),
(358,560,o),
(327,590,c),
(327,484,l),
(379,535,o),
(453,568,o),
(569,583,c),
(569,719,l),
(493,728,o),
(418,794,o),
(390,843,c)
);
}
);
width = 1000;
},
{
layerId = "22BF860B-E605-42C1-AA52-30D9AB94E7CE";
shapes = (
{
closed = 1;
nodes = (
(300,782,l),
(341,707,o),
(448,645,o),
(513,637,c),
(528,671,l),
(435,658,o),
(328,644,o),
(253,566,c),
(253,513,l),
(284,482,o),
(299,467,o),
(299,398,c),
(298,144,o),
(403,4,o),
(739,-60,c),
(766,16,l),
(433,79,o),
(382,182,o),
(382,397,c),
(383,488,o),
(336,532,o),
(306,563,c),
(308,513,l),
(366,574,o),
(448,607,o),
(563,622,c),
(563,691,l),
(478,701,o),
(396,769,o),
(359,837,c)
);
}
);
width = 1000;
}
);
production = u1B012;
script = hentaigana;
unicode = 110610;
}
{
category = Letter;
color = 10;
glyphname = "e-6-kana";
layers = (
{
backgroundImage = {
imagePath = "_sketch/u1B013.png";
locked = 1;
pos = (0,-120);
};
layerId = m01;
shapes = (
{
closed = 1;
nodes = (
(176,558,l),
(198,504,o),
(247,483,o),
(296,483,c),
(391,483,o),
(576,578,o),
(698,578,c),
(775,578,o),
(806,546,o),
(806,532,c),
(806,516,o),
(779,493,o),
(700,493,c),
(713,467,l),
(785,467,o),
(836,489,o),
(836,532,c),
(836,576,o),
(781,604,o),
(698,604,c),
(586,604,o),
(391,509,o),
(296,509,c),
(263,509,o),
(223,521,o),
(198,579,c)
);
},
{
closed = 1;
nodes = (
(429,647,l),
(424,619,o),
(415,580,o),
(406,539,c),
(390,468,o),
(379,404,o),
(379,366,c),
(379,352,l),
(379,259,o),
(396,201,o),
(425,147,c),
(430,143,l),
(450,107,o),
(505,74,o),
(552,54,c),
(573,65,l),
(590,177,o),
(611,292,o),
(632,405,c),
(612,409,l),
(588,296,o),
(566,181,o),
(546,70,c),
(563,80,l),
(518,99,o),
(465,134,o),
(451,161,c),
(445,170,l),
(423,211,o),
(409,262,o),
(409,359,c),
(409,372,l),
(409,398,o),
(419,462,o),
(434,533,c),
(443,574,o),
(453,612,o),
(466,638,c)
);
},
{
closed = 1;
nodes = (
(611,416,l),
(570,320,o),
(476,208,o),
(437,171,c),
(428,162,l),
(344,81,o),
(277,59,o),
(234,59,c),
(207,59,o),
(169,66,o),
(169,113,c),
(169,215,o),
(374,402,o),
(595,402,c),
(754,402,o),
(848,324,o),
(848,224,c),
(848,78,o),
(721,18,o),
(547,-15,c),
(569,-41,l),
(732,-10,o),
(878,61,o),
(878,224,c),
(878,343,o),
(762,428,o),
(595,428,c),
(377,428,o),
(139,250,o),
(139,113,c),
(139,61,o),
(178,30,o),
(231,30,c),
(287,30,o),
(360,58,o),
(440,136,c),
(452,147,l),
(498,192,o),
(590,304,o),
(633,406,c)
);
},
{
closed = 1;
nodes = (
(333,770,l),
(434,722,o),
(528,699,o),
(635,693,c),
(637,719,l),
(533,725,o),
(443,748,o),
(345,795,c)
);
}
);
width = 1000;
},
{
layerId = "027B829E-3619-44FF-8C68-78647B0AD671";
shapes = (
{
closed = 1;
nodes = (
(98,553,l),
(131,472,o),
(192,440,o),
(261,440,c),
(404,440,o),
(589,538,o),
(703,538,c),
(730,538,o),
(731,535,o),
(731,532,c),
(731,528,o),
(715,527,o),
(650,527,c),
(694,433,l),
(775,433,o),
(875,443,o),
(875,536,c),
(875,635,o),
(775,656,o),
(699,656,c),
(580,656,o),
(374,569,o),
(314,569,c),
(270,569,o),
(228,598,o),
(212,638,c)
);
},
{
closed = 1;
nodes = (
(372,685,l),
(367,639,o),
(356,599,o),
(346,556,c),
(330,481,o),
(308,418,o),
(308,365,c),
(307,343,l),
(307,237,o),
(329,183,o),
(369,108,c),
(376,115,l),
(413,44,o),
(466,-7,o),
(522,-31,c),
(632,66,l),
(650,160,o),
(675,278,o),
(700,389,c),
(626,408,l),
(595,293,o),
(566,175,o),
(537,49,c),
(578,91,l),
(530,111,o),
(492,167,o),
(487,175,c),
(480,185,l),
(442,255,o),
(443,289,o),
(443,365,c),
(452,365,l),
(452,390,o),
(463,456,o),
(478,527,c),
(487,569,o),
(498,609,o),
(519,656,c)
);
},
{
closed = 1;
nodes = (
(568,425,l),
(534,338,o),
(447,222,o),
(408,182,c),
(401,189,l),
(338,130,o),
(277,107,o),
(240,107,c),
(216,107,o),
(208,117,o),
(208,133,c),
(208,199,o),
(383,350,o),
(546,350,c),
(697,350,o),
(781,313,o),
(781,218,c),
(781,117,o),
(693,79,o),
(506,45,c),
(597,-80,l),
(794,-44,o),
(931,27,o),
(931,203,c),
(931,402,o),
(770,470,o),
(597,470,c),
(331,470,o),
(73,313,o),
(73,102,c),
(73,10,o),
(131,-33,o),
(212,-33,c),
(307,-33,o),
(387,-6,o),
(492,93,c),
(489,96,l),
(533,157,o),
(608,279,o),
(634,396,c)
);
},
{
closed = 1;
nodes = (
(316,731,l),
(415,684,o),
(521,660,o),
(637,654,c),
(660,777,l),
(542,783,o),
(458,808,o),
(362,853,c)
);
}
);
width = 1000;
},
{
layerId = "22BF860B-E605-42C1-AA52-30D9AB94E7CE";
shapes = (
{
closed = 1;
nodes = (
(148,562,l),
(179,488,o),
(227,463,o),
(296,463,c),
(406,463,o),
(587,558,o),
(706,558,c),
(759,558,o),
(781,554,o),
(781,534,c),
(781,524,o),
(775,514,o),
(689,514,c),
(713,447,l),
(789,447,o),
(861,467,o),
(861,532,c),
(861,600.002,o),
(786,625,o),
(722,625,c),
(587,625,o),
(358,530,o),
(311,530,c),
(253,530,o),
(235,552,o),
(212,608,c)
);
},
{
closed = 1;
nodes = (
(405,656,l),
(401,624,o),
(391,586,o),
(382,544,c),
(366,472,o),
(354,409,o),
(354,366,c),
(354,337,l),
(354,257,o),
(374,193,o),
(405,136,c),
(416,126,l),
(437,87,o),
(491,48,o),
(541,27,c),
(597,61,l),
(613,172,o),
(632,288,o),
(649,381,c),
(603,411,l),
(579,298,o),
(556,183,o),
(536,72,c),
(572,100,l),
(529,119,o),
(480,155,o),
(475,165,c),
(471,172,l),
(436,238,o),
(434,257,o),
(434,373,c),
(434,366,l),
(434,393,o),
(443,458,o),
(458,528,c),
(467,568,o),
(478,607,o),
(494,633,c)
);
},
{
closed = 1;
nodes = (
(587,426,l),
(550,335,o),
(460,220,o),
(430,190,c),
(415,174,l),
(329,90,o),
(275,77,o),
(237,77,c),
(208,77,o),
(194,83,o),
(194,118,c),
(194,233,o),
(381,382,o),
(595,382,c),
(754,382,o),
(823,299,o),
(823,215,c),
(823,93,o),
(712,43,o),
(524,7,c),
(573,-62,l),
(759,-27,o),
(903,46,o),
(903,211,c),
(903,373,o),
(769,449,o),
(599,449,c),
(346,449,o),
(114,279,o),
(114,113,c),
(114,42,o),
(156,-7,o),
(224,-7,c),
(300,-7,o),
(376,35,o),
(471,127,c),
(470,128,l),
(519,176,o),
(612,288,o),
(657,396,c)
);
},
{
closed = 1;
nodes = (
(324,750,l),
(427,702,o),
(525,678,o),
(634,672,c),
(638,740,l),
(536,745,o),
(450,769,o),
(354,814,c)
);
}
);
width = 1000;
}
);
production = u1B013;
script = hentaigana;
unicode = 110611;
}
{
category = Letter;
color = 3;
glyphname = "o-1-kana";
layers = (
{
backgroundImage = {
imagePath = "_sketch/u1B014.png";
locked = 1;
pos = (0,-120);
};
layerId = m01;
shapes = (
{
closed = 1;
nodes = (
(699,801,l),
(660,688,o),
(564,554,o),
(471,484,c),
(484,461,l),
(595,501,o),
(799,528,o),
(917,528,c),
(917,554,l),
(796,554,o),
(593,526,o),
(495,491,c),
(508,480,l),
(586,537,o),
(684,672,o),
(726,791,c)
);
},
{
closed = 1;
nodes = (
(609,407,l),
(647,349,o),
(720,300,o),
(785,285,c),
(783,298,l),
(706,284,o),
(613,249,o),
(526,198,c),
(529,174,l),
(664,125,o),
(770,64,o),
(876,-42,c),
(891,-18,l),
(787,87,o),
(674,148,o),
(544,195,c),
(546,182,l),
(624,227,o),
(713,261,o),
(807,278,c),
(808,304,l),
(732,322,o),
(666,372,o),
(633,423,c)
);
},
{
closed = 1;
nodes = (
(98,504,l),
(133,515,o),
(178,527,o),
(226,539,c),
(299,558,o),
(379,577,o),
(439,589,c),
(434,615,l),
(373,603,o),
(293,584,o),
(219,565,c),
(171,553,o),
(126,540,o),
(90,530,c)
);
},
{
closed = 1;
nodes = (
(289,792,l),
(287,722,o),
(285,668,o),
(283,617,c),
(280,540,o),
(279,468,o),
(279,386,c),
(279,232,o),
(281,108,o),
(292,-20,c),
(310,-6,l),
(270,70,o),
(229,139,o),
(166,213,c),
(144,194,l),
(206,122,o),
(245,56,o),
(295,-39,c),
(322,-31,l),
(311,110,o),
(309,232,o),
(309,386,c),
(309,467,o),
(310,539,o),
(313,616,c),
(315,667,o),
(317,720,o),
(323,790,c)
);
},
{
closed = 1;
nodes = (
(97,128,l),
(117,152,o),
(141,176,o),
(167,202,c),
(252,287,o),
(353,381,o),
(426,442,c),
(418,472,l),
(334,402,o),
(232,308,o),
(147,222,c),
(121,196,o),
(97,171,o),
(75,149,c)
);
}
);
width = 1000;
},
{
layerId = "027B829E-3619-44FF-8C68-78647B0AD671";
shapes = (
{
closed = 1;
nodes = (
(650,832,l),
(616,730,o),
(521,594,o),
(438,530,c),
(501,415,l),
(604,452,o),
(816,484,o),
(929,484,c),
(929,609,l),
(797,609,o),
(590,580,o),
(506,550,c),
(534,468,l),
(618,520,o),
(729,655,o),
(787,785,c)
);
},
{
closed = 1;
nodes = (
(566,378,l),
(614,304,o),
(706,262,o),
(776,246,c),
(762,338,l),
(698,327,o),
(598,291,o),
(504,238,c),
(513,125,l),
(647,77,o),
(746,18,o),
(845,-80,c),
(934,24,l),
(827,130,o),
(702,194,o),
(556,246,c),
(558,144,l),
(644,189,o),
(733,216,o),
(826,229,c),
(836,351,l),
(763,368,o),
(707,418,o),
(684,454,c)
);
},
{
closed = 1;
nodes = (
(71,451,l),
(135,471,o),
(181,483,o),
(230,496,c),
(305,516,o),
(387,535,o),
(431,544,c),
(422,671,l),
(359,658,o),
(275,638,o),
(198,619,c),
(148,606,o),
(101,593,o),
(52,579,c)
);
},
{
closed = 1;
nodes = (
(231,824,l),
(229,750,o),
(227,694,o),
(225,640,c),
(222,557,o),
(220,481,o),
(220,395,c),
(220,232,o),
(233,101,o),
(240,9,c),
(276,28,l),
(261,61,o),
(222,135,o),
(141,240,c),
(90,157,l),
(149,85,o),
(186,20,o),
(229,-66,c),
(367,-25,l),
(356,106,o),
(355,233,o),
(355,395,c),
(355,480,o),
(356,554,o),
(359,635,c),
(361,688,o),
(364,744,o),
(369,817,c)
);
},
{
closed = 1;
nodes = (
(93,63,l),
(144,116,o),
(168,139,o),
(194,164,c),
(280,246,o),
(379,344,o),
(452,402,c),
(407,519,l),
(300,434,o),
(189,348,o),
(100,263,c),
(73,237,o),
(49,214,o),
(49,214,c)
);
}
);
width = 1000;
},
{
layerId = "22BF860B-E605-42C1-AA52-30D9AB94E7CE";
shapes = (
{
closed = 1;
nodes = (
(676,809,l),
(639,702,o),
(545,569,o),
(458,503,c),
(492,439,l),
(598,478,o),
(803,507,o),
(917,507,c),
(917,576,l),
(792,576,o),
(591,544,o),
(514,516,c),
(520,466,l),
(603,524,o),
(703,660,o),
(749,783,c)
);
},
{
closed = 1;
nodes = (
(590,395,l),
(631,330,o),
(708,278,o),
(797,258,c),
(800,317,l),
(700,301,o),
(605,267,o),
(515,217,c),
(521,154,l),
(654,105,o),
(753,41,o),
(851,-58,c),
(908,-2,l),
(800,106,o),
(684,169,o),
(545,219,c),
(548,161,l),
(632,209,o),
(719,241,o),
(811,257,c),
(813,325,l),
(742,341,o),
(681,391,o),
(653,435,c)
);
},
{
closed = 1;
nodes = (
(92,473,l),
(139,492,o),
(184,504,o),
(231,516,c),
(305,535,o),
(385,554,o),
(443,566,c),
(435,639,l),
(368,626,o),
(287,607,o),
(213,588,c),
(165,576,o),
(119,564,o),
(80,555,c)
);
},
{
closed = 1;
nodes = (
(263,812,l),
(263,723,o),
(260,670,o),
(258,618,c),
(255,540,o),
(254,468,o),
(254,386,c),
(254,231,o),
(256,107,o),
(267,-18,c),
(322,11,l),
(286,79,o),
(245,150,o),
(181,226,c),
(129,181,l),
(189,110,o),
(225,45,o),
(274,-50,c),
(347,-29,l),
(335,111,o),
(334,232,o),
(334,386,c),
(334,467,o),
(335,538,o),
(338,615,c),
(340,666,o),
(342,719,o),
(351,805,c)
);
},
{
closed = 1;
nodes = (
(106,99,l),
(135,135,o),
(158,160,o),
(184,185,c),
(268,270,o),
(369,364,o),
(441,424,c),
(414,499,l),
(318,419,o),
(216,325,o),
(130,239,c),
(104,213,o),
(80,187,o),
(56,166,c)
);
}
);
width = 1000;
}
);
production = u1B014;
script = hentaigana;
unicode = 110612;
}
{
category = Letter;
color = 2;
glyphname = "o-2-kana";
layers = (
{
backgroundImage = {
imagePath = "_sketch/u1B015.png";
locked = 1;
pos = (0,-120);
};
layerId = m01;
shapes = (
{
closed = 1;
nodes = (
(608,645,l),
(728,645,o),
(827,618,o),
(900,541,c),
(905,563,l),
(848,539,o),
(759,514,o),
(698,489,c),
(709,464,l),
(766,488,o),
(855,513,o),
(916,538,c),
(921,560,l),
(841,644,o),
(731,671,o),
(608,671,c)
);
},
{
closed = 1;
nodes = (
(569,247,l),
(569,110,o),
(658,19,o),
(899,19,c),
(899,45,l),
(664,45,o),
(599,122,o),
(599,247,c)
);
},
{
closed = 1;
nodes = (
(98,504,l),
(137,515,o),
(187,527,o),
(240,539,c),
(321,558,o),
(410,577,o),
(476,589,c),
(471,615,l),
(404,603,o),
(315,584,o),
(234,565,c),
(180,553,o),
(130,541,o),
(91,530,c)
);
},
{
closed = 1;
nodes = (
(314,792,l),
(310,722,o),
(307,668,o),
(305,618,c),
(302,540,o),
(301,468,o),
(301,386,c),
(301,232,o),
(303,108,o),
(316,-34,c),
(343,-25,l),
(288,70,o),
(243,139,o),
(173,213,c),
(152,194,l),
(220,122,o),
(263,56,o),
(319,-39,c),
(346,-31,l),
(333,110,o),
(331,232,o),
(331,386,c),
(331,467,o),
(332,539,o),
(335,616,c),
(337,667,o),
(340,720,o),
(344,790,c)
);
},
{
closed = 1;
nodes = (
(96,128,l),
(119,151,o),
(146,176,o),
(174,202,c),
(268,287,o),
(380,381,o),
(461,442,c),
(444,464,l),
(362,402,o),
(249,308,o),
(155,222,c),
(127,196,o),
(100,171,o),
(76,148,c)
);
}
);
width = 1000;
},
{
layerId = "027B829E-3619-44FF-8C68-78647B0AD671";
shapes = (
{
closed = 1;
nodes = (
(611,605,l),
(727,605,o),
(810,574,o),
(873,508,c),
(898,615,l),
(844,593,o),
(753,568,o),
(685,539,c),
(735,420,l),
(788,442,o),
(880,467,o),
(948,496,c),
(972,602,l),
(878,703,o),
(745,728,o),
(611,728,c)
);
},
{
closed = 1;
nodes = (
(511,243,l),
(511,79,o),
(652,-40,o),
(911,-40,c),
(911,83,l),
(681,83,o),
(661,138,o),
(661,243,c)
);
},
{
closed = 1;
nodes = (
(70,452,l),
(138,470,o),
(189,483,o),
(243,496,c),
(326,516,o),
(417,535,o),
(468,544,c),
(462,671,l),
(391,658,o),
(299,639,o),
(214,619,c),
(159,606,o),
(107,594,o),
(54,580,c)
);
},
{
closed = 1;
nodes = (
(255,824,l),
(253,750,o),
(250,694,o),
(248,640,c),
(245,558,o),
(243,481,o),
(243,395,c),
(243,232,o),
(245,100,o),
(254,3,c),
(320,-20,l),
(278,61,o),
(235,135,o),
(146,240,c),
(121,174,l),
(184,96,o),
(221,27,o),
(266,-66,c),
(392,-38,l),
(379,107,o),
(378,233,o),
(378,395,c),
(378,480,o),
(379,554,o),
(382,635,c),
(384,688,o),
(387,743,o),
(393,817,c)
);
},
{
closed = 1;
nodes = (
(91,52,l),
(145,106,o),
(171,131,o),
(200,157,c),
(295,243,o),
(405,346,o),
(487,407,c),
(444,525,l),
(329,438,o),
(207,347,o),
(109,257,c),
(79,230,o),
(51,204,o),
(51,204,c)
);
}
);
width = 1000;
},
{
layerId = "22BF860B-E605-42C1-AA52-30D9AB94E7CE";
shapes = (
{
closed = 1;
nodes = (
(593,626,l),
(725,626,o),
(816,597,o),
(884,525,c),
(897,582,l),
(842,559,o),
(753,534,o),
(690,508,c),
(717,445,l),
(772,468,o),
(861,493,o),
(924,519,c),
(937,575,l),
(852,665,o),
(734,691,o),
(608,691,c)
);
},
{
closed = 1;
nodes = (
(545,247,l),
(545,101,o),
(653,-3,o),
(899,-3,c),
(916,67,l),
(682,67,o),
(622,135,o),
(622,247,c)
);
},
{
closed = 1;
nodes = (
(91,476,l),
(142,494,o),
(192,506,o),
(244,518,c),
(326,537,o),
(414,556,o),
(479,568,c),
(473,637,l),
(400,624,o),
(311,605,o),
(229,587,c),
(175,574,o),
(125,562,o),
(82,553,c)
);
},
{
closed = 1;
nodes = (
(288,812,l),
(287,723,o),
(284,670,o),
(282,618,c),
(279,540,o),
(277,468,o),
(277,386,c),
(277,231,o),
(280,107,o),
(291,-19,c),
(342,11,l),
(302,79,o),
(257,150,o),
(186,226,c),
(139,181,l),
(205,110,o),
(246,45,o),
(300,-50,c),
(369,-29,l),
(356,111,o),
(354,232,o),
(354,386,c),
(354,467,o),
(356,538,o),
(359,615,c),
(361,666,o),
(363,719,o),
(372,804,c)
);
},
{
closed = 1;
nodes = (
(103,100,l),
(134,135,o),
(160,160,o),
(188,185,c),
(282,270,o),
(394,364,o),
(474,424,c),
(453,497,l),
(348,419,o),
(235,325,o),
(140,238,c),
(112,213,o),
(85,187,o),
(59,166,c)
);
}
);
width = 1000;
}
);
production = u1B015;
script = hentaigana;
unicode = 110613;
}
{
category = Letter;
color = 3;
glyphname = "o-3-kana";
layers = (
{
backgroundImage = {
imagePath = "_sketch/u1B016.png";
locked = 1;
pos = (0,-120);
};
layerId = m01;
shapes = (
{
closed = 1;
nodes = (
(454,711,l),
(571,698,o),
(727,718,o),
(813,739,c),
(804,754,l),
(712,685,o),
(576,603,o),
(469,529,c),
(482,511,l),
(588,583,o),
(725,664,o),
(833,744,c),
(821,768,l),
(723,744,o),
(569,724,o),
(452,740,c)
);
},
{
closed = 1;
nodes = (
(676,400,l),
(706,411,o),
(733,422,o),
(769,422,c),
(814,422,o),
(854,404,o),
(854,354,c),
(854,277,o),
(766,246,o),
(646,246,c),
(600,246,o),
(592,262,o),
(592,271,c),
(592,282,o),
(608,304,o),
(643,304,c),
(662,304,o),
(681,296,o),
(681,273,c),
(681,261,o),
(665,246,o),
(638,242,c),
(662,226,l),
(687,229,o),
(711,244,o),
(711,272,c),
(711,311,o),
(677,330,o),
(643,330,c),
(598,330,o),
(562,305,o),
(562,271,c),
(562,241,o),
(594,220,o),
(646,220,c),
(771,220,o),
(884,254,o),
(884,354,c),
(884,422,o),
(829,445,o),
(776,445,c),
(728,445,o),
(691,428,o),
(663,412,c)
);
},
{
closed = 1;
nodes = (
(445,487,l),
(558,554,o),
(658,586,o),
(734,586,c),
(775,586,o),
(801,572,o),
(801,542,c),
(801,491,o),
(738,452,o),
(607,395,c),
(541,367,o),
(461,334,o),
(368,296,c),
(379,271,l),
(471,311,o),
(551,343,o),
(617,372,c),
(749,430,o),
(831,472,o),
(831,542,c),
(831,598,o),
(784,611,o),
(734,611,c),
(643,611,o),
(504,554,o),
(431,511,c)
);
},
{
closed = 1;
nodes = (
(633,234,l),
(551,193,o),
(485,133,o),
(485,84,c),
(485,29,o),
(523,8,o),
(643,8,c),
(708,8,o),
(825,18,o),
(877,22,c),
(879,48,l),
(822,44,o),
(705,34,o),
(643,34,c),
(543,34,o),
(515,48,o),
(515,85,c),
(515,117,o),
(551,167,o),
(678,231,c)
);
},
{
closed = 1;
nodes = (
(90,639,l),
(181,657,o),
(278,684,o),
(360,714,c),
(345,733,l),
(226,569,o),
(177,336,o),
(177,-15,c),
(207,-15,l),
(207,333,o),
(253,561,o),
(367,717,c),
(351,738,l),
(271,709,o),
(175,682,o),
(85,668,c)
);
}
);
width = 1000;
},
{
layerId = "027B829E-3619-44FF-8C68-78647B0AD671";
shapes = (
{
closed = 1;
nodes = (
(448,672,l),
(577,670,o),
(738,691,o),
(846,717,c),
(822,782,l),
(707,712,o),
(558,641,o),
(440,575,c),
(497,491,l),
(609,560,o),
(754,637,o),
(872,715,c),
(820,824,l),
(724,800,o),
(566,782,o),
(441,802,c)
);
},
{
closed = 1;
nodes = (
(698,353,l),
(732,364,o),
(750,374,o),
(769,375,c),
(793,375,o),
(805,366,o),
(805,338,c),
(805,299,o),
(773,251,o),
(650,251,c),
(632,251,o),
(616,260,o),
(616,274,c),
(616,283,o),
(630,291,o),
(647,291,c),
(663,291,o),
(677,285,o),
(677,270,c),
(677,254,o),
(665,249,o),
(616,242,c),
(669,181,l),
(724,188,o),
(773,209,o),
(773,268,c),
(773,335,o),
(693,363,o),
(647,363,c),
(587,363,o),
(520,337,o),
(520,268,c),
(520,207,o),
(584,167,o),
(650,167,c),
(788,167,o),
(932,223,o),
(932,341,c),
(932,444,o),
(837,468,o),
(777,468,c),
(729,476,o),
(694,459,o),
(637,439,c)
);
},
{
closed = 1;
nodes = (
(470,446,l),
(606,527,o),
(688,551,o),
(720,551,c),
(741,551,o),
(750,542,o),
(750,530,c),
(750,515,o),
(741,507,o),
(590,441,c),
(524,412,o),
(441,379,o),
(332,351,c),
(397,216,l),
(490,261,o),
(572,295,o),
(641,325,c),
(779,385,o),
(900,424,o),
(900,547,c),
(900,654,o),
(788,661,o),
(726,661,c),
(621,661,o),
(486,609,o),
(402,560,c)
);
},
{
closed = 1;
nodes = (
(587,246,l),
(486,201,o),
(425,146,o),
(425,86,c),
(425,-26,o),
(496,-37,o),
(647,-37,c),
(719,-37,o),
(839,-29,o),
(892,-26,c),
(893,107,l),
(828,103,o),
(707,94,o),
(640,94,c),
(589,94,o),
(575,100,o),
(575,106,c),
(575,126,o),
(582,141,o),
(707,197,c)
);
},
{
closed = 1;
nodes = (
(58,602,l),
(185,632,o),
(287,661,o),
(375,695,c),
(294,762,l),
(179,597,o),
(108,339,o),
(108,-46,c),
(258,-46,l),
(258,326,o),
(302,560,o),
(409,715,c),
(331,806,l),
(252,776,o),
(155,748,o),
(38,737,c)
);
}
);
width = 1000;
},
{
layerId = "22BF860B-E605-42C1-AA52-30D9AB94E7CE";
shapes = (
{
closed = 1;
nodes = (
(449,688,l),
(573,680,o),
(729,701,o),
(829,725,c),
(813,773,l),
(704,697,o),
(565,619,o),
(455,549,c),
(491,498,l),
(597,568,o),
(736,647,o),
(846,726,c),
(816,788,l),
(720,765,o),
(566,746,o),
(452,764,c)
);
},
{
closed = 1;
nodes = (
(683,381,l),
(714,392,o),
(737,402,o),
(769,402,c),
(808,402,o),
(829,390,o),
(829,354,c),
(829,296,o),
(763,267,o),
(644,267,c),
(625,267,o),
(614,273,o),
(614,279,c),
(614,285,o),
(617,291,o),
(633,291,c),
(652,291,o),
(656,280,o),
(656,272,c),
(656,266,o),
(654,262,o),
(631,259,c),
(687,218,l),
(687,218,o),
(731,225,o),
(731,277,c),
(731,320,o),
(683,351,o),
(643,351,c),
(590,351,o),
(537,325,o),
(537,271,c),
(537,224,o),
(589,200,o),
(646,200,c),
(775,200,o),
(909,235,o),
(909,354,c),
(909,436,o),
(828,469,o),
(769,469,c),
(723,469,o),
(689,454,o),
(661,444,c)
);
},
{
closed = 1;
nodes = (
(449,464,l),
(584,544,o),
(662,568,o),
(720,568,c),
(757,568,o),
(776,557,o),
(776,534,c),
(776,491,o),
(727,474,o),
(597,417,c),
(532,388,o),
(452,356,o),
(358,317,c),
(383,247,l),
(479,291,o),
(559,323,o),
(626,352,c),
(758,410,o),
(856,450,o),
(856,542,c),
(856,615,o),
(774,630,o),
(714,630,c),
(631,630,o),
(496,575,o),
(420,530,c)
);
},
{
closed = 1;
nodes = (
(642,260,l),
(527,202,o),
(454,141,o),
(454,79,c),
(454,-7,o),
(537,-16,o),
(643,-16,c),
(710,-16,o),
(827,-6,o),
(879,-2,c),
(879,77,l),
(820,72,o),
(703,58,o),
(643,58,c),
(546,58,o),
(534,64,o),
(534,91,c),
(534,113,o),
(567,156,o),
(714,230,c)
);
},
{
closed = 1;
nodes = (
(98,631,l),
(186,656,o),
(284,684,o),
(367,716,c),
(329,763,l),
(206,586,o),
(152,337,o),
(152,-34,c),
(232,-34,l),
(232,330,o),
(277,564,o),
(387,723,c),
(343,777,l),
(265,746,o),
(170,719,o),
(81,707,c)
);
}
);
width = 1000;
}
);
production = u1B016;
script = hentaigana;
unicode = 110614;
}
{
category = Letter;
color = 10;
glyphname = "ka-1-kana";
layers = (
{
backgroundImage = {
imagePath = "_sketch/u1B017.png";
locked = 1;
pos = (0,-120);
};
layerId = m01;
shapes = (
{
closed = 1;
nodes = (
(358,539,l),
(533,583,o),
(737,598,o),
(882,592,c),
(883,618,l),
(736,624,o),
(530,609,o),
(351,565,c)
);
},
{
closed = 1;
nodes = (
(539,793,l),
(542,761,o),
(542,730,o),
(542,698,c),
(542,607,o),
(542,515,o),
(542,424,c),
(572,424,l),
(572,515,o),
(572,607,o),
(572,698,c),
(572,729,o),
(572,761,o),
(574,793,c)
);
},
{
closed = 1;
nodes = (
(458,445,o),
(399,386,o),
(399,297,c),
(399,233,o),
(432,182,o),
(496,182,c),
(569,182,o),
(609,259,o),
(609,334,c),
(609,387,o),
(589,445,o),
(520,445,c)
);
},
{
closed = 1;
nodes = (
(567,419,o),
(579,376,o),
(579,334,c),
(579,268,o),
(551,208,o),
(496,208,c),
(446,208,o),
(429,247,o),
(429,297,c),
(429,374,o),
(475,419,o),
(520,419,c)
);
},
{
closed = 1;
nodes = (
(496,201,l),
(483,148,o),
(477,104,o),
(477,66,c),
(477,-14,o),
(537,-22,o),
(623,-22,c),
(784,-22,o),
(844,-1,o),
(844,131,c),
(844,170,o),
(840,211,o),
(836,265,c),
(803,271,l),
(811,207,o),
(814,175,o),
(814,131,c),
(814,14,o),
(757,6,o),
(623,6,c),
(552,6,o),
(507,12,o),
(507,66,c),
(507,101,o),
(512,143,o),
(524,194,c)
);
},
{
closed = 1;
nodes = (
(771,497,l),
(813,465,o),
(873,394,o),
(919,317,c),
(937,342,l),
(896,412,o),
(835,483,o),
(788,519,c)
);
},
{
closed = 1;
nodes = (
(329,794,l),
(319,757,o),
(303,721,o),
(284,680,c),
(233,573,o),
(171,473,o),
(53,360,c),
(70,339,l),
(133,385,o),
(159,393,o),
(175,393,c),
(204,393,o),
(221,377,o),
(221,319,c),
(221,208,o),
(200,30,o),
(195,-37,c),
(228,-40,l),
(240,57,o),
(287,175,o),
(313,251,c),
(291,263,l),
(264,185,o),
(215,66,o),
(204,-27,c),
(221,-39,l),
(226,27,o),
(251,204,o),
(251,319,c),
(251,383,o),
(230,419,o),
(177,419,c),
(141,419,o),
(93,385,o),
(75,366,c),
(78,353,l),
(189,458,o),
(258,558,o),
(310,668,c),
(329,709,o),
(345,746,o),
(360,783,c)
);
}
);
width = 1000;
},
{
background = {
shapes = (
{
closed = 1;
nodes = (
(171,377,o),
(202,423,o),
(241,423,cs),
(275,423,o),
(287,395,o),
(287,358,cs),
(287,304,o),
(268,253,o),
(227,253,cs),
(191,253,o),
(171,287,o),
(171,321,cs)
);
},
{
closed = 1;
nodes = (
(398,684,ls),
(405,720,o),
(422,729,o),
(422,754,cs),
(422,779,o),
(356,817,o),
(301,817,cs),
(266,817,o),
(245,807,o),
(220,793,c),
(221,782,l),
(242,773,o),
(257,765,o),
(269,756,cs),
(282,746,o),
(284,738,o),
(284,717,cs),
(284,640,l),
(245,631,o),
(203,622,o),
(176,622,cs),
(133,622,o),
(111,629,o),
(63,666,c),
(53,659,l),
(78,570,o),
(111,529,o),
(184,529,cs),
(215,529,o),
(248,532,o),
(282,537,c),
(281,472,l),
(275,472,o),
(270,472,o),
(264,472,cs),
(174,472,o),
(104,380,o),
(104,282,cs),
(104,211,o),
(161,144,o),
(235,135,c),
(233,118,o),
(231,101,o),
(231,82,cs),
(231,-11,o),
(293,-65,o),
(490,-65,cs),
(701,-65,o),
(805,0,o),
(805,82,cs),
(805,126,o),
(785,139,o),
(750,234,cs),
(730,288,o),
(710,406,o),
(710,454,cs),
(710,531,o),
(731,551,o),
(757,551,cs),
(789,551,o),
(840,495,o),
(840,451,cs),
(840,437,o),
(836,429,o),
(826,421,cs),
(811,409,o),
(783,393,o),
(759,380,c),
(763,368,l),
(867,380,o),
(859,328,o),
(911,328,cs),
(966,328,o),
(971,372,o),
(971,408,cs),
(971,521,o),
(867,601,o),
(782,601,cs),
(715,601,o),
(667,556,o),
(667,451,cs),
(667,383,o),
(672,255,o),
(672,200,cs),
(672,126,o),
(653,104,o),
(616,84,cs),
(583,66,o),
(531,53,o),
(455,53,cs),
(366,53,o),
(311,64,o),
(311,110,cs),
(311,126,o),
(316,145,o),
(323,166,c),
(371,215,o),
(392,309,o),
(392,365,cs),
(392,403,o),
(381,429,o),
(360,446,c),
(365,483,o),
(370,521,o),
(376,556,c),
(428,569,o),
(476,584,o),
(509,596,cs),
(558,614,o),
(570,635,o),
(570,655,cs),
(570,704,o),
(526,709,o),
(484,709,cs),
(482,709,o),
(440,690,o),
(396,674,c)
);
}
);
};
layerId = "027B829E-3619-44FF-8C68-78647B0AD671";
shapes = (
{
closed = 1;
nodes = (
(345,491,l),
(546,539,o),
(764,556,o),
(915,550,c),
(920,673,l),
(756,680,o),
(531,666,o),
(332,619,c)
);
},
{
closed = 1;
nodes = (
(477,824,l),
(483,790,o),
(483,756,o),
(483,722,c),
(483,623,o),
(483,524,o),
(483,425,c),
(633,425,l),
(633,524,o),
(633,623,o),
(633,722,c),
(633,756,o),
(633,790,o),
(639,824,c)
);
},
{
closed = 1;
nodes = (
(410,486,o),
(347,407,o),
(347,295,c),
(347,202,o),
(391,137,o),
(496,137,c),
(613,137,o),
(661,221,o),
(661,333,c),
(661,394,o),
(613,486,o),
(536,486,c)
);
},
{
closed = 1;
nodes = (
(539,368,o),
(547,358,o),
(547,321,c),
(547,274,o),
(529,242,o),
(502,242,c),
(484,242,o),
(475,256,o),
(475,289,c),
(475,342,o),
(499,368,o),
(521,368,c)
);
},
{
closed = 1;
nodes = (
(441,222,l),
(427,167,o),
(418,120,o),
(418,76,c),
(418,-60,o),
(492,-68,o),
(637,-68,c),
(854,-68,o),
(912,-7,o),
(912,139,c),
(912,181,o),
(908,229,o),
(907,241,c),
(747,288,l),
(761,218,o),
(765,175,o),
(765,149,c),
(765,78,o),
(751,76,o),
(627,76,c),
(575,76,o),
(565,80,o),
(565,103,c),
(565,120,o),
(559,146,o),
(579,227,c)
);
},
{
closed = 1;
nodes = (
(750,462,l),
(805,420,o),
(843,363,o),
(893,280,c),
(995,367,l),
(949,445,o),
(889,502,o),
(842,538,c)
);
},
{
closed = 1;
nodes = (
(265,827,l),
(260,790,o),
(246,755,o),
(226,713,c),
(176,607,o),
(119,511,o),
(3,399,c),
(94,287,l),
(117,329,o),
(146,358,o),
(159,358,c),
(166,358,o),
(169,347,o),
(169,323,c),
(169,207,o),
(143,13,o),
(139,-45,c),
(278,-59,l),
(288,27,o),
(324,150,o),
(357,246,c),
(310,296,l),
(268,174,o),
(236,46,o),
(228,-16,c),
(245,-54,l),
(250,13,o),
(293,194,o),
(293,317,c),
(293,430,o),
(252,454,o),
(211,454,c),
(113,454,o),
(70,425,o),
(49,349,c),
(85,316,l),
(210,436,o),
(300,535,o),
(355,652,c),
(375,696,o),
(392,736,o),
(415,775,c)
);
}
);
width = 1000;
},
{
layerId = "22BF860B-E605-42C1-AA52-30D9AB94E7CE";
shapes = (
{
closed = 1;
nodes = (
(349,520,l),
(531,564,o),
(744,579,o),
(894,573,c),
(897,637,l),
(741,643,o),
(524,629,o),
(334,583,c)
);
},
{
closed = 1;
nodes = (
(513,811,l),
(518,778,o),
(518,745,o),
(518,712,c),
(518,616,o),
(518,520,o),
(518,424,c),
(595,424,l),
(595,520,o),
(595,616,o),
(595,712,c),
(595,745,o),
(595,778,o),
(600,811,c)
);
},
{
closed = 1;
nodes = (
(437,465,o),
(375,402,o),
(375,297,c),
(375,228,o),
(413,163,o),
(496,163,c),
(591,163,o),
(633,240,o),
(633,334,c),
(633,398,o),
(598,465,o),
(520,465,c)
);
},
{
closed = 1;
nodes = (
(548,400,o),
(556,369,o),
(556,327,c),
(556,276,o),
(533,227,o),
(496,227,c),
(467,227,o),
(452,253,o),
(452,297,c),
(452,366,o),
(483,400,o),
(512,400,c)
);
},
{
closed = 1;
nodes = (
(474,196,l),
(461,143,o),
(454,97,o),
(454,56,c),
(454,-34,o),
(519,-53,o),
(623,-53,c),
(810,-53,o),
(867,-23,o),
(867,121,c),
(867,161,o),
(862,225,o),
(861,251,c),
(780,263,l),
(785,216,o),
(790,176,o),
(790,121,c),
(790,27,o),
(761,17,o),
(623,17,c),
(561,17,o),
(531,18,o),
(531,56,c),
(531,88,o),
(535,129,o),
(554,205,c)
);
},
{
closed = 1;
nodes = (
(753,485,l),
(797,452,o),
(856,381,o),
(905,298,c),
(954,356,l),
(913,425,o),
(852,497,o),
(800,536,c)
);
},
{
closed = 1;
nodes = (
(306,802,l),
(298,765,o),
(283,730,o),
(264,689,c),
(214,584,o),
(155,487,o),
(38,375,c),
(89,312,l),
(128,352,o),
(139,370,o),
(169,370,c),
(192,370,o),
(198,360,o),
(198,319,c),
(198,210,o),
(178,33,o),
(171,-59,c),
(259,-64,l),
(272,45,o),
(309,165,o),
(333,235,c),
(291,263,l),
(264,184,o),
(219,65,o),
(206,-37,c),
(232,-40,l),
(237,26,o),
(275,202,o),
(275,319,c),
(275,413,o),
(247,437,o),
(197,437,c),
(143,437,o),
(91,411,o),
(70,371,c),
(80,331,l),
(202,448,o),
(277,547,o),
(330,658,c),
(349,700,o),
(366,738,o),
(384,775,c)
);
}
);
width = 1000;
}
);
production = u1B017;
script = hentaigana;
unicode = 110615;
}
{
category = Letter;
color = 2;
glyphname = "ka-2-kana";
layers = (
{
backgroundImage = {
imagePath = "_sketch/u1B018.png";
locked = 1;
pos = (0,-120);
};
layerId = m01;
shapes = (
{
closed = 1;
nodes = (
(94,461,l),
(231,498,o),
(372,534,o),
(432,534,c),
(492,534,o),
(511,510,o),
(511,395,c),
(511,208,o),
(448,76,o),
(362,29,c),
(379,26,l),
(342,73,o),
(301,109,o),
(266,144,c),
(246,124,l),
(282,88,o),
(322,53,o),
(357,9,c),
(374,5,l),
(475,59,o),
(541,202,o),
(541,395,c),
(541,515,o),
(501,560,o),
(432,560,c),
(362,560,o),
(224,523,o),
(87,487,c)
);
},
{
closed = 1;
nodes = (
(397,783,l),
(385,719,o),
(369,655,o),
(351,590,c),
(295,392,o),
(212,191,o),
(78,-10,c),
(101,-25,l),
(237,178,o),
(323,381,o),
(380,583,c),
(398,648,o),
(413,713,o),
(426,778,c)
);
},
{
closed = 1;
nodes = (
(594,573,l),
(645,500,o),
(657,438,o),
(657,310,c),
(687,310,l),
(687,471,o),
(729,548,o),
(790,548,c),
(856,548,o),
(894,514,o),
(894,364,c),
(894,203,o),
(805,106,o),
(643,33,c),
(654,8,l),
(821,84,o),
(924,191,o),
(924,364,c),
(924,521,o),
(867,574,o),
(790,574,c),
(708,574,o),
(657,477,o),
(657,310,c),
(687,310,l),
(686,440,o),
(672,512,o),
(617,589,c)
);
}
);
width = 1000;
},
{
background = {
shapes = (
{
closed = 1;
nodes = (
(475,633,ls),
(491,671,o),
(524,688,o),
(524,719,cs),
(524,759,o),
(422,802,o),
(373,802,cs),
(323,802,o),
(292,784,o),
(269,770,c),
(269,758,l),
(298,751,o),
(325,742,o),
(342,730,cs),
(352,723,o),
(357,712,o),
(357,698,cs),
(357,676,o),
(345,623,o),
(321,554,c),
(244,540,o),
(180,526,o),
(146,526,cs),
(122,526,o),
(107,542,o),
(85,577,c),
(74,574,l),
(64,553,o),
(53,532,o),
(58,499,cs),
(65,453,o),
(116,395,o),
(147,395,cs),
(176,395,o),
(197,406,o),
(225,419,cs),
(241,427,o),
(260,435,o),
(280,444,c),
(268,414,o),
(255,383,o),
(240,352,cs),
(195,255,o),
(135,164,o),
(89,108,cs),
(68,82,o),
(63,69,o),
(63,33,cs),
(63,-13,o),
(92,-42,o),
(122,-42,cs),
(155,-42,o),
(174,-31,o),
(199,14,cs),
(232,74,o),
(301,219,o),
(342,314,cs),
(362,361,o),
(392,432,o),
(419,497,c),
(444,504,o),
(465,509,o),
(481,509,cs),
(523,509,o),
(540,483,o),
(540,439,cs),
(540,346,o),
(516,194,o),
(461,132,cs),
(446,116,o),
(433,106,o),
(400,106,cs),
(372,106,o),
(336,119,o),
(287,141,c),
(279,129,l),
(324,75,o),
(330,67,o),
(334,45,cs),
(346,-15,o),
(365,-32,o),
(407,-32,cs),
(458,-32,o),
(509,-9,o),
(542,25,cs),
(623,109,o),
(651,255,o),
(651,386,cs),
(651,527,o),
(594,579,o),
(511,579,cs),
(494,579,o),
(473,577,o),
(451,575,c)
);
},
{
closed = 1;
nodes = (
(678,572,l),
(726,557,o),
(761,526,o),
(786,483,cs),
(811,440,o),
(818,391,o),
(818,361,cs),
(818,333,o),
(806,321,o),
(783,311,cs),
(763,302,o),
(745,296,o),
(699,283,c),
(702,268,l),
(737,265,o),
(784,253,o),
(806,243,cs),
(841,227,o),
(845,192,o),
(883,193,cs),
(934,194,o),
(961,242,o),
(961,312,cs),
(961,390,o),
(936,463,o),
(870,521,cs),
(815,570,o),
(738,588,o),
(681,587,c)
);
}
);
};
layerId = "027B829E-3619-44FF-8C68-78647B0AD671";
shapes = (
{
closed = 1;
nodes = (
(95,415,l),
(235,455,o),
(386,491,o),
(430,491,c),
(474,491,o),
(452,504,o),
(452,396,c),
(452,217,o),
(396,98,o),
(333,64,c),
(418,49,l),
(376,102,o),
(332,141,o),
(296,175,c),
(201,78,l),
(239,40,o),
(277,5,o),
(310,-37,c),
(395,-52,l),
(525,18,o),
(602,183,o),
(602,396,c),
(602,529,o),
(518,614,o),
(430,614,c),
(340,614,o),
(204,574,o),
(62,538,c)
);
},
{
closed = 1;
nodes = (
(337,807,l),
(325,742,o),
(310,677,o),
(291,612,c),
(235,412,o),
(153,211,o),
(19,9,c),
(135,-68,l),
(279,147,o),
(372,361,o),
(431,573,c),
(451,642,o),
(467,710,o),
(481,778,c)
);
},
{
closed = 1;
nodes = (
(551,547,l),
(597,480,o),
(604,436,o),
(602,308,c),
(752,308,l),
(752,462,o),
(775,505,o),
(799,505,c),
(847,505,o),
(846,506,o),
(846,363,c),
(846,220,o),
(784,140,o),
(626,69,c),
(680,-50,l),
(861,32,o),
(996,163,o),
(996,363,c),
(996,537,o),
(897,628,o),
(799,628,c),
(675,628,o),
(602,491,o),
(602,308,c),
(752,308,l),
(749,446,o),
(730,539,o),
(666,627,c)
);
}
);
width = 1000;
},
{
layerId = "22BF860B-E605-42C1-AA52-30D9AB94E7CE";
shapes = (
{
closed = 1;
nodes = (
(101,438,l),
(236,478,o),
(380,514,o),
(432,514,c),
(470,514,o),
(487,506,o),
(487,395,c),
(487,214,o),
(423,92,o),
(349,52,c),
(397,40,l),
(357,87,o),
(314,123,o),
(278,157,c),
(238,101,l),
(267,72,o),
(306,37,o),
(339,-5,c),
(385,-14,l),
(496,46,o),
(564,196,o),
(564,395,c),
(564,519,o),
(537,581,o),
(443,581,c),
(354,581,o),
(219,543,o),
(81,510,c)
);
},
{
closed = 1;
nodes = (
(370,789,l),
(362,724,o),
(347,660,o),
(330,597,c),
(274,400,o),
(189,203,o),
(57,4,c),
(119,-37,l),
(256,168,o),
(344,373,o),
(401,576,c),
(420,642,o),
(435,708,o),
(454,772,c)
);
},
{
closed = 1;
nodes = (
(576,560,l),
(624,490,o),
(634,437,o),
(633,310,c),
(710,310,l),
(710,467,o),
(744,529,o),
(794,529,c),
(834,529,o),
(870,510,o),
(870,364,c),
(870,212,o),
(791,126,o),
(620,48,c),
(657,-12,l),
(833,67,o),
(947,182,o),
(947,364,c),
(947,525,o),
(881,592,o),
(800,592,c),
(693,592,o),
(652,478,o),
(652,330,c),
(692,331,l),
(699,441,o),
(687,518,o),
(635,602,c)
);
}
);
width = 1000;
}
);
production = u1B018;
script = hentaigana;
unicode = 110616;
}
{
category = Letter;
color = 2;
glyphname = "ka-3-kana";
layers = (
{
backgroundImage = {
imagePath = "_sketch/u1B019.png";
locked = 1;
pos = (0,-120);
};
layerId = m01;
shapes = (
{
closed = 1;
nodes = (
(288,798,l),
(392,709,o),
(550,675,o),
(726,675,c),
(726,701,l),
(553,701,o),
(402,737,o),
(306,819,c)
);
},
{
closed = 1;
nodes = (
(488,549,l),
(476,441,o),
(406,304,o),
(343,238,c),
(293,186,o),
(266,177,o),
(248,177,c),
(225,177,o),
(204,206,o),
(204,279,c),
(204,442,o),
(372,537,o),
(523,537,c),
(700,537,o),
(805,475,o),
(805,305,c),
(805,149,o),
(667,34,o),
(463,-3,c),
(467,-29,l),
(680,9,o),
(835,132,o),
(835,305,c),
(835,489,o),
(706,563,o),
(523,563,c),
(361,563,o),
(174,462,o),
(174,279,c),
(174,199,o),
(204,151,o),
(248,151,c),
(275,151,o),
(311,164,o),
(363,219,c),
(432,291,o),
(504,428,o),
(518,545,c)
);
}
);
width = 1000;
},
{
layerId = "027B829E-3619-44FF-8C68-78647B0AD671";
shapes = (
{
closed = 1;
nodes = (
(247,770,l),
(369,665,o),
(545,635,o),
(732,635,c),
(732,758,l),
(561,758,o),
(418,801,o),
(335,872,c)
);
},
{
closed = 1;
nodes = (
(430,560,l),
(419,468,o),
(352,327,o),
(299,271,c),
(253,223,o),
(243,219,o),
(240,219,c),
(240,219,o),
(254,214,o),
(254,276,c),
(254,403,o),
(388,494,o),
(524,494,c),
(694,494,o),
(754,452,o),
(754,302,c),
(754,178,o),
(650,69,o),
(453,34,c),
(475,-90,l),
(708,-48,o),
(904,89,o),
(904,302,c),
(904,518,o),
(725,617,o),
(524,617,c),
(337,617,o),
(104,506,o),
(104,276,c),
(104,180,o),
(158,96,o),
(240,96,c),
(285,96,o),
(339,115,o),
(398,177,c),
(480,262,o),
(560,404,o),
(577,543,c)
);
}
);
width = 1000;
},
{
layerId = "22BF860B-E605-42C1-AA52-30D9AB94E7CE";
shapes = (
{
closed = 1;
nodes = (
(275,783,l),
(384,689,o),
(547,654,o),
(726,654,c),
(742,721,l),
(556,721,o),
(409,757,o),
(319,834,c)
);
},
{
closed = 1;
nodes = (
(463,551,l),
(452,452,o),
(384,315,o),
(334,262,c),
(301,227,o),
(278,207,o),
(262,207,c),
(233,207,o),
(223,242,o),
(223,279,c),
(223,439,o),
(380,517,o),
(523,517,c),
(679,517,o),
(779,464,o),
(779,305,c),
(779,165,o),
(656,57,o),
(439,18,c),
(471,-49,l),
(689,-10,o),
(860,116,o),
(860,305,c),
(860,500,o),
(711,583,o),
(523,583,c),
(353,583,o),
(148,480,o),
(148,279,c),
(148,194,o),
(185,125,o),
(248,125,c),
(284,125,o),
(325,146,o),
(379,203,c),
(453,280,o),
(528,417,o),
(543,542,c)
);
}
);
width = 1000;
}
);
production = u1B019;
script = hentaigana;
unicode = 110617;
}
{
category = Letter;
color = 10;
glyphname = "ka-4-kana";
layers = (
{
backgroundImage = {
imagePath = "_sketch/u1B01A.png";
locked = 1;
pos = (0,-120);
};
layerId = m01;
shapes = (
{
closed = 1;
nodes = (
(404,808,l),
(476,772,o),
(519,720,o),
(519,667,c),
(519,603,o),
(434,523,o),
(194,436,c),
(206,409,l),
(323,466,o),
(411,505,o),
(528,505,c),
(637,505,o),
(713,432,o),
(713,303,c),
(713,158,o),
(568,26,o),
(340,-30,c),
(351,-55,l),
(581,2,o),
(743,138,o),
(743,303,c),
(743,450,o),
(656,531,o),
(528,531,c),
(406,531,o),
(314,484,o),
(212,434,c),
(218,429,l),
(440,510,o),
(549,578,o),
(549,667,c),
(549,736,o),
(493,793,o),
(423,829,c)
);
}
);
width = 1000;
},
{
layerId = "027B829E-3619-44FF-8C68-78647B0AD671";
shapes = (
{
closed = 1;
nodes = (
(357,741,l),
(427,708,o),
(473,691,o),
(473,643,c),
(473,597,o),
(383,543,o),
(173,473,c),
(216,361,l),
(335,413,o),
(415,459,o),
(519,459,c),
(626,459,o),
(660,400,o),
(660,329,c),
(660,223,o),
(543,112,o),
(300,58,c),
(357,-72,l),
(642,-9,o),
(810,111,o),
(810,309,c),
(810,470,o),
(717,570,o),
(529,570,c),
(394,570,o),
(320,497,o),
(218,451,c),
(228,421,l),
(443,492,o),
(610,507,o),
(610,647,c),
(610,749,o),
(523,808,o),
(435,848,c)
);
}
);
width = 1000;
},
{
layerId = "22BF860B-E605-42C1-AA52-30D9AB94E7CE";
shapes = (
{
closed = 1;
nodes = (
(382,797,l),
(463,756,o),
(496,721,o),
(496,667,c),
(496,622,o),
(425,541,o),
(188,454,c),
(216,388,l),
(332,444,o),
(415,486,o),
(528,486,c),
(628,486,o),
(689,422,o),
(689,303,c),
(689,173,o),
(556,49,o),
(319,-10,c),
(355,-74,l),
(591,-15,o),
(766,123,o),
(766,303,c),
(766,455,o),
(677,549,o),
(528,549,c),
(402,549,o),
(311,493,o),
(222,450,c),
(233,427,l),
(443,504,o),
(573,579,o),
(573,667,c),
(573,749,o),
(506,809,o),
(432,847,c)
);
}
);
width = 1000;
}
);
production = u1B01A;
script = hentaigana;
unicode = 110618;
}
{
category = Letter;
color = 2;
glyphname = "ka-5-kana";
layers = (
{
backgroundImage = {
imagePath = "_sketch/u1B01B.png";
locked = 1;
pos = (0,-120);
};
layerId = m01;
shapes = (
{
closed = 1;
nodes = (
(186,663,l),
(262,651,o),
(347,645,o),
(434,645,c),
(558,645,o),
(687,657,o),
(799,675,c),
(794,701,l),
(684,682,o),
(557,671,o),
(434,671,c),
(348,671,o),
(265,677,o),
(191,689,c)
);
},
{
closed = 1;
nodes = (
(470,797,l),
(470,760,o),
(470,724,o),
(470,687,c),
(470,659,o),
(470,631,o),
(470,603,c),
(470,534,o),
(533,524,o),
(599,524,c),
(595,549,l),
(401,489,l),
(409,463,l),
(603,524,l),
(599,550,l),
(534,550,o),
(500,550,o),
(500,603,c),
(500,631,o),
(500,659,o),
(500,687,c),
(500,724,o),
(500,760,o),
(500,797,c)
);
},
{
closed = 1;
nodes = (
(92,272,l),
(198,299,o),
(342,332,o),
(399,332,c),
(437,332,o),
(454,320,o),
(454,268,c),
(454,174,o),
(403,68,o),
(336,-3,c),
(359,-6,l),
(339,37,o),
(310,76,o),
(280,107,c),
(260,87,l),
(288,59,o),
(314,22,o),
(333,-18,c),
(356,-22,l),
(428,54,o),
(484,163,o),
(484,268,c),
(484,330,o),
(445,358,o),
(399,358,c),
(332,358,o),
(192,324,o),
(86,298,c)
);
},
{
closed = 1;
nodes = (
(321,461,l),
(312,427,o),
(301,394,o),
(288,360,c),
(241,241,o),
(170,121,o),
(73,1,c),
(95,-17,l),
(193,105,o),
(267,227,o),
(315,350,c),
(328,384,o),
(340,419,o),
(349,453,c)
);
},
{
closed = 1;
nodes = (
(562,386,l),
(613,313,o),
(619,248,o),
(619,160,c),
(649,159,l),
(666,325,o),
(715,372,o),
(782,372,c),
(829,372,o),
(880,337,o),
(880,219,c),
(880,83,o),
(803,32,o),
(658,-7,c),
(665,-33,l),
(814,7,o),
(910,70,o),
(910,219,c),
(910,347,o),
(843,398,o),
(782,398,c),
(702,398,o),
(637,334,o),
(619,162,c),
(649,160,l),
(649,250,o),
(641,324,o),
(585,402,c)
);
}
);
width = 1000;
},
{
layerId = "027B829E-3619-44FF-8C68-78647B0AD671";
shapes = (
{
closed = 1;
nodes = (
(169,623,l),
(251,611,o),
(341,605,o),
(432,605,c),
(563,605,o),
(698,617,o),
(816,635,c),
(795,759,l),
(685,740,o),
(556,728,o),
(432,728,c),
(346,728,o),
(262,734,o),
(189,747,c)
);
},
{
closed = 1;
nodes = (
(410,809,l),
(410,772,o),
(410,734,o),
(410,696,c),
(410,667,o),
(410,639,o),
(410,610,c),
(410,507,o),
(531,480,o),
(602,480,c),
(583,602,l),
(383,540,l),
(422,417,l),
(621,480,l),
(602,603,l),
(538,603,o),
(560,587,o),
(560,610,c),
(560,638,o),
(560,668,o),
(560,696,c),
(560,734,o),
(560,772,o),
(560,809,c)
);
},
{
closed = 1;
nodes = (
(92,221,l),
(200,249,o),
(355,283,o),
(396,283,c),
(419,283,o),
(393,298,o),
(393,265,c),
(393,190,o),
(352,87,o),
(292,23,c),
(406,6,l),
(382,58,o),
(347,100,o),
(312,136,c),
(214,41,l),
(238,16,o),
(261,-20,o),
(277,-54,c),
(391,-71,l),
(473,16,o),
(543,135,o),
(543,265,c),
(543,348,o),
(459,406,o),
(396,406,c),
(310,406,o),
(171,369,o),
(61,344,c)
);
},
{
closed = 1;
nodes = (
(260,479,l),
(252,446,o),
(241,413,o),
(228,381,c),
(183,264,o),
(114,144,o),
(17,24,c),
(125,-63,l),
(229,66,o),
(310,195,o),
(362,328,c),
(377,365,o),
(389,403,o),
(400,440,c)
);
},
{
closed = 1;
nodes = (
(519,354,l),
(564,291,o),
(563,241,o),
(563,154,c),
(712,146,l),
(728,306,o),
(746,324,o),
(791,324,c),
(813,324,o),
(832,317,o),
(832,214,c),
(832,98,o),
(792,68,o),
(649,29,c),
(683,-94,l),
(843,-51,o),
(982,37,o),
(982,214,c),
(982,365,o),
(879,447,o),
(791,447,c),
(684,447,o),
(584,351,o),
(564,161,c),
(713,154,l),
(713,249,o),
(698,343,o),
(633,435,c)
);
}
);
width = 1000;
},
{
layerId = "22BF860B-E605-42C1-AA52-30D9AB94E7CE";
shapes = (
{
closed = 1;
nodes = (
(183,641,l),
(261,632,o),
(346,627,o),
(434,627,c),
(559,627,o),
(689,638,o),
(802,654,c),
(798,723,l),
(682,701,o),
(556,690,o),
(434,690,c),
(349,690,o),
(266,695,o),
(194,710,c)
);
},
{
closed = 1;
nodes = (
(444,797,l),
(447,760,o),
(447,724,o),
(447,687,c),
(447,659,o),
(447,631,o),
(447,603,c),
(447,522,o),
(532,505,o),
(599,505,c),
(589,568,l),
(396,504,l),
(421,450,l),
(609,505,l),
(599,568,l),
(533,568,o),
(524,573,o),
(524,603,c),
(524,631,o),
(524,659,o),
(524,687,c),
(524,724,o),
(524,760,o),
(527,797,c)
);
},
{
closed = 1;
nodes = (
(97,252,l),
(202,281,o),
(349,314,o),
(399,314,c),
(422,314,o),
(431,301,o),
(431,268,c),
(431,182,o),
(382,80,o),
(319,13,c),
(381,4,l),
(359,51,o),
(324,87,o),
(293,120,c),
(247,75,l),
(273,47,o),
(296,10,o),
(314,-27,c),
(371,-36,l),
(446,43,o),
(507,155,o),
(507,268,c),
(507,337,o),
(474,376,o),
(409,376,c),
(326,376,o),
(188,341,o),
(81,318,c)
);
},
{
closed = 1;
nodes = (
(297,468,l),
(292,434,o),
(281,401,o),
(268,368,c),
(222,251,o),
(151,133,o),
(55,15,c),
(112,-31,l),
(212,92,o),
(285,217,o),
(334,342,c),
(348,377,o),
(360,413,o),
(373,447,c)
);
},
{
closed = 1;
nodes = (
(539,382,l),
(593,305,o),
(596,247,o),
(596,160,c),
(672,156,l),
(689,318,o),
(725,354,o),
(782,354,c),
(819,354,o),
(857,330,o),
(857,219,c),
(857,108,o),
(794,54,o),
(628,9,c),
(670,-52,l),
(821,-11,o),
(934,61,o),
(934,219,c),
(934,359,o),
(868,417,o),
(782,417,c),
(693,417,o),
(633,336,o),
(620,207,c),
(653,198,l),
(653,250,o),
(661,332,o),
(603,415,c)
);
}
);
width = 1000;
}
);
production = u1B01B;
script = hentaigana;
unicode = 110619;
}
{
category = Letter;
color = 3;
glyphname = "ka-6-kana";
layers = (
{
backgroundImage = {
imagePath = "_sketch/u1B01C.png";
locked = 1;
pos = (0,-120);
};
layerId = m01;
shapes = (
{
closed = 1;
nodes = (
(386,802,l),
(427,746,o),
(488,711,o),
(550,694,c),
(544,712,l),
(369,665,l),
(377,639,l),
(563,693,l),
(563,718,l),
(499,736,o),
(446,768,o),
(409,819,c)
);
},
{
closed = 1;
nodes = (
(213,522,l),
(305,522,o),
(414,549,o),
(475,566,c),
(464,581,l),
(363,463,l),
(367,442,l),
(424,412,o),
(489,352,o),
(489,218,c),
(489,133,o),
(449,60,o),
(388,-5,c),
(412,-10,l),
(386,50,o),
(348,99,o),
(302,138,c),
(291,111,l),
(327,81,o),
(361,35,o),
(386,-21,c),
(409,-25,l),
(473,44,o),
(519,123,o),
(519,218,c),
(519,362,o),
(443,433,o),
(380,466,c),
(385,449,l),
(494,573,l),
(479,595,l),
(407,574,o),
(300,548,o),
(213,548,c)
);
},
{
closed = 1;
nodes = (
(157,403,l),
(158,302,o),
(155,183,o),
(122,80,c),
(146,65,l),
(315,237,o),
(509,443,o),
(714,575,c),
(697,578,l),
(673,330,l),
(692,316,l),
(742,334,o),
(769,340,o),
(807,340,c),
(846,340,o),
(866,319,o),
(866,258,c),
(866,159,o),
(766,92,o),
(604,46,c),
(617,22,l),
(777,67,o),
(896,139,o),
(896,258,c),
(896,328,o),
(868,366,o),
(807,366,c),
(766,366,o),
(735,359,o),
(689,340,c),
(700,327,l),
(728,589,l),
(706,602,l),
(490,463,o),
(295,256,o),
(140,99,c),
(154,83,l),
(185,180,o),
(187,302,o),
(187,403,c)
);
}
);
width = 1000;
},
{
layerId = "027B829E-3619-44FF-8C68-78647B0AD671";
shapes = (
{
closed = 1;
nodes = (
(341,784,l),
(392,715,o),
(467,678,o),
(546,657,c),
(552,750,l),
(331,690,l),
(386,602,l),
(578,657,l),
(635,758,l),
(519,790,o),
(478,821,o),
(447,863,c)
);
},
{
closed = 1;
nodes = (
(205,482,l),
(308,482,o),
(421,511,o),
(498,533,c),
(451,615,l),
(284,456,l),
(294,404,l),
(376,361,o),
(434,333,o),
(434,214,c),
(434,143,o),
(404,80,o),
(347,18,c),
(435,-10,l),
(406,55,o),
(370,114,o),
(317,158,c),
(257,62,l),
(285,39,o),
(312,-4,o),
(335,-55,c),
(443,-71,l),
(514,5,o),
(575,98,o),
(575,214,c),
(575,380,o),
(464,461,o),
(392,499,c),
(388,441,l),
(520,556,l),
(467,644,l),
(394,623,o),
(286,598,o),
(205,598,c)
);
},
{
closed = 1;
nodes = (
(91,403,l),
(92,301,o),
(90,183,o),
(60,87,c),
(172,20,l),
(346,198,o),
(543,408,o),
(754,544,c),
(652,565,l),
(623,334,l),
(713,272,l),
(744,283,o),
(763,294,o),
(790,294,c),
(814,294,o),
(821,279,o),
(821,254,c),
(821,191,o),
(747,141,o),
(567,91,c),
(633,-34,l),
(805,15,o),
(964,94,o),
(964,254,c),
(964,343,o),
(907,411,o),
(829,411,c),
(766,411,o),
(717,386,o),
(688,343,c),
(763,337,l),
(790,590,l),
(686,650,l),
(455,502,o),
(260,279,o),
(124,141,c),
(188,85,l),
(220,169,o),
(228,299,o),
(234,403,c)
);
}
);
width = 1000;
},
{
layerId = "22BF860B-E605-42C1-AA52-30D9AB94E7CE";
shapes = (
{
closed = 1;
nodes = (
(367,789,l),
(412,727,o),
(479,692,o),
(551,672,c),
(552,732,l),
(354,676,l),
(383,619,l),
(569,672,l),
(569,739,l),
(508,755,o),
(461,787,o),
(427,833,c)
);
},
{
closed = 1;
nodes = (
(213,498,l),
(309,502,o),
(418,533,o),
(490,556,c),
(462,600,l),
(345,478,l),
(357,423,l),
(410,395,o),
(464,344,o),
(464,218,c),
(464,140,o),
(426,76,o),
(368,13,c),
(434,0,l),
(406,63,o),
(365,115,o),
(315,156,c),
(269,100,l),
(310,66,o),
(340,21,o),
(363,-31,c),
(430,-44,l),
(496,28,o),
(544,115,o),
(544,218,c),
(544,371,o),
(454,446,o),
(388,481,c),
(395,435,l),
(511,558,l),
(474,615,l),
(402,596,o),
(296,572,o),
(213,573,c)
);
},
{
closed = 1;
nodes = (
(130,403,l),
(131,303,o),
(130,186,o),
(99,87,c),
(162,49,l),
(331,221,o),
(524,427,o),
(733,560,c),
(674,594,l),
(649,332,l),
(699,296,l),
(749,314,o),
(772,320,o),
(794,320,c),
(830,320,o),
(841,305,o),
(841,258,c),
(841,176,o),
(756,114,o),
(581,65,c),
(623,2,l),
(786,48,o),
(921,122,o),
(921,258,c),
(921,336,o),
(886,387,o),
(807,387,c),
(764,387,o),
(729,379,o),
(680,351,c),
(727,325,l),
(753,587,l),
(694,621,l),
(474,480,o),
(278,272,o),
(110,101,c),
(173,63,l),
(211,177,o),
(214,302,o),
(215,403,c)
);
}
);
width = 1000;
}
);
production = u1B01C;
script = hentaigana;
unicode = 110620;
}
{
category = Letter;
color = 2;
glyphname = "ka-7-kana";
layers = (
{
backgroundImage = {
imagePath = "_sketch/u1B01D.png";
locked = 1;
pos = (0,-120);
};
layerId = m01;
shapes = (
{
closed = 1;
nodes = (
(96,663,l),
(160,642,o),
(223,634,o),
(287,634,c),
(393,634,o),
(467,650,o),
(467,706,c),
(467,761,o),
(407,793,o),
(362,793,c),
(310,793,o),
(266,740,o),
(231,649,c),
(204,579,o),
(179,482,o),
(170,392,c),
(189,378,l),
(235,393,o),
(321,411,o),
(341,411,c),
(412,411,o),
(412,389,o),
(412,322,c),
(412,259,o),
(381,102,o),
(270,26,c),
(291,19,l),
(265,92,o),
(229,154,o),
(182,204,c),
(161,185,l),
(205,138,o),
(239,79,o),
(264,9,c),
(285,3,l),
(408,88,o),
(442,249,o),
(442,322,c),
(442,393,o),
(420,437,o),
(341,437,c),
(309,437,o),
(230,419,o),
(181,404,c),
(199,389,l),
(208,476,o),
(232,571,o),
(258,639,c),
(292,725,o),
(329,767,o),
(362,767,c),
(394,767,o),
(437,737,o),
(437,706,c),
(437,678,o),
(390,660,o),
(287,660,c),
(225,660,o),
(166,668,o),
(104,689,c)
);
},
{
closed = 1;
nodes = (
(113,98,l),
(140,138,o),
(177,189,o),
(219,243,c),
(286,328,o),
(365,422,o),
(435,494,c),
(415,513,l),
(344,440,o),
(264,346,o),
(197,260,c),
(154,206,o),
(117,155,o),
(89,114,c)
);
},
{
closed = 1;
nodes = (
(667,795,l),
(658,644,o),
(598,573,o),
(473,474,c),
(490,452,l),
(593,527,o),
(679,604,o),
(788,604,c),
(839,604,o),
(882,571,o),
(882,518,c),
(882,472,o),
(800,429,o),
(700,423,c),
(702,397,l),
(808,404,o),
(912,441,o),
(912,518,c),
(912,588,o),
(850,630,o),
(788,630,c),
(666,631,o),
(575,548,o),
(473,474,c),
(490,452,l),
(618,552,o),
(687,635,o),
(697,793,c)
);
},
{
closed = 1;
nodes = (
(686,481,l),
(686,293,o),
(571,151,o),
(409,14,c),
(427,-7,l),
(572,116,o),
(602,171,o),
(680,171,c),
(758,171,o),
(830,131,o),
(894,-8,c),
(921,5,l),
(853,149,o),
(768,197,o),
(680,197,c),
(589,198,o),
(552,136,o),
(409,14,c),
(427,-7,l),
(591,132,o),
(716,281,o),
(716,481,c)
);
}
);
width = 1000;
},
{
layerId = "027B829E-3619-44FF-8C68-78647B0AD671";
shapes = (
{
closed = 1;
nodes = (
(67,624,l),
(140,600,o),
(210,594,o),
(280,594,c),
(395,594,o),
(525,601,o),
(525,716,c),
(525,820,o),
(430,854,o),
(357,854,c),
(268,854,o),
(209,779,o),
(170,678,c),
(140,600,o),
(111,497,o),
(101,399,c),
(195,330,l),
(237,344,o),
(336,364,o),
(336,364,c),
(396,364,o),
(350,383,o),
(350,321,c),
(350,274,o),
(325,122,o),
(233,58,c),
(339,27,l),
(310,109,o),
(266,178,o),
(212,235,c),
(112,142,l),
(151,100,o),
(179,45,o),
(203,-21,c),
(309,-52,l),
(458,52,o),
(500,226,o),
(500,321,c),
(500,400,o),
(431,487,o),
(336,487,c),
(281,487,o),
(211,470,o),
(156,452,c),
(249,384,l),
(257,466,o),
(279,562,o),
(304,626,c),
(336,708,o),
(357,731,o),
(357,731,c),
(365,731,o),
(375,716,o),
(375,716,c),
(375,716,o),
(381,717,o),
(280,717,c),
(220,717,o),
(166,727,o),
(108,746,c)
);
},
{
closed = 1;
nodes = (
(147,59,l),
(173,99,o),
(211,150,o),
(254,205,c),
(322,292,o),
(402,388,o),
(472,460,c),
(374,555,l),
(299,477,o),
(215,380,o),
(145,290,c),
(100,234,o),
(61,180,o),
(31,137,c)
);
},
{
closed = 1;
nodes = (
(613,811,l),
(607,670,o),
(563,619,o),
(440,518,c),
(521,411,l),
(630,491,o),
(707,559,o),
(797,563,c),
(828,563,o),
(834,543,o),
(834,522,c),
(834,522,o),
(796,479,o),
(703,472,c),
(711,349,l),
(831,357,o),
(984,383,o),
(984,522,c),
(984,629,o),
(882,686,o),
(797,686,c),
(646,693,o),
(544,594,o),
(442,519,c),
(523,412,l),
(659,516,o),
(747,624,o),
(762,802,c)
);
},
{
closed = 1;
nodes = (
(632,484,l),
(632,315,o),
(534,181,o),
(372,44,c),
(459,-59,l),
(612,70,o),
(629,113,o),
(686,117,c),
(749,117,o),
(794,88,o),
(855,-43,c),
(984,17,l),
(910,177,o),
(793,240,o),
(686,240,c),
(566,248,o),
(516,166,o),
(372,44,c),
(459,-59,l),
(632,87,o),
(782,253,o),
(782,484,c)
);
}
);
width = 1000;
},
{
layerId = "22BF860B-E605-42C1-AA52-30D9AB94E7CE";
shapes = (
{
closed = 1;
nodes = (
(89,645,l),
(156,623,o),
(221,616,o),
(287,616,c),
(390,616,o),
(490,639,o),
(490,711,c),
(490,756,o),
(417,812,o),
(362,812,c),
(296,812,o),
(247,751,o),
(210,657,c),
(182,585,o),
(156,487,o),
(147,395,c),
(195,360,l),
(239,374,o),
(330,392,o),
(341,392,c),
(379,392,o),
(394,387,o),
(394,322,c),
(394,265,o),
(358,114,o),
(257,44,c),
(312,27,l),
(286,102,o),
(239,161,o),
(191,212,c),
(150,174,l),
(193,129,o),
(219,69,o),
(243,2,c),
(297,-14,l),
(429,77,o),
(466,242,o),
(466,322,c),
(466,409,o),
(436,455,o),
(365,455,c),
(301,455,o),
(227,432,o),
(177,416,c),
(223,387,l),
(231,471,o),
(254,565,o),
(279,631,c),
(312,714,o),
(343,749,o),
(362,749,c),
(384,749,o),
(413,719,o),
(413,706,c),
(413,700,o),
(388,679,o),
(287,679,c),
(226,679,o),
(170,687,o),
(98,711,c)
);
},
{
closed = 1;
nodes = (
(120,74,l),
(157,126,o),
(194,176,o),
(236,229,c),
(302,314,o),
(381,408,o),
(450,479,c),
(417,546,l),
(328,454,o),
(248,360,o),
(180,273,c),
(137,219,o),
(100,167,o),
(68,128,c)
);
},
{
closed = 1;
nodes = (
(644,796,l),
(636,651,o),
(583,588,o),
(460,490,c),
(502,435,l),
(601,517,o),
(685,590,o),
(788,590,c),
(833,590,o),
(859,558,o),
(859,522,c),
(859,475,o),
(797,442,o),
(699,436,c),
(703,378,l),
(813,385,o),
(936,418,o),
(936,518,c),
(936,602,o),
(859,649,o),
(788,649,c),
(668,649,o),
(564,562,o),
(510,495,c),
(534,472,l),
(628,541,o),
(704,629,o),
(720,792,c)
);
},
{
closed = 1;
nodes = (
(662,481,l),
(662,303,o),
(556,166,o),
(396,30,c),
(440,-23,l),
(532,57,o),
(591,153,o),
(680,153,c),
(752,153,o),
(812,117,o),
(880,-29,c),
(941,14,l),
(871,163,o),
(774,216,o),
(680,216,c),
(604,216,o),
(491,90,o),
(433,22,c),
(443,7,l),
(590,132,o),
(739,271,o),
(739,481,c)
);
}
);
width = 1000;
}
);
production = u1B01D;
script = hentaigana;
unicode = 110621;
}
{
category = Letter;
color = 3;
glyphname = "ka-8-kana";
layers = (
{
backgroundImage = {
imagePath = "_sketch/u1B01E.png";
locked = 1;
pos = (0,-120);
};
layerId = m01;
shapes = (
{
closed = 1;
nodes = (
(518,728,l),
(567,668,o),
(574,644,o),
(597,553,c),
(626,555,l),
(642,669,o),
(720,742,o),
(787,742,c),
(834,742,o),
(872,718,o),
(872,669,c),
(872,612,o),
(815,586,o),
(706,546,c),
(597,506,o),
(338,403,o),
(225,365,c),
(234,340,l),
(391,394,o),
(449,410,o),
(554,410,c),
(611,410,o),
(686,390,o),
(686,365,c),
(686,334,o),
(511,294,o),
(311,248,c),
(317,222,l),
(420,249,o),
(505,258,o),
(512,258,c),
(594,258,o),
(624,240,o),
(624,217,c),
(624,181,o),
(562,153,o),
(456,121,c),
(344,86,o),
(190,34,o),
(76,-5,c),
(85,-31,l),
(277,29,o),
(421,92,o),
(531,92,c),
(663,92,o),
(819,25,o),
(890,-37,c),
(910,-15,l),
(829,56,o),
(655,116,o),
(547,116,c),
(434,116,o),
(324,69,o),
(101,-8,c),
(102,-20,l),
(197,13,o),
(353,61,o),
(464,95,c),
(573,128,o),
(654,162,o),
(654,217,c),
(654,271,o),
(582,280,o),
(541,280,c),
(502,280,o),
(417,271,o),
(353,250,c),
(352,236,l),
(602,294,o),
(716,314,o),
(716,365,c),
(716,406,o),
(647,436,o),
(545,436,c),
(446,436,o),
(383,418,o),
(254,370,c),
(266,358,l),
(346,385,o),
(607,482,o),
(715,521,c),
(825,561,o),
(902,592,o),
(902,669,c),
(902,734,o),
(846,768,o),
(787,768,c),
(702,768,o),
(618,683,o),
(601,568,c),
(619,573,l),
(600,650,o),
(590,684,o),
(539,746,c)
);
},
{
closed = 1;
nodes = (
(91,645,l),
(200,661,o),
(343,690,o),
(391,690,c),
(425,690,o),
(437,679,o),
(437,647,c),
(437,582,o),
(374,511,o),
(317,484,c),
(336,479,l),
(315,508,o),
(293,538,o),
(273,566,c),
(258,538,l),
(270,521,o),
(291,491,o),
(312,462,c),
(329,458,l),
(399,492,o),
(467,579,o),
(467,647,c),
(467,702,o),
(437,716,o),
(403,716,c),
(335,716,o),
(196,687,o),
(87,673,c)
);
},
{
closed = 1;
nodes = (
(327,800,l),
(315,772,o),
(301,745,o),
(286,719,c),
(235,635,o),
(166,557,o),
(75,475,c),
(94,454,l),
(186,537,o),
(258,617,o),
(310,705,c),
(327,732,o),
(341,760,o),
(356,791,c)
);
}
);
width = 1000;
},
{
background = {
shapes = (
{
ref = "ka-11-kana";
}
);
};
layerId = "027B829E-3619-44FF-8C68-78647B0AD671";
shapes = (
{
closed = 1;
nodes = (
(479,706,l),
(526,648,o),
(525,638,o),
(547,545,c),
(668,554,l),
(683,657,o),
(757,708,o),
(787,708,c),
(804,708,o),
(812,700,o),
(812,678,c),
(812,646,o),
(766,611,o),
(616,556,c),
(585,545,o),
(314,448,o),
(201,409,c),
(241,294,l),
(397,365,o),
(451,380,o),
(586,380,c),
(610,380,o),
(636,372,o),
(636,364,c),
(636,338,o),
(503,324,o),
(298,277,c),
(323,172,l),
(424,209,o),
(511,218,o),
(537,218,c),
(561,218,o),
(572,213,o),
(572,206,c),
(572,193,o),
(550,179,o),
(445,147,c),
(328,111,o),
(166,68,o),
(48,28,c),
(102,-83,l),
(303,-19,o),
(413,38,o),
(548,38,c),
(653,38,o),
(776,-3,o),
(870,-86,c),
(955,11,l),
(855,99,o),
(711,147,o),
(565,147,c),
(420,147,o),
(271,69,o),
(163,-29,c),
(154,-46,l),
(199,-30,o),
(357,28,o),
(484,67,c),
(578,95,o),
(728,140,o),
(728,212,c),
(728,286,o),
(644,297,o),
(543,297,c),
(523,297,o),
(381,262,o),
(340,225,c),
(387,213,l),
(625,268,o),
(779,265,o),
(779,364,c),
(779,457,o),
(697,472,o),
(600,472,c),
(509,472,o),
(314,410,o),
(241,353,c),
(255,318,l),
(356,352,o),
(628,441,o),
(738,481,c),
(851,522,o),
(950,574,o),
(950,678,c),
(950,764,o),
(887,810,o),
(809,810,c),
(687,810,o),
(600,704,o),
(583,587,c),
(663,610,l),
(650,671,o),
(633,720,o),
(580,790,c)
);
},
{
closed = 1;
nodes = (
(68,609,l),
(200,629,o),
(351,657,o),
(370,657,c),
(378,657,o),
(383,655,o),
(383,640,c),
(383,596,o),
(332,545,o),
(292,526,c),
(369,509,l),
(346,538,o),
(322,568,o),
(301,595,c),
(224,508,l),
(228,501,o),
(247,469,o),
(267,437,c),
(343,420,l),
(435,464,o),
(518,546,o),
(518,655,c),
(518,719,o),
(476,768,o),
(416,768,c),
(318,768,o),
(178,738,o),
(52,732,c)
);
},
{
closed = 1;
nodes = (
(278,832,l),
(267,805,o),
(253,779,o),
(238,754,c),
(189,672,o),
(123,594,o),
(32,512,c),
(132,425,l),
(217,502,o),
(288,594,o),
(346,690,c),
(363,719,o),
(379,750,o),
(408,810,c)
);
}
);
width = 1000;
},
{
layerId = "22BF860B-E605-42C1-AA52-30D9AB94E7CE";
shapes = (
{
closed = 1;
nodes = (
(500,713,l),
(547,655,o),
(551,637,o),
(573,547,c),
(650,551,l),
(665,656,o),
(734,722,o),
(787,722,c),
(829,722,o),
(847,696,o),
(847,669,c),
(847,628,o),
(810,599,o),
(701,559,c),
(591,519,o),
(329,423,o),
(218,385,c),
(241,319,l),
(396,379,o),
(450,394,o),
(539,394,c),
(619,394,o),
(661,379,o),
(661,365,c),
(661,327,o),
(499,313,o),
(306,268,c),
(323,201,l),
(424,228,o),
(509,237,o),
(541,237,c),
(571,237,o),
(599,237,o),
(599,217,c),
(599,199,o),
(554,173,o),
(450,141,c),
(338,107,o),
(182,57,o),
(68,18,c),
(91,-51,l),
(314,8,o),
(408,60,o),
(533,60,c),
(632,60,o),
(812,4,o),
(883,-58,c),
(938,-7,l),
(837,82,o),
(661,131,o),
(547,131,c),
(429,131,o),
(311,80,o),
(190,31,c),
(190,3,l),
(200,7,o),
(354,57,o),
(465,91,c),
(577,126,o),
(679,154,o),
(679,217,c),
(679,297,o),
(585,291,o),
(541,291,c),
(500,291,o),
(415,282,o),
(384,268,c),
(425,239,l),
(642,289,o),
(741,290,o),
(741,365,c),
(741,429,o),
(656,451,o),
(545,451,c),
(519,451,o),
(378,432,o),
(274,380,c),
(274,352,l),
(349,378,o),
(615,462,o),
(723,501,c),
(832,541,o),
(927,575,o),
(927,669,c),
(927,748,o),
(853,789,o),
(787,789,c),
(688,789,o),
(610,687,o),
(593,567,c),
(637,563,l),
(618,655,o),
(606,695,o),
(557,761,c)
);
},
{
closed = 1;
nodes = (
(94,622,l),
(204,641,o),
(349,669,o),
(386,669,c),
(407,669,o),
(412,663,o),
(412,647,c),
(412,598,o),
(356,525,o),
(308,502,c),
(354,492,l),
(333,521,o),
(312,551,o),
(291,580,c),
(241,525,l),
(252,509,o),
(272,479,o),
(293,449,c),
(339,438,l),
(418,477,o),
(492,560,o),
(492,647,c),
(492,699,o),
(468,736,o),
(403,736,c),
(329,736,o),
(192,707,o),
(84,695,c)
);
},
{
closed = 1;
nodes = (
(303,811,l),
(294,782,o),
(281,756,o),
(266,731,c),
(217,649,o),
(150,572,o),
(51,483,c),
(116,430,l),
(209,515,o),
(276,602,o),
(330,693,c),
(347,721,o),
(361,750,o),
(389,795,c)
);
}
);
width = 1000;
}
);
production = u1B01E;
script = hentaigana;
unicode = 110622;
}
{
category = Letter;
color = 2;
glyphname = "ka-9-kana";
layers = (
{
backgroundImage = {
imagePath = "_sketch/u1B01F.png";
locked = 1;
pos = (0,-120);
};
layerId = m01;
shapes = (
{
closed = 1;
nodes = (
(141,608,l),
(215,640,o),
(289,672,o),
(362,698,c),
(468,736,o),
(583,763,o),
(660,763,c),
(775,763,o),
(834,708,o),
(834,639,c),
(834,568,o),
(674,481,o),
(400,484,c),
(400,458,l),
(506,458,o),
(505,397,o),
(505,254,c),
(505,160,o),
(505,65,o),
(505,-29,c),
(534,-24,l),
(502,70,o),
(434,105,o),
(365,145,c),
(351,121,l),
(421,81,o),
(477,51,o),
(506,-34,c),
(535,-29,l),
(535,65,o),
(535,160,o),
(535,254,c),
(535,398,o),
(517,484,o),
(400,484,c),
(400,457,l),
(679,455,o),
(864,530,o),
(864,639,c),
(864,726,o),
(784,789,o),
(660,789,c),
(577,789,o),
(461,762,o),
(353,723,c),
(279,697,o),
(204,665,o),
(130,633,c)
);
},
{
closed = 1;
nodes = (
(83,85,l),
(166,141,o),
(277,197,o),
(363,232,c),
(353,257,l),
(265,222,o),
(153,165,o),
(68,108,c)
);
},
{
closed = 1;
nodes = (
(645,291,l),
(788,269,o),
(880,189,o),
(900,86,c),
(914,102,l),
(854,101,o),
(795,91,o),
(736,73,c),
(744,48,l),
(801,65,o),
(857,75,o),
(914,76,c),
(928,92,l),
(906,208,o),
(800,294,o),
(649,317,c)
);
}
);
width = 1000;
},
{
layerId = "027B829E-3619-44FF-8C68-78647B0AD671";
shapes = (
{
closed = 1;
nodes = (
(151,568,l),
(226,602,o),
(302,634,o),
(375,660,c),
(480,698,o),
(596,726,o),
(665,726,c),
(767,726,o),
(784,683,o),
(784,647,c),
(784,647,o),
(670,533,o),
(398,535,c),
(397,412,l),
(485,412,o),
(446,395,o),
(446,251,c),
(446,153,o),
(446,56,o),
(446,-41,c),
(589,-18,l),
(550,98,o),
(457,143,o),
(386,183,c),
(321,68,l),
(394,27,o),
(429,5,o),
(452,-64,c),
(596,-41,l),
(596,56,o),
(596,153,o),
(596,251,c),
(596,401,o),
(539,535,o),
(397,535,c),
(397,412,l),
(693,409,o),
(934,458,o),
(934,647,c),
(934,772,o),
(808,849,o),
(665,849,c),
(569,849,o),
(446,822,o),
(332,781,c),
(254,753,o),
(175,720,o),
(99,688,c)
);
},
{
closed = 1;
nodes = (
(100,33,l),
(181,88,o),
(293,146,o),
(378,180,c),
(329,301,l),
(235,263,o),
(118,205,o),
(26,143,c)
);
},
{
closed = 1;
nodes = (
(642,240,l),
(775,219,o),
(840,144,o),
(854,67,c),
(925,142,l),
(859,141,o),
(794,131,o),
(728,112,c),
(765,-10,l),
(820,7,o),
(874,17,o),
(928,19,c),
(998,94,l),
(970,242,o),
(831,338,o),
(661,364,c)
);
}
);
width = 1000;
},
{
layerId = "22BF860B-E605-42C1-AA52-30D9AB94E7CE";
shapes = (
{
closed = 1;
nodes = (
(151,587,l),
(222,622,o),
(297,654,o),
(369,680,c),
(473,717,o),
(587,744,o),
(660,744,c),
(769,744,o),
(810,694,o),
(810,639,c),
(810,548,o),
(670,500,o),
(400,502,c),
(400,439,l),
(464,439,o),
(482,396,o),
(482,254,c),
(482,160,o),
(482,65,o),
(482,-29,c),
(540,-1,l),
(513,79,o),
(444,123,o),
(375,162,c),
(341,104,l),
(411,64,o),
(451,31,o),
(476,-44,c),
(559,-29,l),
(559,65,o),
(559,160,o),
(559,288,c),
(559,399,o),
(531,479,o),
(431,479,c),
(452,446,l),
(681,445,o),
(887,500,o),
(887,639,c),
(887,740,o),
(790,807,o),
(660,807,c),
(573,807,o),
(456,781,o),
(346,742,c),
(272,715,o),
(196,683,o),
(121,655,c)
);
},
{
closed = 1;
nodes = (
(95,67,l),
(176,122,o),
(287,178,o),
(371,213,c),
(345,277,l),
(256,241,o),
(143,184,o),
(56,126,c)
);
},
{
closed = 1;
nodes = (
(642,272,l),
(779,251,o),
(860,173,o),
(877,82,c),
(913,117,l),
(853,114,o),
(792,104,o),
(708,78,c),
(749,29,l),
(805,46,o),
(860,56,o),
(915,58,c),
(951,96,l),
(927,224,o),
(808,312,o),
(652,336,c)
);
}
);
width = 1000;
}
);
production = u1B01F;
script = hentaigana;
unicode = 110623;
}
{
category = Letter;
color = 2;
glyphname = "ka-10-kana";
layers = (
{
backgroundImage = {
imagePath = "_sketch/u1B020.png";
locked = 1;
pos = (0,-120);
};
layerId = m01;
shapes = (
{
closed = 1;
nodes = (
(385,781,l),
(464,774,o),
(570,724,o),
(607,670,c),
(616,691,l),
(560,680,o),
(505,659,o),
(450,628,c),
(446,607,l),
(469,579,o),
(498,516,o),
(498,473,c),
(498,428,o),
(483,374,o),
(441,337,c),
(460,336,l),
(407,393,o),
(344,440,o),
(271,476,c),
(271,452,l),
(357,497,o),
(466,529,o),
(582,529,c),
(654,529,o),
(687,508,o),
(687,490,c),
(687,482,o),
(606,445,o),
(512,437,c),
(514,411,l),
(611,419,o),
(717,429,o),
(717,490,c),
(717,537,o),
(658,555,o),
(582,555,c),
(462,555,o),
(349,523,o),
(259,476,c),
(259,452,l),
(329,417,o),
(389,372,o),
(440,317,c),
(459,316,l),
(509,360,o),
(528,421,o),
(528,473,c),
(528,529,o),
(496,591,o),
(467,625,c),
(463,604,l),
(516,634,o),
(569,655,o),
(621,665,c),
(630,686,l),
(584,753,o),
(474,800,o),
(387,807,c)
);
},
{
closed = 1;
nodes = (
(94,235,l),
(160,252,o),
(237,271,o),
(320,289,c),
(516,333,o),
(743,375,o),
(920,375,c),
(919,401,l),
(631,390,o),
(395,232,o),
(223,127,c),
(237,103,l),
(361,175,o),
(447,219,o),
(558,219,c),
(650,219,o),
(709,189,o),
(709,118,c),
(709,36,o),
(619,-6,o),
(494,-6,c),
(437,-6,o),
(389,25,o),
(389,52,c),
(389,85,o),
(414,103,o),
(464,103,c),
(520,103,o),
(569,52,o),
(596,-9,c),
(622,2,l),
(593,71,o),
(535,129,o),
(464,129,c),
(407,129,o),
(359,102,o),
(359,52,c),
(359,-3,o),
(428,-32,o),
(494,-32,c),
(625,-32,o),
(739,14,o),
(739,118,c),
(739,207,o),
(656,245,o),
(558,245,c),
(440,246,o),
(348,199,o),
(223,127,c),
(237,104,l),
(410,209,o),
(641,364,o),
(920,375,c),
(920,401,l),
(739,401,o),
(511,359,o),
(315,315,c),
(231,296,o),
(154,277,o),
(88,261,c)
);
}
);
width = 1000;
},
{
layerId = "027B829E-3619-44FF-8C68-78647B0AD671";
shapes = (
{
closed = 1;
nodes = (
(378,744,l),
(443,739,o),
(544,677,o),
(565,648,c),
(610,749,l),
(547,737,o),
(483,715,o),
(422,680,c),
(403,578,l),
(416,562,o),
(438,496,o),
(438,476,c),
(438,443,o),
(433,402,o),
(404,376,c),
(499,372,l),
(439,435,o),
(368,486,o),
(287,525,c),
(289,408,l),
(370,452,o),
(474,484,o),
(584,486,c),
(650,486,o),
(633,494,o),
(633,494,c),
(633,494,o),
(600,495,o),
(508,488,c),
(518,364,l),
(624,372,o),
(783,324,o),
(783,494,c),
(783,598,o),
(672,609,o),
(584,609,c),
(452,610,o),
(328,576,o),
(227,525,c),
(229,408,l),
(296,374,o),
(351,330,o),
(398,279,c),
(494,275,l),
(558,332,o),
(588,408,o),
(588,476,c),
(588,558,o),
(547,621,o),
(507,668,c),
(488,566,l),
(538,594,o),
(586,616,o),
(635,625,c),
(680,727,l),
(615,821,o),
(493,860,o),
(388,868,c)
);
},
{
closed = 1;
nodes = (
(94,182,l),
(162,199,o),
(241,219,o),
(326,238,c),
(526,283,o),
(758,327,o),
(932,327,c),
(930,450,l),
(616,438,o),
(363,271,o),
(188,164,c),
(255,50,l),
(382,123,o),
(459,163,o),
(560,166,c),
(643,166,o),
(656,149,o),
(656,110,c),
(656,70,o),
(611,31,o),
(494,31,c),
(451,31,o),
(446,42,o),
(446,42,c),
(446,42,o),
(425,47,o),
(463,47,c),
(493,47,o),
(525,7,o),
(546,-43,c),
(678,13,l),
(642,97,o),
(564,170,o),
(463,170,c),
(390,170,o),
(296,128,o),
(296,42,c),
(296,-71,o),
(411,-92,o),
(494,-92,c),
(640,-92,o),
(806,-40,o),
(806,110,c),
(806,237,o),
(672,289,o),
(560,289,c),
(424,295,o),
(319,239,o),
(189,165,c),
(257,51,l),
(437,161,o),
(664,316,o),
(934,326,c),
(932,450,l),
(739,450,o),
(502,408,o),
(298,362,c),
(212,342,o),
(131,322,o),
(63,305,c)
);
}
);
width = 1000;
},
{
layerId = "22BF860B-E605-42C1-AA52-30D9AB94E7CE";
shapes = (
{
closed = 1;
nodes = (
(364,765,l),
(457,758,o),
(560,704,o),
(591,659,c),
(569,700,l),
(555,697,o),
(497,676,o),
(440,644,c),
(431,594,l),
(455,565,o),
(476,522,o),
(476,473,c),
(476,433,o),
(465,384,o),
(428,352,c),
(471,346,l),
(417,405,o),
(353,453,o),
(278,490,c),
(278,439,l),
(362,484,o),
(469,517,o),
(582,518,c),
(652,518,o),
(666,507,o),
(666,494,c),
(666,474,o),
(604,456,o),
(511,448,c),
(515,394,l),
(625,403,o),
(739,430,o),
(739,490,c),
(739,557,o),
(661,572,o),
(582,572,c),
(458,573,o),
(343,540,o),
(250,492,c),
(251,435,l),
(319,401,o),
(377,357,o),
(426,304,c),
(472,302,l),
(526,350,o),
(549,416,o),
(549,473,c),
(549,538,o),
(514,600,o),
(482,638,c),
(472,588,l),
(524,617,o),
(574,638,o),
(625,648,c),
(647,698,l),
(594,774,o),
(481,816,o),
(387,824,c)
);
},
{
closed = 1;
nodes = (
(100,213,l),
(165,233,o),
(242,252,o),
(325,271,c),
(520,314,o),
(746,362,o),
(843,362,c),
(779,391,l),
(633,385,o),
(384,249,o),
(213,144,c),
(247,86,l),
(370,159,o),
(451,201,o),
(558,201,c),
(645,201,o),
(685,176,o),
(685,118,c),
(685,54,o),
(615,13,o),
(494,13,c),
(443,13,o),
(413,32,o),
(413,52,c),
(413,71,o),
(430,85,o),
(464,85,c),
(510,85,o),
(551,38,o),
(575,-18,c),
(643,11,l),
(611,85,o),
(546,148,o),
(464,148,c),
(401,148,o),
(336,116,o),
(336,52,c),
(336,-25,o),
(422,-50,o),
(494,-50,c),
(629,-50,o),
(762,-3,o),
(762,118,c),
(762,221,o),
(674,260,o),
(578,260,c),
(491,260,o),
(305,175,o),
(273,144,c),
(296,136,l),
(412,206,o),
(648,346,o),
(921,356,c),
(920,419,l),
(737,419,o),
(508,378,o),
(310,334,c),
(227,315,o),
(149,296,o),
(82,283,c)
);
}
);
width = 1000;
}
);
production = u1B020;
script = hentaigana;
unicode = 110624;
}
{
category = Letter;
color = 10;
glyphname = "ka-11-kana";
layers = (
{
backgroundImage = {
imagePath = "_sketch/u1B021.png";
locked = 1;
pos = (0,-120);
};
layerId = m01;
shapes = (
{
closed = 1;
nodes = (
(513,729,l),
(561,668,o),
(585,616,o),
(594,558,c),
(623,559,l),
(632,650,o),
(708,744,o),
(787,744,c),
(841,744,o),
(877,719,o),
(877,659,c),
(877,591,o),
(801,540,o),
(687,485,c),
(581,435,o),
(448,389,o),
(329,346,c),
(336,320,l),
(394,329,o),
(460,338,o),
(521,338,c),
(561,338,o),
(566,328,o),
(566,307,c),
(566,282,o),
(558,224,o),
(545,191,c),
(561,172,l),
(589,179,o),
(629,185,o),
(660,186,c),
(730,186,o),
(749,158,o),
(749,120,c),
(749,38,o),
(630,-7,o),
(512,-7,c),
(383,-7,o),
(332,33,o),
(332,68,c),
(332,94,o),
(347,116,o),
(397,116,c),
(446,116,o),
(510,82,o),
(536,-17,c),
(564,-9,l),
(536,100,o),
(458,142,o),
(397,142,c),
(339,142,o),
(302,110,o),
(302,68,c),
(302,10,o),
(377,-33,o),
(512,-33,c),
(637,-33,o),
(779,10,o),
(779,120,c),
(779,172,o),
(749,212,o),
(660,212,c),
(625,212,o),
(585,205,o),
(555,198,c),
(572,180,l),
(588,219,o),
(596,276,o),
(596,307,c),
(596,346,o),
(581,364,o),
(521,364,c),
(457,364,o),
(390,355,o),
(338,340,c),
(355,333,l),
(455,369,o),
(591,409,o),
(698,461,c),
(815,517,o),
(907,577,o),
(907,659,c),
(907,736,o),
(852,770,o),
(787,770,c),
(689,770,o),
(608,665,o),
(599,571,c),
(619,572,l),
(611,625,o),
(585,683,o),
(536,747,c)
);
},
{
closed = 1;
nodes = (
(91,645,l),
(200,661,o),
(343,690,o),
(391,690,c),
(425,690,o),
(437,679,o),
(437,647,c),
(437,582,o),
(374,511,o),
(317,484,c),
(336,479,l),
(315,508,o),
(293,538,o),
(273,566,c),
(258,538,l),
(270,521,o),
(291,491,o),
(312,462,c),
(329,458,l),
(399,492,o),
(467,579,o),
(467,647,c),
(467,702,o),
(437,716,o),
(403,716,c),
(335,716,o),
(196,687,o),
(87,673,c)
);
},
{
closed = 1;
nodes = (
(327,800,l),
(315,772,o),
(301,745,o),
(286,719,c),
(235,635,o),
(166,557,o),
(75,475,c),
(94,454,l),
(186,537,o),
(258,617,o),
(310,705,c),
(327,732,o),
(341,760,o),
(356,791,c)
);
}
);
width = 1000;
},
{
background = {
shapes = (
{
ref = "ka-8-kana";
}
);
};
layerId = "027B829E-3619-44FF-8C68-78647B0AD671";
shapes = (
{
closed = 1;
nodes = (
(474,719,l),
(520,661,o),
(536,617,o),
(543,570,c),
(681,573,l),
(687,639,o),
(731,715,o),
(783,715,c),
(804,715,o),
(816,706,o),
(816,680,c),
(816,631,o),
(786,601,o),
(672,548,c),
(567,498,o),
(431,451,o),
(309,408,c),
(334,292,l),
(395,313,o),
(461,322,o),
(482,322,c),
(498,322,o),
(519,324,o),
(519,304,c),
(519,276,o),
(507,249,o),
(498,227,c),
(574,143,l),
(598,159,o),
(637,166,o),
(665,166,c),
(692,166,o),
(701,150,o),
(701,135,c),
(701,85,o),
(624,52,o),
(512,52,c),
(404,52,o),
(375,68,o),
(375,83,c),
(375,97,o),
(390,104,o),
(409,104,c),
(452,104,o),
(483,62,o),
(502,-12,c),
(618,19,l),
(584,149,o),
(518,206,o),
(401,206,c),
(319,206,o),
(241,154,o),
(241,83,c),
(241,-29,o),
(363,-63,o),
(512,-63,c),
(651,-63,o),
(842,-27,o),
(842,135,c),
(842,213,o),
(776,273,o),
(682,273,c),
(629,273,o),
(573,253,o),
(560,201,c),
(617,194,l),
(632,229,o),
(654,282,o),
(654,324,c),
(654,398,o),
(613,427,o),
(552,427,c),
(464,427,o),
(362,383,o),
(342,347,c),
(352,327,l),
(461,366,o),
(604,398,o),
(729,457,c),
(840,509,o),
(953,569,o),
(953,680,c),
(953,771,o),
(901,828,o),
(796,828,c),
(668,828,o),
(581,704,o),
(573,608,c),
(651,613,l),
(645,657,o),
(630,731,o),
(577,799,c)
);
},
{
closed = 1;
nodes = (
(68,609,l),
(200,629,o),
(351,657,o),
(370,657,c),
(378,657,o),
(383,655,o),
(383,640,c),
(383,596,o),
(332,545,o),
(292,526,c),
(369,509,l),
(346,538,o),
(322,568,o),
(301,595,c),
(224,508,l),
(228,501,o),
(247,469,o),
(267,437,c),
(343,420,l),
(435,464,o),
(518,546,o),
(518,655,c),
(518,719,o),
(476,768,o),
(416,768,c),
(318,768,o),
(178,738,o),
(52,732,c)
);
},
{
closed = 1;
nodes = (
(278,832,l),
(267,805,o),
(253,779,o),
(238,754,c),
(189,672,o),
(123,594,o),
(32,512,c),
(132,425,l),
(217,502,o),
(288,594,o),
(346,690,c),
(363,719,o),
(379,750,o),
(408,810,c)
);
}
);
width = 1000;
},
{
layerId = "22BF860B-E605-42C1-AA52-30D9AB94E7CE";
shapes = (
{
closed = 1;
nodes = (
(495,715,l),
(541,655,o),
(562,608,o),
(570,554,c),
(648,556,l),
(655,636,o),
(723,723,o),
(787,723,c),
(834,723,o),
(852,708,o),
(852,663,c),
(852,611,o),
(816,572,o),
(677,505,c),
(574,455,o),
(441,409,o),
(322,366,c),
(340,289,l),
(396,312,o),
(455,321,o),
(500,321,c),
(526,321,o),
(541,318,o),
(541,294,c),
(541,269,o),
(534,227,o),
(523,199,c),
(566,152,l),
(593,158,o),
(632,164,o),
(660,165,c),
(714,165,o),
(724,148,o),
(724,120,c),
(724,60,o),
(626,14,o),
(512,14,c),
(387,14,o),
(357,58,o),
(357,68,c),
(357,82,o),
(366,95,o),
(397,95,c),
(436,95,o),
(489,67,o),
(512,-23,c),
(588,-3,l),
(557,115,o),
(467,162,o),
(397,162,c),
(332,162,o),
(277,122,o),
(277,68,c),
(277,-13,o),
(374,-53,o),
(512,-53,c),
(642,-53,o),
(804,-12,o),
(804,120,c),
(804,183,o),
(762,232,o),
(672,232,c),
(623,233,o),
(581,226,o),
(550,219,c),
(586,174,l),
(603,217,o),
(621,271,o),
(621,307,c),
(621,367,o),
(593,385,o),
(540,385,c),
(455,385,o),
(387,376,o),
(345,343,c),
(342,312,l),
(460,354,o),
(596,394,o),
(705,446,c),
(878,529,o),
(932,565,o),
(932,659,c),
(932,745,o),
(857,790,o),
(787,790,c),
(674,790,o),
(601,669,o),
(594,586,c),
(633,584,l),
(626,631,o),
(604,695,o),
(554,761,c)
);
},
{
closed = 1;
nodes = (
(94,625,l),
(204,643,o),
(348,671,o),
(386,671,c),
(408,671,o),
(414,664,o),
(414,647,c),
(414,596,o),
(358,524,o),
(309,500,c),
(352,490,l),
(331,520,o),
(310,550,o),
(289,579,c),
(242,526,l),
(254,510,o),
(274,480,o),
(294,450,c),
(338,440,l),
(416,478,o),
(489,562,o),
(489,647,c),
(489,698,o),
(467,734,o),
(403,734,c),
(330,734,o),
(192,705,o),
(84,693,c)
);
},
{
closed = 1;
nodes = (
(305,810,l),
(296,781,o),
(283,755,o),
(268,730,c),
(219,648,o),
(152,571,o),
(53,481,c),
(114,432,l),
(207,517,o),
(274,604,o),
(328,694,c),
(345,722,o),
(360,750,o),
(387,796,c)
);
}
);
width = 1000;
}
);
production = u1B021;
script = hentaigana;
unicode = 110625;
}
{
category = Letter;
color = 3;
glyphname = "ka-Ke-kana";
layers = (
{
backgroundImage = {
imagePath = "_sketch/u1B022.png";
locked = 1;
pos = (0,-120);
};
layerId = m01;
shapes = (
{
closed = 1;
nodes = (
(122,517,l),
(197,543,o),
(271,569,o),
(339,592,c),
(483,642,o),
(608,682,o),
(696,682,c),
(777,682,o),
(841,646,o),
(841,593,c),
(841,546,o),
(788,521,o),
(728,521,c),
(677,521,o),
(639,533,o),
(606,556,c),
(597,529,l),
(628,507,o),
(674,495,o),
(728,495,c),
(795,495,o),
(871,524,o),
(871,593,c),
(871,670,o),
(784,708,o),
(696,708,c),
(600,708,o),
(475,668,o),
(330,618,c),
(262,594,o),
(189,568,o),
(113,544,c)
);
},
{
closed = 1;
nodes = (
(490,795,l),
(490,758,o),
(488,720,o),
(484,682,c),
(477,614,o),
(437,482,o),
(362,397,c),
(376,375,l),
(437,392,o),
(472,400,o),
(500,400,c),
(528,400,o),
(548,379,o),
(548,290,c),
(548,173,o),
(518,59,o),
(422,-21,c),
(447,-31,l),
(427,38,o),
(394,96,o),
(366,134,c),
(348,111,l),
(369,82,o),
(400,26,o),
(419,-39,c),
(442,-45,l),
(547,43,o),
(578,168,o),
(578,290,c),
(578,400,o),
(546,426,o),
(506,426,c),
(467,427,o),
(431,418,o),
(369,401,c),
(383,378,l),
(465,470,o),
(506,604,o),
(514,679,c),
(518,718,o),
(520,757,o),
(521,795,c)
);
},
{
closed = 1;
nodes = (
(229,296,l),
(181,246,o),
(125,148,o),
(119,62,c),
(142,50,l),
(229,109,o),
(317,158,o),
(415,208,c),
(410,236,l),
(304,182,o),
(215,132,o),
(126,72,c),
(146,60,l),
(152,136,o),
(206,233,o),
(254,281,c)
);
},
{
closed = 1;
nodes = (
(653,298,l),
(713,326,o),
(744,335,o),
(780,335,c),
(790,335,o),
(820,330,o),
(820,292,c),
(820,247,o),
(767,208,o),
(705,182,c),
(703,157,l),
(774,116,o),
(834,66,o),
(898,3,c),
(916,26,l),
(854,87,o),
(790,139,o),
(717,181,c),
(714,160,l),
(781,188,o),
(850,230,o),
(850,292,c),
(850,342,o),
(811,361,o),
(780,361,c),
(739,361,o),
(702,351,o),
(642,323,c)
);
}
);
width = 1000;
},
{
layerId = "027B829E-3619-44FF-8C68-78647B0AD671";
shapes = (
{
closed = 1;
nodes = (
(116,472,l),
(195,500,o),
(270,527,o),
(340,551,c),
(489,602,o),
(615,643,o),
(691,643,c),
(760,643,o),
(782,627,o),
(782,606,c),
(782,583,o),
(752,573,o),
(725,573,c),
(680,573,o),
(641,583,o),
(598,614,c),
(588,491,l),
(624,466,o),
(661,450,o),
(725,450,c),
(808,450,o),
(932,484,o),
(932,600,c),
(932,725,o),
(814,758,o),
(708,758,c),
(581,758,o),
(448,724,o),
(298,673,c),
(227,648,o),
(153,622,o),
(74,599,c)
);
},
{
closed = 1;
nodes = (
(428,823,l),
(431,787,o),
(430,750,o),
(425,713,c),
(419,657,o),
(383,523,o),
(317,449,c),
(386,342,l),
(448,362,o),
(468,368,o),
(468,368,c),
(484,368,o),
(489,366,o),
(489,303,c),
(489,192,o),
(472,91,o),
(387,20,c),
(485,-16,l),
(458,58,o),
(421,120,o),
(396,149,c),
(302,79,l),
(314,59,o),
(334,3,o),
(345,-57,c),
(474,-83,l),
(597,20,o),
(639,167,o),
(639,303,c),
(639,450,o),
(588,491,o),
(517,491,c),
(451,491,o),
(402,451,o),
(374,386,c),
(438,393,l),
(506,470,o),
(563,606,o),
(573,697,c),
(577,740,o),
(579,782,o),
(583,823,c)
);
},
{
closed = 1;
nodes = (
(198,361,l),
(120,274,o),
(63,171,o),
(59,57,c),
(177,-13,l),
(256,61,o),
(336,125,o),
(428,192,c),
(387,294,l),
(284,221,o),
(198,156,o),
(114,79,c),
(166,49,l),
(176,117,o),
(239,213,o),
(329,294,c)
);
},
{
closed = 1;
nodes = (
(664,254,l),
(703,272,o),
(731,286,o),
(751,286,c),
(759,286,o),
(770,285,o),
(770,269,c),
(770,239,o),
(720,219,o),
(679,201,c),
(676,91,l),
(745,57,o),
(807,13,o),
(885,-56,c),
(955,63,l),
(891,110,o),
(818,158,o),
(733,191,c),
(732,126,l),
(807,157,o),
(920,187,o),
(920,289,c),
(920,365,o),
(874,409,o),
(800,409,c),
(738,409,o),
(692,392,o),
(645,370,c)
);
}
);
width = 1000;
},
{
layerId = "22BF860B-E605-42C1-AA52-30D9AB94E7CE";
shapes = (
{
closed = 1;
nodes = (
(129,494,l),
(204,523,o),
(278,549,o),
(346,572,c),
(490,622,o),
(614,661,o),
(696,661,c),
(771,661,o),
(816,636,o),
(816,593,c),
(816,565,o),
(782,541,o),
(728,541,c),
(681,541,o),
(646,550,o),
(595,586,c),
(573,518,l),
(619,486,o),
(670,474,o),
(728,474,c),
(801,474,o),
(896,505,o),
(896,593,c),
(896,689,o),
(790,728,o),
(704,728,c),
(594,728,o),
(468,688,o),
(323,638,c),
(254,614,o),
(182,589,o),
(105,567,c)
);
},
{
closed = 1;
nodes = (
(461,795,l),
(466,759,o),
(464,722,o),
(460,685,c),
(453,623,o),
(415,492,o),
(345,412,c),
(382,354,l),
(443,373,o),
(477,380,o),
(493,380,c),
(516,380,o),
(523,368,o),
(523,290,c),
(523,177,o),
(495,72,o),
(415,6,c),
(454,0,l),
(441,45,o),
(408,104,o),
(379,144,c),
(324,104,l),
(349,70,o),
(378,16,o),
(395,-45,c),
(472,-60,l),
(575,26,o),
(603,164,o),
(603,290,c),
(603,405,o),
(577,443,o),
(511,443,c),
(458,443,o),
(417,427,o),
(389,402,c),
(401,363,l),
(487,461,o),
(529,596,o),
(538,676,c),
(543,717,o),
(545,757,o),
(549,795,c)
);
},
{
closed = 1;
nodes = (
(213,312,l),
(159,258,o),
(102,159,o),
(94,64,c),
(154,31,l),
(241,90,o),
(327,139,o),
(424,188,c),
(408,260,l),
(293,202,o),
(204,151,o),
(114,91,c),
(164,59,l),
(172,126,o),
(231,220,o),
(270,256,c)
);
},
{
closed = 1;
nodes = (
(648,276,l),
(719,310,o),
(747,315,o),
(767,315,c),
(778,315,o),
(795,314,o),
(795,292,c),
(795,253,o),
(757,222,o),
(698,197,c),
(693,138,l),
(761,98,o),
(819,48,o),
(888,-22,c),
(935,45,l),
(870,106,o),
(804,158,o),
(728,200,c),
(721,144,l),
(791,174,o),
(875,212,o),
(875,292,c),
(875,353,o),
(817,382,o),
(780,382,c),
(736,382,o),
(694,371,o),
(632,342,c)
);
}
);
width = 1000;
}
);
production = u1B022;
script = hentaigana;
unicode = 110626;
}
{
category = Letter;
color = 2;
glyphname = "ki-1-kana";
layers = (
{
backgroundImage = {
imagePath = "_sketch/u1B023.png";
locked = 1;
pos = (0,-120);
};
layerId = m01;
shapes = (
{
closed = 1;
nodes = (
(165,606,l),
(249,606,o),
(376,614,o),
(510,625,c),
(623,635,o),
(740,646,o),
(839,655,c),
(837,681,l),
(738,672,o),
(620,661,o),
(508,651,c),
(374,640,o),
(247,632,o),
(165,632,c)
);
},
{
closed = 1;
nodes = (
(380,791,l),
(380,758,o),
(380,726,o),
(380,693,c),
(380,647,o),
(380,601,o),
(380,555,c),
(380,489,o),
(413,457,o),
(492,457,c),
(559,457,o),
(638,464,o),
(697,471,c),
(695,497,l),
(635,491,o),
(557,483,o),
(492,483,c),
(418,483,o),
(410,496,o),
(410,555,c),
(410,601,o),
(410,647,o),
(410,693,c),
(410,726,o),
(410,758,o),
(410,791,c)
);
},
{
closed = 1;
nodes = (
(68,198,l),
(195,198,o),
(375,245,o),
(460,313,c),
(456,336,l),
(394,357,o),
(333,378,o),
(272,399,c),
(253,386,l),
(253,-9,l),
(275,-20,l),
(490,126,o),
(708,261,o),
(888,291,c),
(886,317,l),
(796,318,o),
(707,349,o),
(616,409,c),
(593,397,l),
(593,303,o),
(593,208,o),
(593,113,c),
(593,28,o),
(635,-10,o),
(696,-10,c),
(748,-10,o),
(833,0,o),
(908,18,c),
(901,44,l),
(829,26,o),
(745,16,o),
(696,16,c),
(644,16,o),
(623,35,o),
(623,113,c),
(623,208,o),
(623,302,o),
(623,397,c),
(601,386,l),
(695,324,o),
(790,292,o),
(886,291,c),
(884,317,l),
(694,286,o),
(475,150,o),
(260,3,c),
(283,-9,l),
(283,386,l),
(263,373,l),
(324,353,o),
(386,332,o),
(447,311,c),
(443,334,l),
(368,274,o),
(189,224,o),
(68,224,c)
);
}
);
width = 1000;
},
{
layerId = "027B829E-3619-44FF-8C68-78647B0AD671";
shapes = (
{
closed = 1;
nodes = (
(155,565,l),
(244,565,o),
(376,574,o),
(514,584,c),
(631,594,o),
(752,605,o),
(854,614,c),
(842,738,l),
(740,729,o),
(620,718,o),
(504,708,c),
(367,696,o),
(236,688,o),
(155,688,c)
);
},
{
closed = 1;
nodes = (
(317,803,l),
(317,770,o),
(317,736,o),
(317,702,c),
(317,655,o),
(317,607,o),
(317,560,c),
(317,480,o),
(401,411,o),
(492,411,c),
(565,411,o),
(647,418,o),
(708,425,c),
(695,549,l),
(635,543,o),
(555,534,o),
(492,534,c),
(425,534,o),
(467,512,o),
(467,560,c),
(467,607,o),
(467,655,o),
(467,702,c),
(467,736,o),
(467,770,o),
(467,803,c)
);
},
{
closed = 1;
nodes = (
(55,145,l),
(199,143,o),
(384,185,o),
(492,269,c),
(471,383,l),
(407,404,o),
(344,426,o),
(281,447,c),
(186,386,l),
(186,-20,l),
(298,-75,l),
(518,75,o),
(739,212,o),
(908,240,c),
(898,364,l),
(816,365,o),
(735,396,o),
(648,453,c),
(537,398,l),
(537,300,o),
(537,203,o),
(537,105,c),
(537,2,o),
(623,-70,o),
(702,-70,c),
(762,-70,o),
(851,-61,o),
(932,-41,c),
(901,82,l),
(832,65,o),
(746,53,o),
(702,53,c),
(665,53,o),
(687,40,o),
(687,105,c),
(687,202,o),
(687,300,o),
(687,398,c),
(575,342,l),
(679,274,o),
(788,242,o),
(897,240,c),
(887,364,l),
(675,329,o),
(446,187,o),
(223,35,c),
(336,-20,l),
(336,386,l),
(240,325,l),
(303,304,o),
(366,282,o),
(429,261,c),
(408,374,l),
(351,328,o),
(166,269,o),
(55,268,c)
);
}
);
width = 1000;
},
{
layerId = "22BF860B-E605-42C1-AA52-30D9AB94E7CE";
shapes = (
{
closed = 1;
nodes = (
(165,585,l),
(250,587,o),
(377,596,o),
(511,607,c),
(624,616,o),
(742,627,o),
(841,633,c),
(835,702,l),
(736,690,o),
(619,679,o),
(506,670,c),
(373,659,o),
(246,651,o),
(165,653,c)
);
},
{
closed = 1;
nodes = (
(353,791,l),
(357,758,o),
(357,726,o),
(357,693,c),
(357,647,o),
(357,601,o),
(357,555,c),
(357,464,o),
(409,436,o),
(492,436,c),
(561,436,o),
(640,443,o),
(699,450,c),
(698,518,l),
(633,512,o),
(555,504,o),
(492,504,c),
(442,504,o),
(434,515,o),
(434,555,c),
(434,601,o),
(434,647,o),
(434,693,c),
(434,726,o),
(434,758,o),
(437,791,c)
);
},
{
closed = 1;
nodes = (
(68,173,l),
(202,171,o),
(382,214,o),
(479,289,c),
(468,356,l),
(402,378,o),
(340,399,o),
(279,420,c),
(229,386,l),
(229,-9,l),
(288,-39,l),
(502,107,o),
(719,241,o),
(892,269,c),
(886,339,l),
(801,340,o),
(716,370,o),
(628,428,c),
(570,397,l),
(570,303,o),
(570,208,o),
(570,84,c),
(570,-9,o),
(628,-32,o),
(696,-32,c),
(751,-32,o),
(837,-23,o),
(913,-4,c),
(911,69,l),
(826,48,o),
(742,38,o),
(696,38,c),
(658,38,o),
(647,51,o),
(647,113,c),
(647,208,o),
(647,302,o),
(647,397,c),
(592,372,l),
(688,308,o),
(788,282,o),
(830,282,c),
(840,326,l),
(687,300,o),
(463,169,o),
(247,21,c),
(306,-9,l),
(306,386,l),
(258,359,l),
(320,338,o),
(383,322,o),
(437,304,c),
(436,342,l),
(365,289,o),
(183,245,o),
(68,249,c)
);
}
);
width = 1000;
}
);
production = u1B023;
script = hentaigana;
unicode = 110627;
}
{
category = Letter;
color = 10;
glyphname = "ki-2-kana";
layers = (
{
backgroundImage = {
imagePath = "_sketch/u1B024.png";
locked = 1;
pos = (0,-85);
scale = (1,0.9256);
};
layerId = m01;
shapes = (
{
closed = 1;
nodes = (
(309,789,l),
(282,719,o),
(211,611,o),
(136,531,c),
(151,509,l),
(402,615,l),
(388,627,l),
(213,413,l),
(230,392,l),
(465,506,l),
(463,534,l),
(233,424,l),
(245,409,l),
(423,625,l),
(407,646,l),
(157,540,l),
(161,519,l),
(233,595,o),
(306,703,o),
(336,778,c)
);
},
{
closed = 1;
nodes = (
(570,686,l),
(630,740,o),
(709,770,o),
(753,770,c),
(775,770,o),
(788,763,o),
(788,749,c),
(788,715,o),
(725,680,o),
(633,649,c),
(641,624,l),
(722,649,o),
(752,660,o),
(791,660,c),
(807,660,o),
(832,659,o),
(832,632,c),
(832,579,o),
(719,529,o),
(527,490,c),
(532,464,l),
(727,504,o),
(862,555,o),
(862,632,c),
(862,680,o),
(820,686,o),
(793,686,c),
(747,686,o),
(714,674,o),
(656,648,c),
(639,631,l),
(734,662,o),
(818,693,o),
(818,749,c),
(818,783,o),
(792,796,o),
(753,796,c),
(698,796,o),
(616,765,o),
(552,707,c)
);
},
{
closed = 1;
nodes = (
(94,308,l),
(314,354,o),
(683,464,o),
(842,464,c),
(876,486,l),
(728,486,o),
(666,415,o),
(666,289,c),
(666,180,o),
(666,71,o),
(666,-19,c),
(682,-6,l),
(662,39,o),
(605,89,o),
(553,123,c),
(543,97,l),
(587,68,o),
(639,20,o),
(668,-45,c),
(696,-39,l),
(696,70,o),
(696,180,o),
(696,289,c),
(696,406,o),
(734,464,o),
(896,464,c),
(896,490,l),
(675,490,o),
(307,380,o),
(88,334,c)
);
},
{
closed = 1;
nodes = (
(299,351,l),
(270,291,o),
(218,219,o),
(152,164,c),
(166,141,l),
(374,220,l),
(357,241,l),
(210,17,l),
(232,-1,l),
(385,148,o),
(535,283,o),
(672,283,c),
(781,283,o),
(848,225,o),
(893,63,c),
(919,80,l),
(875,239,o),
(794,309,o),
(672,309,c),
(519,309,o),
(368,167,o),
(233,33,c),
(244,21,l),
(381,225,l),
(364,245,l),
(156,166,l),
(169,143,l),
(240,200,o),
(293,275,o),
(325,339,c)
);
}
);
width = 1000;
},
{
layerId = "027B829E-3619-44FF-8C68-78647B0AD671";
shapes = (
{
closed = 1;
nodes = (
(281,819,l),
(254,757,o),
(177,646,o),
(96,566,c),
(155,475,l),
(420,600,l),
(382,629,l),
(172,451,l),
(219,363,l),
(505,488,l),
(489,581,l),
(209,439,l),
(237,393,l),
(467,614,l),
(447,704,l),
(155,574,l),
(165,523,l),
(255,584,o),
(353,682,o),
(408,764,c)
);
},
{
closed = 1;
nodes = (
(540,661,l),
(618,731,o),
(703,748,o),
(710,748,c),
(718,748,o),
(725,745,o),
(725,740,c),
(725,725,o),
(683,702,o),
(594,672,c),
(631,595,l),
(713,627,o),
(740,636,o),
(748,636,c),
(762,636,o),
(771,637,o),
(771,623,c),
(771,599,o),
(689,568,o),
(511,532,c),
(551,453,l),
(715,486,o),
(892,523,o),
(892,627,c),
(892,693,o),
(818,715,o),
(795,715,c),
(724,715,o),
(672,685,o),
(651,664,c),
(718,679,l),
(724,681,o),
(847,642,o),
(847,760,c),
(847,818,o),
(774,848,o),
(735,848,c),
(662,848,o),
(575,812,o),
(501,745,c)
);
},
{
closed = 1;
nodes = (
(91,261,l),
(289,303,o),
(699,435,o),
(870,435,c),
(832,491,l),
(735,491,o),
(618,430,o),
(618,287,c),
(618,174,o),
(618,61,o),
(618,-52,c),
(722,-36,l),
(684,43,o),
(622,97,o),
(565,132,c),
(513,53,l),
(558,21,o),
(603,-23,o),
(627,-79,c),
(756,-52,l),
(756,61,o),
(756,174,o),
(756,287,c),
(756,393,o),
(753,423,o),
(908,423,c),
(908,530,l),
(710,530,o),
(274,421,o),
(67,377,c)
);
},
{
closed = 1;
nodes = (
(238,347,l),
(217,309,o),
(162,242,o),
(97,194,c),
(152,101,l),
(363,192,l),
(323,246,l),
(126,21,l),
(241,-46,l),
(389,116,o),
(542,247,o),
(649,247,c),
(766,247,o),
(798,197,o),
(838,49,c),
(954,120,l),
(916,259,o),
(831,349,o),
(677,349,c),
(477,349,o),
(319,191,o),
(199,46,c),
(249,13,l),
(399,210,l),
(362,280,l),
(126,171,l),
(168,151,l),
(231,183,o),
(302,252,o),
(339,299,c)
);
}
);
width = 1000;
},
{
layerId = "22BF860B-E605-42C1-AA52-30D9AB94E7CE";
shapes = (
{
closed = 1;
nodes = (
(286,798,l),
(262,733,o),
(193,624,o),
(121,545,c),
(159,490,l),
(394,590,l),
(347,610,l),
(196,427,l),
(238,374,l),
(474,487,l),
(460,555,l),
(245,445,l),
(258,416,l),
(438,609,l),
(409,669,l),
(162,559,l),
(204,538,l),
(250,584,o),
(325,690,o),
(359,769,c)
);
},
{
closed = 1;
nodes = (
(580,666,l),
(640,721,o),
(696,751,o),
(744,751,c),
(757,751,o),
(765,751,o),
(765,742,c),
(765,719,o),
(720,691,o),
(629,661,c),
(649,599,l),
(728,631,o),
(756,641,o),
(785,641,c),
(806,641,o),
(809,637,o),
(809,621,c),
(809,602,o),
(713,548,o),
(505,505,c),
(536,445,l),
(733,485,o),
(885,521,o),
(885,632,c),
(885,696,o),
(811,704,o),
(785,704,c),
(754,704,o),
(686,677,o),
(665,663,c),
(685,630,l),
(740,649,o),
(841,662,o),
(841,749,c),
(841,794,o),
(788,815,o),
(753,815,c),
(690,815,o),
(606,784,o),
(538,722,c)
);
},
{
closed = 1;
nodes = (
(98,288,l),
(321,334,o),
(689,447,o),
(848,447,c),
(838,490,l),
(728,490,o),
(641,443,o),
(641,268,c),
(641,180,o),
(641,71,o),
(641,-39,c),
(687,20,l),
(674,49,o),
(616,102,o),
(562,138,c),
(525,82,l),
(571,49,o),
(617,3,o),
(644,-63,c),
(721,-39,l),
(721,70,o),
(721,180,o),
(721,289,c),
(721,400,o),
(740,443,o),
(896,443,c),
(896,510,l),
(668,510,o),
(300,400,o),
(84,355,c)
);
},
{
closed = 1;
nodes = (
(279,361,l),
(252,303,o),
(202,232,o),
(139,180,c),
(173,122,l),
(370,199,l),
(324,221,l),
(188,22,l),
(229,-35,l),
(404,128,o),
(552,256,o),
(672,256,c),
(775,256,o),
(828,215,o),
(873,49,c),
(940,85,l),
(895,250,o),
(824,324,o),
(682,324,c),
(528,324,o),
(357,178,o),
(262,42,c),
(275,40,l),
(392,218,l),
(357,264,l),
(178,182,l),
(212,163,l),
(250,191,o),
(308,265,o),
(344,329,c)
);
}
);
width = 1000;
}
);
production = u1B024;
script = hentaigana;
unicode = 110628;
}
{
category = Letter;
color = 2;
glyphname = "ki-3-kana";
layers = (
{
backgroundImage = {
imagePath = "_sketch/u1B025.png";
locked = 1;
pos = (0,-120);
};
layerId = m01;
shapes = (
{
closed = 1;
nodes = (
(197,560,l),
(384,643,o),
(558,723,o),
(640,723,c),
(668,723,o),
(695,714,o),
(695,692,c),
(695,659,o),
(652,613,o),
(524,543,c),
(385,467,o),
(153,356,o),
(100,336,c),
(108,310,l),
(354,382,o),
(662,476,o),
(915,476,c),
(918,502,l),
(847,521,o),
(783,547,o),
(729,582,c),
(714,559,l),
(772,523,o),
(838,495,o),
(912,476,c),
(915,502,l),
(656,502,o),
(346,408,o),
(101,336,c),
(109,311,l),
(168,333,o),
(397,442,o),
(537,519,c),
(667,590,o),
(725,636,o),
(725,692,c),
(725,737,o),
(674,749,o),
(640,749,c),
(542,749,o),
(373,667,o),
(186,585,c)
);
},
{
closed = 1;
nodes = (
(414,800,l),
(430,754,o),
(461,677,o),
(487,611,c),
(578,387,o),
(681,164,o),
(769,-25,c),
(791,-8,l),
(705,66,o),
(624,120,o),
(546,165,c),
(533,142,l),
(610,97,o),
(688,43,o),
(773,-29,c),
(795,-13,l),
(708,176,o),
(604,399,o),
(514,622,c),
(488,688,o),
(456,765,o),
(441,809,c)
);
},
{
closed = 1;
nodes = (
(236,277,l),
(237,190,o),
(231,136,o),
(180,33,c),
(202,17,l),
(339,151,o),
(602,326,o),
(733,326,c),
(782,326,o),
(828,312,o),
(828,265,c),
(828,190,o),
(729,94,o),
(429,32,c),
(434,6,l),
(738,69,o),
(858,165,o),
(858,265,c),
(858,333,o),
(787,352,o),
(733,352,c),
(580,352,o),
(323,175,o),
(183,37,c),
(206,20,l),
(259,126,o),
(266,188,o),
(266,277,c)
);
}
);
width = 1000;
},
{
layerId = "027B829E-3619-44FF-8C68-78647B0AD671";
shapes = (
{
closed = 1;
nodes = (
(209,519,l),
(400,608,o),
(588,685,o),
(644,685,c),
(662,685,o),
(642,701,o),
(642,701,c),
(642,701,o),
(629,664,o),
(499,593,c),
(359,516,o),
(113,398,o),
(70,382,c),
(111,260,l),
(364,334,o),
(679,431,o),
(927,431,c),
(943,554,l),
(874,573,o),
(814,599,o),
(763,632,c),
(693,520,l),
(757,480,o),
(831,451,o),
(911,431,c),
(927,554,l),
(648,554,o),
(327,456,o),
(75,383,c),
(116,261,l),
(188,288,o),
(416,397,o),
(563,478,c),
(700,553,o),
(792,598,o),
(792,701,c),
(792,794,o),
(690,808,o),
(644,808,c),
(515,808,o),
(349,719,o),
(156,638,c)
);
},
{
closed = 1;
nodes = (
(357,794,l),
(375,743,o),
(407,664,o),
(434,597,c),
(528,364,o),
(636,133,o),
(726,-61,c),
(834,21,l),
(743,99,o),
(657,156,o),
(574,204,c),
(507,90,l),
(584,45,o),
(662,-9,o),
(747,-82,c),
(855,-1,l),
(765,193,o),
(659,423,o),
(567,650,c),
(540,718,o),
(508,799,o),
(494,840,c)
);
},
{
closed = 1;
nodes = (
(169,274,l),
(170,187,o),
(168,148,o),
(120,48,c),
(231,-32,l),
(364,98,o),
(645,276,o),
(740,276,c),
(780,276,o),
(778,270,o),
(778,261,c),
(778,235,o),
(718,133,o),
(417,70,c),
(442,-54,l),
(763,13,o),
(928,109,o),
(928,261,c),
(928,371,o),
(806,399,o),
(740,399,c),
(543,399,o),
(288,214,o),
(136,65,c),
(247,-16,l),
(306,98,o),
(318,179,o),
(319,274,c)
);
}
);
width = 1000;
},
{
layerId = "22BF860B-E605-42C1-AA52-30D9AB94E7CE";
shapes = (
{
closed = 1;
nodes = (
(206,539,l),
(391,627,o),
(569,705,o),
(640,705,c),
(663,705,o),
(672,696,o),
(672,680,c),
(672,651,o),
(641,630,o),
(514,560,c),
(376,485,o),
(141,372,o),
(93,354,c),
(114,292,l),
(360,363,o),
(667,458,o),
(915,458,c),
(923,521,l),
(853,539,o),
(792,566,o),
(739,599,c),
(708,549,l),
(768,516,o),
(836,492,o),
(884,483,c),
(915,521,l),
(651,521,o),
(344,413,o),
(157,359,c),
(154,333,l),
(165,338,o),
(405,424,o),
(546,501,c),
(678,573,o),
(749,618,o),
(749,692,c),
(749,756,o),
(678,768,o),
(652,768,c),
(531,768,o),
(365,684,o),
(177,606,c)
);
},
{
closed = 1;
nodes = (
(390,792,l),
(411,746,o),
(442,669,o),
(469,604,c),
(559,379,o),
(663,155,o),
(751,-33,c),
(803,6,l),
(716,80,o),
(634,135,o),
(556,181,c),
(523,126,l),
(600,82,o),
(677,28,o),
(761,-44,c),
(813,-4,l),
(726,184,o),
(623,407,o),
(533,629,c),
(506,695,o),
(475,773,o),
(465,817,c)
);
},
{
closed = 1;
nodes = (
(213,277,l),
(214,191,o),
(210,144,o),
(160,43,c),
(217,2,l),
(351,133,o),
(615,311,o),
(733,311,c),
(778,311,o),
(804,297,o),
(804,265,c),
(804,210,o),
(720,117,o),
(398,51,c),
(438,-13,l),
(745,51,o),
(881,145,o),
(881,265,c),
(881,348,o),
(791,370,o),
(733,370,c),
(565,370,o),
(317,184,o),
(205,75,c),
(222,41,l),
(271,121,o),
(283,187,o),
(290,277,c)
);
}
);
width = 1000;
}
);
production = u1B025;
script = hentaigana;
unicode = 110629;
}
{
category = Letter;
color = 2;
glyphname = "ki-4-kana";
layers = (
{
backgroundImage = {
imagePath = "_sketch/u1B026.png";
locked = 1;
pos = (0,-120);
};
layerId = m01;
shapes = (
{
closed = 1;
nodes = (
(241,633,l),
(309,588,o),
(413,575,o),
(481,575,c),
(571,575,o),
(722,599,o),
(722,688,c),
(722,750,o),
(651,795,o),
(582,795,c),
(539,795,o),
(504,750,o),
(494,691,c),
(483,635,o),
(482,599,o),
(482,516,c),
(482,377,o),
(513,223,o),
(513,131,c),
(513,43,o),
(465,-1,o),
(373,-1,c),
(282,-1,o),
(237,54,o),
(237,90,c),
(237,149,o),
(283.997,185,o),
(387,185,c),
(557,185,o),
(677,123,o),
(780,20,c),
(799,40,l),
(693,147,o),
(564,211,o),
(387,211,c),
(277,211,o),
(207,166,o),
(207,90,c),
(207,31,o),
(272,-27,o),
(373,-27,c),
(474,-27,o),
(543,30,o),
(543,131,c),
(543,229,o),
(512,382,o),
(512,516,c),
(512,599,o),
(512,631,o),
(523,686,c),
(532,737,o),
(559,769,o),
(582,769,c),
(639,769,o),
(692,725,o),
(692,688,c),
(692,639,o),
(565,601,o),
(481,601,c),
(416,601,o),
(315,617,o),
(256,656,c)
);
}
);
width = 1000;
},
{
background = {
shapes = (
{
closed = 1;
nodes = (
(256,49,o),
(214,67,o),
(214,103,cs),
(214,137,o),
(261,174,o),
(356,174,cs),
(394,174,o),
(427,170,o),
(457,163,c),
(453,80,o),
(397,49,o),
(305,49,cs)
);
},
{
closed = 1;
nodes = (
(334,744,l),
(351,740,o),
(388,732,o),
(412,718,cs),
(428,709,o),
(435,700,o),
(437,681,cs),
(440,651,o),
(447,479,o),
(449,429,cs),
(451,378,o),
(455,335,o),
(456,257,c),
(437,257,ls),
(282,257,o),
(158,204,o),
(158,87,cs),
(158,-9,o),
(247,-59,o),
(363,-59,cs),
(539,-59,o),
(573,24,o),
(573,101,cs),
(573,107,o),
(573,114,o),
(572,120,c),
(583,114,o),
(594,108,o),
(604,102,cs),
(701,46,o),
(741,-29,o),
(799,-29,cs),
(832,-29,o),
(854,-11,o),
(854,30,cs),
(854,101,o),
(782,158,o),
(702,196,cs),
(668,213,o),
(616,233,o),
(554,245,c),
(547,302,o),
(546,353,o),
(546,394,cs),
(546,418,o),
(548,460,o),
(552,504,c),
(582,486,o),
(619,468,o),
(648,468,cs),
(714,468,o),
(782,489,o),
(802,498,cs),
(833,512,o),
(842,529,o),
(842,552,cs),
(842,608,o),
(772,619,o),
(734,619,cs),
(730,619,o),
(710,605,o),
(673,591,cs),
(636,575,o),
(585,565,o),
(559,563,c),
(563,594,o),
(567,621,o),
(572,635,cs),
(581,660,o),
(602,671,o),
(602,697,cs),
(602,740,o),
(520,797,o),
(442,797,cs),
(402,797,o),
(361,773,o),
(333,753,c)
);
}
);
};
layerId = "027B829E-3619-44FF-8C68-78647B0AD671";
shapes = (
{
closed = 1;
nodes = (
(204,597,l),
(291,539,o),
(403,533,o),
(481,533,c),
(585,533,o),
(788,527,o),
(788,698,c),
(788,811,o),
(678,855,o),
(585,855,c),
(504,855,o),
(450,788,o),
(436,711,c),
(425,650,o),
(422,607,o),
(422,520,c),
(422,368,o),
(454,205,o),
(454,124,c),
(454,57,o),
(448,36,o),
(369,36,c),
(294,36,o),
(289,81,o),
(289,81,c),
(289,107,o),
(290,131,o),
(384,131,c),
(547,131,o),
(651,70,o),
(750,-29,c),
(847,67,l),
(729,185,o),
(577,254,o),
(384,254,c),
(258,254,o),
(139,194,o),
(139,81,c),
(139,-25,o),
(246,-87,o),
(369,-87,c),
(490,-87,o),
(604,-5,o),
(604,124,c),
(604,238,o),
(572,391,o),
(572,520,c),
(572,605,o),
(571,631,o),
(580,684,c),
(587,721,o),
(585,732,o),
(585,732,c),
(621,732,o),
(638,698,o),
(638,698,c),
(638,698,o),
(556,656,o),
(481,656,c),
(421,656,o),
(321,679,o),
(277,708,c)
);
}
);
width = 1000;
},
{
layerId = "22BF860B-E605-42C1-AA52-30D9AB94E7CE";
shapes = (
{
closed = 1;
nodes = (
(229,616,l),
(304,566,o),
(409,550,o),
(481,550,c),
(632,550,o),
(745,607,o),
(745,683,c),
(745,753,o),
(660,813,o),
(589,813,c),
(525,813,o),
(483,761,o),
(471,695,c),
(460,638,o),
(458,600,o),
(458,516,c),
(458,373,o),
(490,218,o),
(490,131,c),
(490,52,o),
(457,23,o),
(373,23,c),
(291,23,o),
(260,59,o),
(260,90,c),
(260,135,o),
(289,167,o),
(387,167,c),
(553,167,o),
(665,105,o),
(765,5,c),
(817,63,l),
(709,171,o),
(569,233,o),
(387,233,c),
(272,233,o),
(183,180,o),
(183,90,c),
(183,13,o),
(264,-45,o),
(373,-45,c),
(481,-45,o),
(567,-19,o),
(567,117,c),
(567,235,o),
(535,385,o),
(535,516,c),
(535,599,o),
(537,636,o),
(545,681,c),
(552,717,o),
(564,750,o),
(593,750,c),
(631,750,o),
(668,716,o),
(668,688,c),
(668,651,o),
(601,619,o),
(481,619,c),
(419,619,o),
(319,638,o),
(250,684,c)
);
}
);
width = 1000;
}
);
production = u1B026;
script = hentaigana;
unicode = 110630;
}
{
category = Letter;
color = 3;
glyphname = "ki-5-kana";
layers = (
{
backgroundImage = {
imagePath = "_sketch/u1B027.png";
locked = 1;
pos = (0,-120);
};
layerId = m01;
shapes = (
{
closed = 1;
nodes = (
(120,584,l),
(209,571,o),
(274,565,o),
(380,565,c),
(502,565,o),
(727,599,o),
(875,620,c),
(874,647,l),
(724,625,o),
(497,591,o),
(380,591,c),
(275,591,o),
(212,597,o),
(121,610,c)
);
},
{
closed = 1;
nodes = (
(487,789,l),
(489,726,o),
(489,663,o),
(489,600,c),
(489,390,o),
(489,181,o),
(489,-1,c),
(501,13,l),
(481,63,o),
(427,108,o),
(353,160,c),
(336,139,l),
(410,86,o),
(457,47,o),
(490,-34,c),
(519,-29,l),
(519,181,o),
(519,391,o),
(519,600,c),
(519,663,o),
(519,726,o),
(520,789,c)
);
},
{
closed = 1;
nodes = (
(342,471,l),
(308,343,o),
(190,221,o),
(80,129,c),
(97,108,l),
(268,249,o),
(360,326,o),
(523,326,c),
(657,326,o),
(791,269,o),
(900,102,c),
(921,123,l),
(811,291,o),
(665,352,o),
(523,352,c),
(352,352,o),
(255,266,o),
(99,137,c),
(110,126,l),
(206,205,o),
(334,324,o),
(370,464,c)
);
}
);
width = 1000;
},
{
layerId = "027B829E-3619-44FF-8C68-78647B0AD671";
shapes = (
{
closed = 1;
nodes = (
(101,536,l),
(194,524,o),
(265,517,o),
(377,517,c),
(512,517,o),
(742,553,o),
(894,574,c),
(892,711,l),
(722,685,o),
(487,650,o),
(377,650,c),
(270,650,o),
(210,656,o),
(100,674,c)
);
},
{
closed = 1;
nodes = (
(424,801,l),
(429,736,o),
(429,672,o),
(429,607,c),
(429,391,o),
(429,175,o),
(429,36,c),
(527,-32,l),
(490,60,o),
(446,128,o),
(367,183,c),
(300,89,l),
(376,36,o),
(408,3,o),
(437,-68,c),
(579,-41,l),
(579,175,o),
(579,391,o),
(579,607,c),
(579,672,o),
(579,736,o),
(584,801,c)
);
},
{
closed = 1;
nodes = (
(281,489,l),
(253,380,o),
(144,254,o),
(33,163,c),
(119,59,l),
(295,204,o),
(371,276,o),
(524,276,c),
(648,276,o),
(762,222,o),
(862,69,c),
(962,172,l),
(857,332,o),
(683,399,o),
(524,399,c),
(332,399,o),
(257,250,o),
(143,155,c),
(146,124,l),
(214,181,o),
(379,285,o),
(422,452,c)
);
}
);
width = 1000;
},
{
layerId = "22BF860B-E605-42C1-AA52-30D9AB94E7CE";
shapes = (
{
closed = 1;
nodes = (
(116,559,l),
(206,548,o),
(273,542,o),
(380,542,c),
(507,542,o),
(731,576,o),
(879,594,c),
(868,673,l),
(720,648,o),
(493,614,o),
(380,614,c),
(276,614,o),
(215,620,o),
(123,635,c)
);
},
{
closed = 1;
nodes = (
(460,789,l),
(464,726,o),
(464,663,o),
(464,600,c),
(464,390,o),
(464,181,o),
(464,-29,c),
(515,19,l),
(493,72,o),
(437,122,o),
(361,175,c),
(323,121,l),
(397,69,o),
(437,33,o),
(468,-43,c),
(544,-29,l),
(544,181,o),
(544,391,o),
(544,600,c),
(544,663,o),
(544,726,o),
(547,789,c)
);
},
{
closed = 1;
nodes = (
(318,478,l),
(287,359,o),
(174,237,o),
(65,146,c),
(112,90,l),
(282,232,o),
(366,305,o),
(523,305,c),
(652,305,o),
(775,250,o),
(877,95,c),
(940,136,l),
(826,309,o),
(671,372,o),
(523,372,c),
(345,372,o),
(248,274,o),
(102,153,c),
(133,151,l),
(202,208,o),
(355,308,o),
(394,458,c)
);
}
);
width = 1000;
}
);
production = u1B027;
script = hentaigana;
unicode = 110631;
}
{
category = Letter;
color = 3;
glyphname = "ki-6-kana";
layers = (
{
backgroundImage = {
imagePath = "_sketch/u1B028.png";
locked = 1;
pos = (0,-120);
};
layerId = m01;
shapes = (
{
closed = 1;
nodes = (
(211,783,l),
(263,726,o),
(336,686,o),
(382,671,c),
(378,688,l),
(325,680,o),
(255,662,o),
(180,635,c),
(193,614,l),
(261,638,o),
(330,655,o),
(399,665,c),
(402,691,l),
(349,709,o),
(279,749,o),
(231,802,c)
);
},
{
closed = 1;
nodes = (
(90,463,l),
(193,485,o),
(266,511,o),
(338,542,c),
(318,554,l),
(318,371,o),
(316,136,o),
(305,-20,c),
(328,-10,l),
(119,147,l),
(122,128,l),
(228,285,o),
(374,465,o),
(512,599,c),
(626,710,o),
(696,744,o),
(744,744,c),
(793,744,o),
(830,724,o),
(830,659,c),
(830,588,o),
(761,494,o),
(612,419,c),
(625,395,l),
(710,440,o),
(748,461,o),
(791,461,c),
(841,461,o),
(879,430,o),
(879,357,c),
(879,202,o),
(715,50,o),
(529,-8,c),
(545,-34,l),
(734,25,o),
(909,181,o),
(909,357,c),
(909,447,o),
(860,487,o),
(791,487,c),
(743,487,o),
(698,463,o),
(633,420,c),
(642,410,l),
(776,477,o),
(860,578,o),
(860,659,c),
(860,737,o),
(801,770,o),
(744,770,c),
(685,770,o),
(609,732,o),
(493,619,c),
(353,483,o),
(206,303,o),
(99,144,c),
(102,125,l),
(312,-32,l),
(335,-22,l),
(346,135,o),
(348,371,o),
(348,554,c),
(328,566,l),
(257,537,o),
(186,512,o),
(84,492,c)
);
}
);
width = 1000;
},
{
layerId = "027B829E-3619-44FF-8C68-78647B0AD671";
shapes = (
{
closed = 1;
nodes = (
(164,761,l),
(226,694,o),
(315,666,o),
(354,653,c),
(390,719,l),
(316,708,o),
(242,689,o),
(150,656,c),
(199,576,l),
(267,601,o),
(335,618,o),
(403,628,c),
(414,745,l),
(367,761,o),
(302,803,o),
(261,849,c)
);
},
{
closed = 1;
nodes = (
(87,419,l),
(197,442,o),
(276,471,o),
(352,502,c),
(257,559,l),
(257,371,o),
(255,129,o),
(247,12,c),
(299,44,l),
(137,179,l),
(154,91,l),
(261,250,o),
(397,444,o),
(537,581,c),
(651,692,o),
(702,710,o),
(734,710,c),
(767,710,o),
(784,702,o),
(784,668,c),
(784,604,o),
(738,536,o),
(570,452,c),
(616,333,l),
(736,401,o),
(775,418,o),
(797,418,c),
(816,418,o),
(835,402,o),
(835,356,c),
(835,235,o),
(682,95,o),
(480,32,c),
(561,-91,l),
(770,-26,o),
(977,137,o),
(977,356,c),
(977,462,o),
(922,535,o),
(838,535,c),
(735,535,o),
(666,473,o),
(637,415,c),
(663,411,l),
(789,474,o),
(926,545,o),
(926,668,c),
(926,773,o),
(825,827,o),
(751,827,c),
(670,827,o),
(581,782,o),
(457,663,c),
(310,519,o),
(159,330,o),
(57,178,c),
(64,81,l),
(241,-86,l),
(385,-38,l),
(397,128,o),
(399,370,o),
(399,559,c),
(305,616,l),
(232,586,o),
(163,562,o),
(62,542,c)
);
}
);
width = 1000;
},
{
layerId = "22BF860B-E605-42C1-AA52-30D9AB94E7CE";
shapes = (
{
closed = 1;
nodes = (
(194,768,l),
(249,707,o),
(325,666,o),
(386,645,c),
(377,698,l),
(323,690,o),
(252,672,o),
(181,646,c),
(200,593,l),
(267,618,o),
(335,635,o),
(402,645,c),
(408,711,l),
(359,728,o),
(293,769,o),
(248,817,c)
);
},
{
closed = 1;
nodes = (
(89,440,l),
(199,464,o),
(274,491,o),
(346,522,c),
(294,554,l),
(294,371,o),
(292,136,o),
(281,-18,c),
(341,8,l),
(132,164,l),
(141,115,l),
(246,271,o),
(391,450,o),
(528,583,c),
(640,692,o),
(705,724,o),
(744,724,c),
(787,724,o),
(805,708,o),
(805,665,c),
(805,595,o),
(748,511,o),
(603,438,c),
(634,376,l),
(720,420,o),
(759,439,o),
(793,439,c),
(833,439,o),
(855,430,o),
(855,357,c),
(855,218,o),
(699,73,o),
(511,15,c),
(552,-53,l),
(746,7,o),
(934,165,o),
(934,357,c),
(934,454,o),
(900,507,o),
(803,507,c),
(748,507,o),
(680,471,o),
(640,423,c),
(663,405,l),
(785,467,o),
(884,561,o),
(884,659,c),
(884,748,o),
(808,790,o),
(744,790,c),
(676,790,o),
(598,746,o),
(480,632,c),
(339,494,o),
(188,317,o),
(80,156,c),
(89,107,l),
(299,-49,l),
(359,-24,l),
(370,135,o),
(372,370,o),
(372,554,c),
(320,586,l),
(249,557,o),
(180,533,o),
(80,514,c)
);
}
);
width = 1000;
}
);
production = u1B028;
script = hentaigana;
unicode = 110632;
}
{
category = Letter;
color = 2;
glyphname = "ki-7-kana";
layers = (
{
backgroundImage = {
imagePath = "_sketch/u1B029.png";
locked = 1;
pos = (48,-120);
};
layerId = m01;
shapes = (
{
closed = 1;
nodes = (
(185,709,l),
(185,624,o),
(215,532,o),
(259,488,c),
(281,491,l),
(309,534,o),
(347,576,o),
(395,618,c),
(376,639,l),
(327,596,o),
(287,552,o),
(257,506,c),
(279,508,l),
(245,542,o),
(215,631,o),
(215,709,c)
);
},
{
closed = 1;
nodes = (
(790,749,l),
(744,667,o),
(670,596,o),
(557,547,c),
(567,523,l),
(686,573,o),
(766,648,o),
(815,735,c)
);
},
{
closed = 1;
nodes = (
(93,300,l),
(164,318,o),
(247,335,o),
(337,349,c),
(516,378,o),
(724,398,o),
(926,398,c),
(930,424,l),
(842,452,o),
(764,489,o),
(696,532,c),
(681,509,l),
(751,464,o),
(832,427,o),
(922,399,c),
(926,424,l),
(722,424,o),
(513,405,o),
(333,375,c),
(242,361,o),
(159,344,o),
(87,326,c)
);
},
{
closed = 1;
nodes = (
(496,789,l),
(491,747,o),
(485,703,o),
(479,657,c),
(463,529,o),
(448,390,o),
(448,263,c),
(464,250,l),
(522,255,o),
(579,261,o),
(637,266,c),
(631,292,l),
(419,204,o),
(339,134,o),
(339,62,c),
(339,-11,o),
(422,-25,o),
(519,-25,c),
(612,-25,o),
(697,-16,o),
(757,-6,c),
(753,20,l),
(694,10,o),
(610,1,o),
(519,1,c),
(424,1,o),
(369,11,o),
(369,62,c),
(369,110,o),
(432,181,o),
(641,267,c),
(635,292,l),
(577,287,o),
(519,282,o),
(462,276,c),
(478,263,l),
(478,387,o),
(493,525,o),
(509,653,c),
(515,699,o),
(520,743,o),
(526,785,c)
);
}
);
width = 1000;
},
{
layerId = "027B829E-3619-44FF-8C68-78647B0AD671";
shapes = (
{
closed = 1;
nodes = (
(116,719,l),
(116,616,o),
(148,518,o),
(214,453,c),
(321,464,l),
(346,503,o),
(380,544,o),
(426,585,c),
(338,687,l),
(283,641,o),
(238,592,o),
(203,540,c),
(310,550,l),
(295,565,o),
(266,653,o),
(266,719,c)
);
},
{
closed = 1;
nodes = (
(750,788,l),
(709,713,o),
(645,647,o),
(538,599,c),
(590,480,l),
(722,534,o),
(815,619,o),
(873,719,c)
);
},
{
closed = 1;
nodes = (
(93,249,l),
(165,268,o),
(249,285,o),
(340,300,c),
(522,329,o),
(734,351,o),
(939,351,c),
(958,473,l),
(871,501,o),
(796,539,o),
(730,581,c),
(658,469,l),
(735,420,o),
(823,382,o),
(919,351,c),
(939,474,l),
(726,474,o),
(508,455,o),
(320,424,c),
(225,409,o),
(138,391,o),
(62,372,c)
);
},
{
closed = 1;
nodes = (
(438,809,l),
(433,766,o),
(426,720,o),
(421,672,c),
(404,540,o),
(387,395,o),
(387,260,c),
(467,198,l),
(527,203,o),
(586,209,o),
(646,214,c),
(615,336,l),
(392,244,o),
(274,174,o),
(274,52,c),
(274,-67,o),
(415,-85,o),
(520,-85,c),
(619,-85,o),
(708,-77,o),
(772,-66,c),
(752,58,l),
(694,48,o),
(610,38,o),
(520,38,c),
(426,38,o),
(424,45,o),
(424,52,c),
(424,54,o),
(454,130,o),
(665,216,c),
(634,338,l),
(575,333,o),
(515,327,o),
(456,322,c),
(537,260,l),
(537,383,o),
(551,523,o),
(567,654,c),
(573,701,o),
(579,747,o),
(585,790,c)
);
}
);
width = 1000;
},
{
layerId = "22BF860B-E605-42C1-AA52-30D9AB94E7CE";
shapes = (
{
closed = 1;
nodes = (
(161,709,l),
(161,618,o),
(192,525,o),
(244,474,c),
(299,479,l),
(325,520,o),
(362,562,o),
(408,603,c),
(384,659,l),
(319,604,o),
(278,559,o),
(248,512,c),
(293,523,l),
(267,549,o),
(238,637,o),
(238,725,c)
);
},
{
closed = 1;
nodes = (
(771,760,l),
(728,681,o),
(659,613,o),
(534,557,c),
(575,506,l),
(697,556,o),
(782,634,o),
(834,725,c)
);
},
{
closed = 1;
nodes = (
(99,275,l),
(169,297,o),
(251,314,o),
(340,328,c),
(518,357,o),
(725,377,o),
(926,377,c),
(937,445,l),
(850,472,o),
(773,506,o),
(707,549,c),
(670,492,l),
(742,446,o),
(822,416,o),
(822,416,c),
(876,439,l),
(721,439,o),
(511,426,o),
(329,397,c),
(238,382,o),
(154,365,o),
(80,350,c)
);
},
{
closed = 1;
nodes = (
(469,793,l),
(468,750,o),
(462,706,o),
(456,660,c),
(440,531,o),
(424,392,o),
(424,263,c),
(466,228,l),
(524,233,o),
(581,238,o),
(603,240,c),
(575,277,l),
(393,202,o),
(315,140,o),
(315,62,c),
(315,-29,o),
(400,-47,o),
(519,-47,c),
(613,-47,o),
(699,-38,o),
(760,-28,c),
(758,43,l),
(691,33,o),
(609,23,o),
(519,23,c),
(426,23,o),
(392,36,o),
(392,62,c),
(392,104,o),
(443,161,o),
(654,248,c),
(645,315,l),
(575,309,o),
(517,304,o),
(460,299,c),
(501,263,l),
(501,386,o),
(516,523,o),
(532,650,c),
(538,696,o),
(544,740,o),
(553,782,c)
);
}
);
width = 1000;
}
);
production = u1B029;
script = hentaigana;
unicode = 110633;
}
{
category = Letter;
color = 2;
glyphname = "ki-8-kana";
layers = (
{
backgroundImage = {
imagePath = "_sketch/u1B02A.png";
locked = 1;
pos = (0,-120);
};
layerId = m01;
shapes = (
{
closed = 1;
nodes = (
(42,623,l),
(74,614,o),
(119,609,o),
(172,609,c),
(225,609,o),
(354,618,o),
(437,635,c),
(432,661,l),
(352,645,o),
(222,635,o),
(172,635,c),
(121,635,o),
(77,641,o),
(49,649,c)
);
},
{
closed = 1;
nodes = (
(266,797,l),
(251,762,o),
(236,722,o),
(221,681,c),
(188,584,o),
(161,476,o),
(161,383,c),
(183,372,l),
(228,398,o),
(283,416,o),
(328,424,c),
(311,434,l),
(320,388,o),
(300,261,o),
(222,140,c),
(246,125,l),
(328,251,o),
(352,378,o),
(340,440,c),
(324,450,l),
(276,442,o),
(218,424,o),
(169,395,c),
(191,383,l),
(191,470,o),
(216,576,o),
(249,671,c),
(263,712,o),
(278,751,o),
(293,786,c)
);
},
{
closed = 1;
nodes = (
(131,-40,l),
(291,184,o),
(524,527,o),
(610,630,c),
(672,704,o),
(722,737,o),
(765,737,c),
(804,737,o),
(830,686,o),
(830,590,c),
(830,496,o),
(804,415,o),
(763,348,c),
(783,352,l),
(732,388,o),
(671,408,o),
(611,424,c),
(597,420,l),
(556,367,o),
(539,286,o),
(539,190,c),
(539,50,o),
(602,-9,o),
(692,-9,c),
(777,-9,o),
(856,0,o),
(922,10,c),
(918,36,l),
(853,27,o),
(775,17,o),
(692,17,c),
(612,17,o),
(569,57,o),
(569,190,c),
(569,283,o),
(585,358,o),
(619,403,c),
(605,398,l),
(663,383,o),
(721,362,o),
(768,329,c),
(788,333,l),
(831,404,o),
(860,490,o),
(860,590,c),
(860,693,o),
(825,763,o),
(765,763,c),
(709,763,o),
(652,725,o),
(588,648,c),
(498,540,o),
(267,200,o),
(107,-23,c)
);
}
);
width = 1000;
},
{
layerId = "027B829E-3619-44FF-8C68-78647B0AD671";
shapes = (
{
closed = 1;
nodes = (
(15,582,l),
(54,571,o),
(104,568,o),
(162,568,c),
(223,568,o),
(353,575,o),
(445,594,c),
(420,718,l),
(344,702,o),
(208,691,o),
(162,691,c),
(113,691,o),
(71,699,o),
(49,705,c)
);
},
{
closed = 1;
nodes = (
(207,832,l),
(191,795,o),
(175,753,o),
(159,708,c),
(124,605,o),
(91,490,o),
(91,383,c),
(200,327,l),
(239,350,o),
(290,370,o),
(331,377,c),
(249,425,l),
(252,409,o),
(241,277,o),
(167,163,c),
(285,87,l),
(376,228,o),
(410,357,o),
(393,452,c),
(310,501,l),
(255,491,o),
(190,475,o),
(132,440,c),
(241,383,l),
(241,461,o),
(263,567,o),
(295,661,c),
(309,702,o),
(324,742,o),
(339,776,c)
);
},
{
closed = 1;
nodes = (
(164,-84,l),
(329,148,o),
(573,504,o),
(655,602,c),
(714,674,o),
(752,700,o),
(773,700,c),
(774,700,o),
(780,684,o),
(780,597,c),
(780,511,o),
(761,437,o),
(724,376,c),
(822,394,l),
(761,437,o),
(692,457,o),
(627,474,c),
(556,454,l),
(502,384,o),
(481,290,o),
(481,185,c),
(481,25,o),
(586,-69,o),
(697,-69,c),
(789,-69,o),
(873,-60,o),
(942,-50,c),
(924,74,l),
(857,65,o),
(780,54,o),
(697,54,c),
(634,54,o),
(631,63,o),
(631,185,c),
(631,273,o),
(643,340,o),
(666,370,c),
(595,350,l),
(653,335,o),
(705,313,o),
(746,285,c),
(844,303,l),
(894,384,o),
(930,483,o),
(930,597,c),
(930,714,o),
(874,823,o),
(773,823,c),
(692,823,o),
(619,775,o),
(549,691,c),
(450,572,o),
(215,225,o),
(51,-3,c)
);
}
);
width = 1000;
},
{
layerId = "22BF860B-E605-42C1-AA52-30D9AB94E7CE";
shapes = (
{
closed = 1;
nodes = (
(36,601,l),
(71,591,o),
(117,587,o),
(172,587,c),
(228,587,o),
(355,595,o),
(442,613,c),
(438,685,l),
(350,667,o),
(220,656,o),
(172,656,c),
(122,656,o),
(80,663,o),
(48,673,c)
);
},
{
closed = 1;
nodes = (
(244,807,l),
(230,771,o),
(215,730,o),
(200,688,c),
(166,590,o),
(138,480,o),
(138,383,c),
(193,354,l),
(235,379,o),
(288,398,o),
(331,405,c),
(289,430,l),
(295,396,o),
(282,268,o),
(185,117,c),
(243,127,l),
(324,253,o),
(370,372,o),
(357,443,c),
(321,469,l),
(270,460,o),
(210,443,o),
(159,412,c),
(212,406,l),
(212,466,o),
(238,570,o),
(270,664,c),
(284,704,o),
(299,743,o),
(320,784,c)
);
},
{
closed = 1;
nodes = (
(153,-56,l),
(310,171,o),
(545,515,o),
(628,614,c),
(688,687,o),
(733,714,o),
(758,714,c),
(785,714,o),
(806,682,o),
(806,590,c),
(806,500,o),
(782,424,o),
(743,361,c),
(797,371,l),
(742,410,o),
(678,431,o),
(617,447,c),
(578,434,l),
(532,374,o),
(516,289,o),
(516,190,c),
(516,44,o),
(549,-33,o),
(692,-33,c),
(779,-33,o),
(859,-23,o),
(925,-13,c),
(922,60,l),
(850,50,o),
(774,40,o),
(692,40,c),
(621,40,o),
(593,63,o),
(593,190,c),
(593,280,o),
(609,351,o),
(638,388,c),
(599,376,l),
(656,360,o),
(711,341,o),
(754,310,c),
(808,321,l),
(853,395,o),
(883,486,o),
(883,590,c),
(883,720,o),
(844,787,o),
(765,787,c),
(691,787,o),
(634,734,o),
(573,661,c),
(480,550,o),
(251,211,o),
(85,-7,c)
);
}
);
width = 1000;
}
);
production = u1B02A;
script = hentaigana;
unicode = 110634;
}
{
category = Letter;
color = 3;
glyphname = "ku-1-kana";
layers = (
{
backgroundImage = {
imagePath = "_sketch/u1B02B.png";
locked = 1;
pos = (0,-120);
};
layerId = m01;
shapes = (
{
closed = 1;
nodes = (
(450,786,l),
(413,654,o),
(331,537,o),
(209,421,c),
(228,401,l),
(400,573,o),
(529,631,o),
(603,631,c),
(636,631,o),
(652,620,o),
(652,580,c),
(652,533,o),
(616,471,o),
(474,351,c),
(330,230,o),
(236,165,o),
(77,38,c),
(94,16,l),
(280,166,o),
(378,234,o),
(505,234,c),
(662,234,o),
(790,150,o),
(889,-11,c),
(911,8,l),
(810,171,o),
(671,260,o),
(505,260,c),
(368,260,o),
(232,158,o),
(89,31,c),
(93,26,l),
(248,150,o),
(347,209,o),
(491,330,c),
(636,451,o),
(682,516,o),
(682,575,c),
(682,635,o),
(655,657,o),
(606,657,c),
(517,657,o),
(387,591,o),
(224,427,c),
(231,416,l),
(348,522,o),
(436,642,o),
(479,778,c)
);
}
);
width = 1000;
},
{
layerId = "027B829E-3619-44FF-8C68-78647B0AD671";
shapes = (
{
closed = 1;
nodes = (
(390,815,l),
(356,692,o),
(281,579,o),
(161,464,c),
(261,361,l),
(435,536,o),
(514,587,o),
(579,587,c),
(584,587,o),
(593,585,o),
(593,573,c),
(593,551,o),
(585,510,o),
(440,389,c),
(294,266,o),
(194,204,o),
(29,72,c),
(124,-46,l),
(304,119,o),
(392,178,o),
(505,178,c),
(649,178,o),
(756,100,o),
(856,-62,c),
(963,44,l),
(862,208,o),
(691,297,o),
(523,297,c),
(350,297,o),
(231,214,o),
(124,12,c),
(134,-3,l),
(269,105,o),
(368,171,o),
(517,297,c),
(669,424,o),
(750,487,o),
(750,601,c),
(750,679,o),
(698,716,o),
(636,716,c),
(493,716,o),
(380,602,o),
(228,451,c),
(274,417,l),
(377,498,o),
(480,624,o),
(537,773,c)
);
}
);
width = 1000;
},
{
layerId = "22BF860B-E605-42C1-AA52-30D9AB94E7CE";
shapes = (
{
closed = 1;
nodes = (
(427,793,l),
(392,666,o),
(313,552,o),
(193,438,c),
(244,385,l),
(414,555,o),
(539,610,o),
(590,610,c),
(615,610,o),
(627,599,o),
(627,575,c),
(627,546,o),
(601,487,o),
(459,368,c),
(316,248,o),
(223,183,o),
(63,55,c),
(108,-1,l),
(292,149,o),
(385,213,o),
(505,213,c),
(655,213,o),
(773,133,o),
(867,-20,c),
(931,20,l),
(827,188,o),
(676,274,o),
(510,274,c),
(405,274,o),
(255,198,o),
(120,68,c),
(127,39,l),
(221,114,o),
(394,228,o),
(501,318,c),
(647,440,o),
(707,503,o),
(707,575,c),
(707,639,o),
(653,677,o),
(606,677,c),
(507,677,o),
(388,589,o),
(243,443,c),
(257,432,l),
(358,514,o),
(452,633,o),
(502,771,c)
);
}
);
width = 1000;
}
);
production = u1B02B;
script = hentaigana;
unicode = 110635;
}
{
category = Letter;
color = 2;
glyphname = "ku-2-kana";
layers = (
{
backgroundImage = {
imagePath = "_sketch/u1B02C.png";
locked = 1;
pos = (0,-120);
};
layerId = m01;
shapes = (
{
closed = 1;
nodes = (
(555,780,l),
(514,696,o),
(428,615,o),
(286,548,c),
(296,523,l),
(392,553,o),
(439,564,o),
(491,564,c),
(550,564,o),
(586,538,o),
(586,507,c),
(586,440,o),
(374,327,o),
(153,264,c),
(156,238,l),
(429,238,o),
(662,153,o),
(835,-62,c),
(857,-44,l),
(679,178,o),
(434,264,o),
(156,264,c),
(160,238,l),
(384,302,o),
(616,392,o),
(616,507,c),
(616,560,o),
(557,590,o),
(491,590,c),
(435,591,o),
(385,578,o),
(288,548,c),
(298,523,l),
(443,593,o),
(536,675,o),
(581,767,c)
);
}
);
width = 1000;
},
{
layerId = "027B829E-3619-44FF-8C68-78647B0AD671";
shapes = (
{
closed = 1;
nodes = (
(506,816,l),
(471,745,o),
(397,666,o),
(258,599,c),
(305,479,l),
(403,509,o),
(445,519,o),
(490,522,c),
(537,522,o),
(529,511,o),
(529,511,c),
(529,511,o),
(351,372,o),
(129,309,c),
(146,186,l),
(417,186,o),
(636,99,o),
(802,-109,c),
(910,-22,l),
(716,219,o),
(442,309,o),
(146,309,c),
(164,186,l),
(399,253,o),
(679,296,o),
(679,511,c),
(679,610,o),
(573,645,o),
(490,645,c),
(426,648,o),
(367,633,o),
(267,601,c),
(314,481,l),
(471,556,o),
(580,644,o),
(634,754,c)
);
}
);
width = 1000;
},
{
layerId = "22BF860B-E605-42C1-AA52-30D9AB94E7CE";
shapes = (
{
closed = 1;
nodes = (
(535,789,l),
(497,712,o),
(417,632,o),
(278,566,c),
(302,504,l),
(397,535,o),
(442,546,o),
(488,546,c),
(536,546,o),
(562,529,o),
(562,501,c),
(562,438,o),
(367,345,o),
(147,283,c),
(156,220,l),
(425,220,o),
(650,135,o),
(818,-75,c),
(874,-30,l),
(691,197,o),
(437,275,o),
(207,275,c),
(200,240,l),
(440,308,o),
(639,395,o),
(639,507,c),
(639,578,o),
(575,603,o),
(503,603,c),
(434,603,o),
(381,591,o),
(304,541,c),
(333,533,l),
(447,588,o),
(553,660,o),
(601,757,c)
);
}
);
width = 1000;
}
);
production = u1B02C;
script = hentaigana;
unicode = 110636;
}
{
category = Letter;
color = 3;
glyphname = "ku-3-kana";
layers = (
{
backgroundImage = {
imagePath = "_sketch/u1B02D.png";
locked = 1;
pos = (0,-120);
};
layerId = m01;
shapes = (
{
closed = 1;
nodes = (
(479,793,l),
(470,745,o),
(458,698,o),
(445,651,c),
(375,405,o),
(272,179,o),
(134,20,c),
(155,15,l),
(133,94,o),
(111,173,o),
(90,252,c),
(90,243,l),
(195,415,o),
(407,530,o),
(575,530,c),
(646,530,o),
(655,498,o),
(655,465,c),
(655,373,o),
(554,186,o),
(554,108,c),
(554,41,o),
(587,7,o),
(685,7,c),
(753,7,o),
(842,15,o),
(901,26,c),
(902,53,l),
(840,42,o),
(750,33,o),
(685,33,c),
(592,33,o),
(584,64,o),
(584,104,c),
(584,192,o),
(685,364,o),
(685,465,c),
(685,519,o),
(655,556,o),
(575,556,c),
(396,556,o),
(178,438,o),
(67,257,c),
(65,246,l),
(86,166,o),
(108,87,o),
(130,8,c),
(154,3,l),
(297,166,o),
(402,394,o),
(473,643,c),
(486,690,o),
(498,738,o),
(510,786,c)
);
}
);
width = 1000;
},
{
layerId = "027B829E-3619-44FF-8C68-78647B0AD671";
shapes = (
{
closed = 1;
nodes = (
(455,818,l),
(449,769,o),
(437,722,o),
(424,675,c),
(355,427,o),
(256,200,o),
(139,64,c),
(229,15,l),
(207,96,o),
(191,180,o),
(169,261,c),
(156,218,l),
(255,382,o),
(465,487,o),
(580,487,c),
(620,487,o),
(633,482,o),
(633,467,c),
(633,384,o),
(531,193,o),
(531,78,c),
(531,0,o),
(575,-52,o),
(723,-52,c),
(795,-52,o),
(886,-45,o),
(950,-33,c),
(947,94,l),
(874,81,o),
(784,71,o),
(723,71,c),
(695,71,o),
(681,80,o),
(681,106,c),
(681,206,o),
(783,352,o),
(783,467,c),
(783,561,o),
(741,610,o),
(631,610,c),
(408,610,o),
(174,486,o),
(51,282,c),
(41,227,l),
(62,145,o),
(84,64,o),
(106,-18,c),
(229,-44,l),
(380,134,o),
(491,374,o),
(564,636,c),
(578,685,o),
(590,735,o),
(606,785,c)
);
}
);
width = 1000;
},
{
layerId = "22BF860B-E605-42C1-AA52-30D9AB94E7CE";
shapes = (
{
closed = 1;
nodes = (
(450,799,l),
(444,751,o),
(433,704,o),
(420,658,c),
(351,415,o),
(244,195,o),
(131,66,c),
(178,39,l),
(161,102,o),
(140,181,o),
(118,260,c),
(112,229,l),
(213,392,o),
(417,509,o),
(575,509,c),
(630,509,o),
(629,489,o),
(629,465,c),
(629,394,o),
(528,184,o),
(528,94,c),
(528,36,o),
(555,-15,o),
(685,-15,c),
(755,-15,o),
(844,-7,o),
(905,4,c),
(898,82,l),
(837,71,o),
(748,61,o),
(685,61,c),
(627,61,o),
(611,75,o),
(611,105,c),
(611,168,o),
(712,368,o),
(712,475,c),
(712,537,o),
(683,578,o),
(585,578,c),
(386,578,o),
(162,459,o),
(46,270,c),
(40,239,l),
(62,160,o),
(83,80,o),
(106,-3,c),
(168,-19,l),
(319,154,o),
(426,385,o),
(498,636,c),
(511,684,o),
(523,732,o),
(539,779,c)
);
}
);
width = 1000;
}
);
production = u1B02D;
script = hentaigana;
unicode = 110637;
}
{
category = Letter;
color = 10;
glyphname = "ku-4-kana";
layers = (
{
backgroundImage = {
imagePath = "_sketch/u1B02E.png";
locked = 1;
pos = (0,-120);
};
layerId = m01;
shapes = (
{
closed = 1;
nodes = (
(416,767,l),
(425,703,o),
(451,634,o),
(506,592,c),
(525,595,l),
(557,639,o),
(588,686,o),
(627,717,c),
(615,743,l),
(566,703,o),
(535,654,o),
(504,611,c),
(522,614,l),
(476,649,o),
(454,712,o),
(445,776,c)
);
},
{
closed = 1;
nodes = (
(808,790,l),
(741,641,o),
(626,473,o),
(454,344,c),
(467,320,l),
(611,384,o),
(721,390,o),
(815,372,c),
(807,384,l),
(523,224,o),
(466,161,o),
(466,89,c),
(466,17,o),
(550,-8,o),
(640,-8,c),
(710,-8,o),
(800,3,o),
(866,18,c),
(864,45,l),
(797,29,o),
(708,18,o),
(640,18,c),
(554,18,o),
(496,41,o),
(496,89,c),
(496,146,o),
(536,203,o),
(830,369,c),
(826,394,l),
(722,415,o),
(605,408,o),
(476,351,c),
(482,336,l),
(645,455,o),
(764,626,o),
(835,779,c)
);
},
{
closed = 1;
nodes = (
(392,484,l),
(574,561,o),
(734,591,o),
(913,591,c),
(913,617,l),
(731,617,o),
(567,588,o),
(388,511,c)
);
},
{
closed = 1;
nodes = (
(201,782,l),
(174,606,o),
(137,348,o),
(137,226,c),
(137,106,o),
(155,31,o),
(182,-31,c),
(211,-26,l),
(233,87,o),
(263,186,o),
(293,258,c),
(271,274,l),
(237,195,o),
(206,94,o),
(188,5,c),
(199,1,l),
(183,39,o),
(168,109,o),
(168,226,c),
(168,341,o),
(206,602,o),
(234,776,c)
);
}
);
width = 1000;
},
{
layerId = "027B829E-3619-44FF-8C68-78647B0AD671";
shapes = (
{
closed = 1;
nodes = (
(356,771,l),
(366,696,o),
(401,612,o),
(486,548,c),
(571,569,l),
(598,620,o),
(621,671,o),
(649,700,c),
(590,779,l),
(543,733,o),
(514,677,o),
(486,631,c),
(555,664,l),
(524,687,o),
(500,736,o),
(488,822,c)
);
},
{
closed = 1;
nodes = (
(770,825,l),
(704,681,o),
(590,518,o),
(417,392,c),
(450,284,l),
(622,359,o),
(726,346,o),
(821,327,c),
(726,390,l),
(502,266,o),
(405,198,o),
(405,94,c),
(405,-27,o),
(543,-51,o),
(645,-51,c),
(721,-51,o),
(815,-42,o),
(888,-26,c),
(880,112,l),
(798,93,o),
(708,81,o),
(645,81,c),
(566,81,o),
(555,104,o),
(555,123,c),
(555,157,o),
(600,194,o),
(861,339,c),
(863,438,l),
(730,463,o),
(598,461,o),
(439,392,c),
(548,357,l),
(677,439,o),
(811,611,o),
(896,767,c)
);
},
{
closed = 1;
nodes = (
(388,431,l),
(590,517,o),
(746,549,o),
(925,549,c),
(925,672,l),
(733,672,o),
(555,643,o),
(365,562,c)
);
},
{
closed = 1;
nodes = (
(132,821,l),
(123,634,o),
(84,365,o),
(84,228,c),
(84,98,o),
(103,12,o),
(132,-56,c),
(251,-45,l),
(269,72,o),
(295,175,o),
(322,248,c),
(258,297,l),
(222,198,o),
(194,91,o),
(175,-31,c),
(240,-10,l),
(216,44,o),
(222,112,o),
(222,228,c),
(222,336,o),
(259,614,o),
(292,797,c)
);
}
);
width = 1000;
},
{
layerId = "22BF860B-E605-42C1-AA52-30D9AB94E7CE";
shapes = (
{
closed = 1;
nodes = (
(393,764,l),
(402,696,o),
(431,622,o),
(493,575,c),
(544,582,l),
(576,626,o),
(606,672,o),
(641,700,c),
(610,757,l),
(554,713,o),
(521,663,o),
(490,621,c),
(540,637,l),
(503,665,o),
(477,719,o),
(468,780,c)
);
},
{
closed = 1;
nodes = (
(782,803,l),
(718,656,o),
(607,489,o),
(441,361,c),
(473,307,l),
(614,369,o),
(721,366,o),
(817,347,c),
(790,400,l),
(511,242,o),
(441,173,o),
(441,89,c),
(441,-22,o),
(545,-33,o),
(640,-33,c),
(713,-33,o),
(803,-23,o),
(872,-7,c),
(873,74,l),
(793,55,o),
(705,44,o),
(640,44,c),
(551,44,o),
(521,61,o),
(521,89,c),
(521,134,o),
(550,182,o),
(841,346,c),
(846,416,l),
(723,441,o),
(600,426,o),
(484,374,c),
(495,318,l),
(664,439,o),
(787,612,o),
(861,766,c)
);
},
{
closed = 1;
nodes = (
(408,465,l),
(581,538,o),
(736,568,o),
(913,568,c),
(913,639,l),
(729,639,o),
(560,611,o),
(379,533,c)
);
},
{
closed = 1;
nodes = (
(172,786,l),
(148,610,o),
(110,353,o),
(110,226,c),
(110,103,o),
(128,23,o),
(155,-40,c),
(236,-31,l),
(258,81,o),
(288,179,o),
(309,229,c),
(254,276,l),
(223,199,o),
(195,97,o),
(175,-19,c),
(224,-10,l),
(201,44,o),
(185,111,o),
(185,226,c),
(185,338,o),
(222,599,o),
(263,772,c)
);
}
);
width = 1000;
}
);
production = u1B02E;
script = hentaigana;
unicode = 110638;
}
{
category = Letter;
color = 3;
glyphname = "ku-5-kana";
layers = (
{
backgroundImage = {
imagePath = "_sketch/u1B02F.png";
locked = 1;
pos = (0,-120);
};
layerId = m01;
shapes = (
{
closed = 1;
nodes = (
(556,791,l),
(525,657,o),
(468,557,o),
(365,437,c),
(386,419,l),
(538,608,o),
(637,669,o),
(715,669,c),
(797,669,o),
(843,620,o),
(843,527,c),
(843,431,o),
(750,368,o),
(633,368,c),
(577,368,o),
(544,387,o),
(544,426,c),
(544,446,o),
(561,493,o),
(611,493,c),
(633,493,o),
(655,483,o),
(655,439,c),
(655,378,o),
(606,313,o),
(513,276,c),
(518,250,l),
(631,246,o),
(750,227,o),
(833,198,c),
(826,219,l),
(708,203,o),
(603,169,o),
(603,89,c),
(603,13,o),
(685,-29,o),
(823,-47,c),
(832,-20,l),
(693,-2,o),
(633,35,o),
(633,89,c),
(633,148,o),
(714,181,o),
(839,198,c),
(842,224,l),
(754,253,o),
(634,271,o),
(518,274,c),
(522,254,l),
(621,293,o),
(685,362,o),
(685,439,c),
(685,496,o),
(647,519,o),
(611,519,c),
(546,519,o),
(514,463,o),
(514,426,c),
(514,369,o),
(570,342,o),
(633,342,c),
(761,342,o),
(873,419,o),
(873,527,c),
(873,631,o),
(810,695,o),
(715,695,c),
(624,695,o),
(520,627,o),
(389,450,c),
(396,440,l),
(488,542,o),
(551,647,o),
(586,784,c)
);
},
{
closed = 1;
nodes = (
(349,794,l),
(339,757,o),
(323,721,o),
(304,680,c),
(253,573,o),
(191,474,o),
(73,361,c),
(92,338,l),
(155,384,o),
(180,392,o),
(196,392,c),
(225,392,o),
(241,377,o),
(241,319,c),
(241,208,o),
(220,30,o),
(215,-37,c),
(250,-40,l),
(262,57,o),
(308,175,o),
(335,251,c),
(311,263,l),
(285,185,o),
(236,66,o),
(224,-27,c),
(243,-39,l),
(248,27,o),
(273,204,o),
(273,319,c),
(273,383,o),
(252,419,o),
(198,419,c),
(162,419,o),
(113,385,o),
(96,366,c),
(100,352,l),
(210,458,o),
(280,558,o),
(331,667,c),
(351,709,o),
(367,746,o),
(382,783,c)
);
}
);
width = 1000;
},
{
layerId = "027B829E-3619-44FF-8C68-78647B0AD671";
shapes = (
{
closed = 1;
nodes = (
(506,816,l),
(477,690,o),
(425,598,o),
(323,480,c),
(418,398,l),
(571,586,o),
(635,635,o),
(711,635,c),
(777,635,o),
(805,612,o),
(805,547,c),
(805,458,o),
(744,412,o),
(618,412,c),
(587.999,412.007,o),
(580,424,o),
(580,440,c),
(580,450,o),
(587,459,o),
(607,459,c),
(629,459,o),
(636,452,o),
(636,442,c),
(636,400,o),
(587,352,o),
(470,306,c),
(477,212,l),
(630,212,o),
(751,197,o),
(814,178,c),
(810,243,l),
(650,222,o),
(550,186,o),
(550,75,c),
(550,-24,o),
(678,-70,o),
(809,-87,c),
(854,28,l),
(723,44,o),
(693,63,o),
(693,95,c),
(693,118,o),
(728,152,o),
(874,171,c),
(880,273,l),
(769,299,o),
(641,307,o),
(559,302,c),
(551,252,l),
(636,285,o),
(747,339,o),
(747,448,c),
(747,530,o),
(675,557,o),
(614,557,c),
(531,557,o),
(469,499,o),
(469,435,c),
(469,348,o),
(561,305,o),
(637,305,c),
(786,305,o),
(940,361,o),
(940,537,c),
(940,664,o),
(865,745,o),
(721,745,c),
(595,745,o),
(477,629,o),
(401,453,c),
(408,440,l),
(513,534,o),
(589,642,o),
(641,784,c)
);
},
{
closed = 1;
nodes = (
(284,828,l),
(278,791,o),
(263,756,o),
(244,715,c),
(194,609,o),
(138,513,o),
(22,402,c),
(118,283,l),
(145,316,o),
(163,341,o),
(176,341,c),
(181,341,o),
(187,342,o),
(187,323,c),
(187,207,o),
(161,14,o),
(156,-45,c),
(303,-71,l),
(314,25,o),
(349,149,o),
(382,245,c),
(332,296,l),
(290,174,o),
(258,45,o),
(252,-8,c),
(270,-32,l),
(274,13,o),
(319,194,o),
(319,317,c),
(319,431,o),
(275,456,o),
(232,456,c),
(187,456,o),
(84,383,o),
(79,338,c),
(108,314,l),
(234,434,o),
(325,533,o),
(380,650,c),
(401,694,o),
(418,734,o),
(440,774,c)
);
}
);
width = 1000;
},
{
layerId = "22BF860B-E605-42C1-AA52-30D9AB94E7CE";
shapes = (
{
closed = 1;
nodes = (
(533,796,l),
(504,666,o),
(450,569,o),
(349,451,c),
(403,405,l),
(552,595,o),
(634,651,o),
(715,651,c),
(789,651,o),
(820,611,o),
(820,541,c),
(820,455,o),
(743,387,o),
(633,387,c),
(582,387,o),
(561,397,o),
(561,426,c),
(561,443,o),
(572,474,o),
(602,474,c),
(622,474,o),
(638,466,o),
(638,439,c),
(638,387,o),
(594,329,o),
(500,292,c),
(503,232,l),
(628,227,o),
(746,208,o),
(763,202,c),
(763,223,l),
(705,215,o),
(580,177,o),
(580,89,c),
(580,-3,o),
(677,-58,o),
(819,-76,c),
(839,-4,l),
(698,15,o),
(656,52,o),
(656,89,c),
(656,134,o),
(720,163,o),
(842,179,c),
(848,242,l),
(758,273,o),
(636,291,o),
(558,293,c),
(554,260,l),
(625,288,o),
(708,349,o),
(708,439,c),
(708,506,o),
(673,538,o),
(611,538,c),
(534,538,o),
(491,476,o),
(491,426,c),
(491,355,o),
(565,323,o),
(633,323,c),
(768,323,o),
(896,403,o),
(896,533,c),
(896,640,o),
(836,714,o),
(715,714,c),
(605,714,o),
(484,607,o),
(399,476,c),
(410,450,l),
(497,536,o),
(566,641,o),
(609,779,c)
);
},
{
closed = 1;
nodes = (
(323,803,l),
(315,767,o),
(300,732,o),
(281,691,c),
(231,586,o),
(173,489,o),
(56,378,c),
(113,308,l),
(152,348,o),
(170,365,o),
(193,365,c),
(212,365,o),
(215,360,o),
(215,319,c),
(215,176,o),
(195,33,o),
(187,-59,c),
(285,-64,l),
(298,43,o),
(333,164,o),
(358,234,c),
(311,263,l),
(284,185,o),
(239,65,o),
(227,-37,c),
(255,-40,l),
(260,26,o),
(300,202,o),
(300,319,c),
(300,414,o),
(270,441,o),
(218,441,c),
(171,441,o),
(100,395,o),
(91,376,c),
(118,343,l),
(225,446,o),
(302,545,o),
(354,657,c),
(374,698,o),
(390,736,o),
(409,774,c)
);
}
);
width = 1000;
}
);
production = u1B02F;
script = hentaigana;
unicode = 110639;
}
